<svg version="1.1" xmlns="http://www.w3.org/2000/svg" viewBox="0 0 1156.7578125 697.5" width="2313.515625" height="1395">
  <!-- svg-source:excalidraw -->
  
  <defs>
    <style>
      @font-face {
        font-family: "Virgil";
        src: url("https://excalidraw.com/Virgil.woff2");
      }
      @font-face {
        font-family: "Cascadia";
        src: url("https://excalidraw.com/Cascadia.woff2");
      }
    </style>
  </defs>
  <rect x="0" y="0" width="1156.7578125" height="697.5" fill="#ffffff"></rect><g stroke-linecap="round" transform="translate(352.98828125 293.484375) rotate(0 114.119140625 172.62890625)"><path d="M0 0 C72.32 0, 144.64 0, 228.24 0 M0 0 C84.56 0, 169.13 0, 228.24 0 M228.24 0 C228.24 73.32, 228.24 146.65, 228.24 345.26 M228.24 0 C228.24 120.97, 228.24 241.94, 228.24 345.26 M228.24 345.26 C167.83 345.26, 107.42 345.26, 0 345.26 M228.24 345.26 C156.52 345.26, 84.81 345.26, 0 345.26 M0 345.26 C0 254.89, 0 164.51, 0 0 M0 345.26 C0 251.18, 0 157.1, 0 0" stroke="#000000" stroke-width="1" fill="none"></path></g><g transform="translate(361.9453125 296.69921875) rotate(0 104.5 150)"><text x="0" y="18" font-family="Virgil, Segoe UI Emoji" font-size="20px" fill="#000000" text-anchor="start" style="white-space: pre;" direction="ltr">crate_A</text><text x="0" y="43" font-family="Virgil, Segoe UI Emoji" font-size="20px" fill="#000000" text-anchor="start" style="white-space: pre;" direction="ltr">    tests</text><text x="0" y="68" font-family="Virgil, Segoe UI Emoji" font-size="20px" fill="#000000" text-anchor="start" style="white-space: pre;" direction="ltr">        integration.rs</text><text x="0" y="93" font-family="Virgil, Segoe UI Emoji" font-size="20px" fill="#000000" text-anchor="start" style="white-space: pre;" direction="ltr">    src</text><text x="0" y="118" font-family="Virgil, Segoe UI Emoji" font-size="20px" fill="#000000" text-anchor="start" style="white-space: pre;" direction="ltr">        lib.rs</text><text x="0" y="143" font-family="Virgil, Segoe UI Emoji" font-size="20px" fill="#000000" text-anchor="start" style="white-space: pre;" direction="ltr">        error.rs</text><text x="0" y="168" font-family="Virgil, Segoe UI Emoji" font-size="20px" fill="#000000" text-anchor="start" style="white-space: pre;" direction="ltr">        config.rs</text><text x="0" y="193" font-family="Virgil, Segoe UI Emoji" font-size="20px" fill="#000000" text-anchor="start" style="white-space: pre;" direction="ltr">        dir_a</text><text x="0" y="218" font-family="Virgil, Segoe UI Emoji" font-size="20px" fill="#000000" text-anchor="start" style="white-space: pre;" direction="ltr">            pb.rs</text><text x="0" y="243" font-family="Virgil, Segoe UI Emoji" font-size="20px" fill="#000000" text-anchor="start" style="white-space: pre;" direction="ltr">            mod.rs</text><text x="0" y="268" font-family="Virgil, Segoe UI Emoji" font-size="20px" fill="#000000" text-anchor="start" style="white-space: pre;" direction="ltr">    </text><text x="0" y="293" font-family="Virgil, Segoe UI Emoji" font-size="20px" fill="#000000" text-anchor="start" style="white-space: pre;" direction="ltr">    Cargo.toml</text></g><g stroke-linecap="round"><g transform="translate(498.8359375 407.80078125) rotate(0 109.05478042965541 -47.363566551209004)"><path d="M0 0 C36.35 -15.79, 181.76 -78.94, 218.11 -94.73 M0 0 C36.35 -15.79, 181.76 -78.94, 218.11 -94.73" stroke="#000000" stroke-width="1" fill="none"></path></g><g transform="translate(498.8359375 407.80078125) rotate(0 109.05478042965541 -47.363566551209004)"><path d="M196.34 -74.09 C201.73 -79.19, 207.11 -84.3, 218.11 -94.73 M196.34 -74.09 C201.49 -78.97, 206.64 -83.85, 218.11 -94.73" stroke="#000000" stroke-width="1" fill="none"></path></g><g transform="translate(498.8359375 407.80078125) rotate(0 109.05478042965541 -47.363566551209004)"><path d="M188.16 -92.91 C195.57 -93.36, 202.98 -93.81, 218.11 -94.73 M188.16 -92.91 C195.25 -93.34, 202.33 -93.77, 218.11 -94.73" stroke="#000000" stroke-width="1" fill="none"></path></g></g><g stroke-linecap="round" transform="translate(719.90234375 270.03515625) rotate(0 94 55)"><path d="M3.19 1.75 C55.12 0.85, 114.74 -3.67, 190.79 1.85 M1.81 1.78 C53.72 -0.73, 104.31 0.53, 188.9 0.08 M191.27 -0.12 C185.02 40.88, 186.65 78.56, 188.82 109.7 M189.38 -0.68 C188.33 35.04, 186.86 68.47, 186.79 111.74 M191.77 106.18 C133.76 109.13, 75.42 110.84, 0.09 112.24 M186.49 111.45 C116.81 111.49, 48.26 114.55, 0.54 111.52 M2.48 113.7 C-1.18 69.54, -2.31 22.46, 0.5 -1.62 M0.21 109.16 C-1.17 76.38, -1.33 43.67, -0.83 -0.53" stroke="#000000" stroke-width="1" fill="none"></path></g><g transform="translate(724.90234375 275.03515625) rotate(0 89 50)"><text x="89" y="18" font-family="Virgil, Segoe UI Emoji" font-size="20px" fill="#000000" text-anchor="middle" style="white-space: pre;" direction="ltr">mod error;</text><text x="89" y="43" font-family="Virgil, Segoe UI Emoji" font-size="20px" fill="#000000" text-anchor="middle" style="white-space: pre;" direction="ltr">mod config;</text><text x="89" y="68" font-family="Virgil, Segoe UI Emoji" font-size="20px" fill="#000000" text-anchor="middle" style="white-space: pre;" direction="ltr"></text><text x="89" y="93" font-family="Virgil, Segoe UI Emoji" font-size="20px" fill="#000000" text-anchor="middle" style="white-space: pre;" direction="ltr">mod dir_a;</text></g><g stroke-linecap="round"><g transform="translate(543.12890625 537.91796875) rotate(0 92.76981742751855 -12.375394678355121)"><path d="M0 0 C30.92 -4.13, 154.62 -20.63, 185.54 -24.75 M0 0 C30.92 -4.13, 154.62 -20.63, 185.54 -24.75" stroke="#000000" stroke-width="1" fill="none"></path></g><g transform="translate(543.12890625 537.91796875) rotate(0 92.76981742751855 -12.375394678355121)"><path d="M158.95 -10.85 C167.16 -15.15, 175.38 -19.44, 185.54 -24.75 M158.95 -10.85 C164.32 -13.66, 169.68 -16.46, 185.54 -24.75" stroke="#000000" stroke-width="1" fill="none"></path></g><g transform="translate(543.12890625 537.91796875) rotate(0 92.76981742751855 -12.375394678355121)"><path d="M156.24 -31.19 C165.29 -29.2, 174.34 -27.21, 185.54 -24.75 M156.24 -31.19 C162.15 -29.89, 168.06 -28.59, 185.54 -24.75" stroke="#000000" stroke-width="1" fill="none"></path></g></g><g stroke-linecap="round" transform="translate(731.453125 493.99609375) rotate(0 83.177734375 20.875)"><path d="M3.02 0.23 C32.59 2.87, 71.5 -3.03, 168.21 0.69 M-1.37 -0.18 C39.54 -0.81, 79.68 -1.26, 165.07 -1.26 M168.84 0.51 C164.64 10.67, 168.56 21.63, 168.77 43.55 M167.64 1.44 C166.44 13.69, 167.16 22.21, 165.86 42.32 M170.25 41.44 C112.94 40.82, 61.95 45.06, -3.77 43.58 M165.44 40.66 C111.89 40.03, 53.52 41.18, -1.49 40.75 M-0.47 42.08 C2.46 31.68, -3.79 17.48, 1.7 3.21 M1.88 42.22 C-1.94 26.25, -1.97 15.42, -0.5 -0.62" stroke="#000000" stroke-width="1" fill="none"></path></g><g transform="translate(779.44921875 498.19140625) rotate(0 35.5 12.5)"><text x="0" y="18" font-family="Virgil, Segoe UI Emoji" font-size="20px" fill="#000000" text-anchor="start" style="white-space: pre;" direction="ltr">mod pb;</text></g><g transform="translate(786.05078125 337.6171875) rotate(0 0.00004999999998744897 0.00005000000000165983)" stroke="none"><path fill="#000000" d="M 1.57,-1.57 Q 1.57,-1.57 1.77,-1.27 1.98,-0.98 2.09,-0.64 2.20,-0.29 2.19,0.05 2.18,0.41 2.05,0.75 1.93,1.09 1.70,1.37 1.48,1.65 1.18,1.84 0.87,2.04 0.52,2.12 0.18,2.21 -0.17,2.18 -0.53,2.15 -0.86,2.01 -1.19,1.87 -1.46,1.63 -1.73,1.39 -1.90,1.07 -2.08,0.76 -2.15,0.41 -2.21,0.05 -2.17,-0.29 -2.12,-0.65 -1.96,-0.97 -1.80,-1.29 -1.54,-1.54 -1.29,-1.80 -0.97,-1.96 -0.65,-2.12 -0.29,-2.17 0.06,-2.21 0.41,-2.15 0.76,-2.08 1.07,-1.90 1.39,-1.73 1.63,-1.46 1.87,-1.19 2.01,-0.86 2.15,-0.53 2.18,-0.17 2.21,0.18 2.12,0.52 2.03,0.87 1.84,1.18 1.65,1.48 1.37,1.70 1.09,1.93 0.75,2.05 0.41,2.18 0.05,2.19 -0.30,2.20 -0.64,2.09 -0.98,1.98 -1.27,1.77 -1.57,1.56 -1.57,1.57 -1.57,1.57 -1.73,1.35 -1.90,1.14 -2.01,0.90 -2.12,0.66 -2.16,0.39 -2.21,0.13 -2.20,-0.13 -2.18,-0.40 -2.10,-0.65 -2.02,-0.91 -1.88,-1.14 -1.74,-1.36 -1.55,-1.55 -1.36,-1.74 -1.14,-1.88 -0.91,-2.02 -0.65,-2.10 -0.40,-2.18 -0.13,-2.20 0.13,-2.21 0.39,-2.16 0.66,-2.12 0.90,-2.01 1.14,-1.90 1.35,-1.73 1.57,-1.57 1.57,-1.57 L 1.57,-1.57 Z"></path></g><g transform="translate(786.05078125 337.6171875) rotate(0 0.00004999999998744897 0.00005000000000165983)" stroke="none"><path fill="#000000" d="M 1.57,-1.57 Q 1.57,-1.57 1.77,-1.27 1.98,-0.98 2.09,-0.64 2.20,-0.29 2.19,0.05 2.18,0.41 2.05,0.75 1.93,1.09 1.70,1.37 1.48,1.65 1.18,1.84 0.87,2.04 0.52,2.12 0.18,2.21 -0.17,2.18 -0.53,2.15 -0.86,2.01 -1.19,1.87 -1.46,1.63 -1.73,1.39 -1.90,1.07 -2.08,0.76 -2.15,0.41 -2.21,0.05 -2.17,-0.29 -2.12,-0.65 -1.96,-0.97 -1.80,-1.29 -1.54,-1.54 -1.29,-1.80 -0.97,-1.96 -0.65,-2.12 -0.29,-2.17 0.06,-2.21 0.41,-2.15 0.76,-2.08 1.07,-1.90 1.39,-1.73 1.63,-1.46 1.87,-1.19 2.01,-0.86 2.15,-0.53 2.18,-0.17 2.21,0.18 2.12,0.52 2.03,0.87 1.84,1.18 1.65,1.48 1.37,1.70 1.09,1.93 0.75,2.05 0.41,2.18 0.05,2.19 -0.30,2.20 -0.64,2.09 -0.98,1.98 -1.27,1.77 -1.57,1.56 -1.57,1.57 -1.57,1.57 -1.73,1.35 -1.90,1.14 -2.01,0.90 -2.12,0.66 -2.16,0.39 -2.21,0.13 -2.20,-0.13 -2.18,-0.40 -2.10,-0.65 -2.02,-0.91 -1.88,-1.14 -1.74,-1.36 -1.55,-1.55 -1.36,-1.74 -1.14,-1.88 -0.91,-2.02 -0.65,-2.10 -0.40,-2.18 -0.13,-2.20 0.13,-2.21 0.39,-2.16 0.66,-2.12 0.90,-2.01 1.14,-1.90 1.35,-1.73 1.57,-1.57 1.57,-1.57 L 1.57,-1.57 Z"></path></g><g transform="translate(786.05078125 337.6171875) rotate(0 0.00004999999998744897 0.00005000000000165983)" stroke="none"><path fill="#000000" d="M 1.57,-1.57 Q 1.57,-1.57 1.77,-1.27 1.98,-0.98 2.09,-0.64 2.20,-0.29 2.19,0.05 2.18,0.41 2.05,0.75 1.93,1.09 1.70,1.37 1.48,1.65 1.18,1.84 0.87,2.04 0.52,2.12 0.18,2.21 -0.17,2.18 -0.53,2.15 -0.86,2.01 -1.19,1.87 -1.46,1.63 -1.73,1.39 -1.90,1.07 -2.08,0.76 -2.15,0.41 -2.21,0.05 -2.17,-0.29 -2.12,-0.65 -1.96,-0.97 -1.80,-1.29 -1.54,-1.54 -1.29,-1.80 -0.97,-1.96 -0.65,-2.12 -0.29,-2.17 0.06,-2.21 0.41,-2.15 0.76,-2.08 1.07,-1.90 1.39,-1.73 1.63,-1.46 1.87,-1.19 2.01,-0.86 2.15,-0.53 2.18,-0.17 2.21,0.18 2.12,0.52 2.03,0.87 1.84,1.18 1.65,1.48 1.37,1.70 1.09,1.93 0.75,2.05 0.41,2.18 0.05,2.19 -0.30,2.20 -0.64,2.09 -0.98,1.98 -1.27,1.77 -1.57,1.56 -1.57,1.57 -1.57,1.57 -1.73,1.35 -1.90,1.14 -2.01,0.90 -2.12,0.66 -2.16,0.39 -2.21,0.13 -2.20,-0.13 -2.18,-0.40 -2.10,-0.65 -2.02,-0.91 -1.88,-1.14 -1.74,-1.36 -1.55,-1.55 -1.36,-1.74 -1.14,-1.88 -0.91,-2.02 -0.65,-2.10 -0.40,-2.18 -0.13,-2.20 0.13,-2.21 0.39,-2.16 0.66,-2.12 0.90,-2.01 1.14,-1.90 1.35,-1.73 1.57,-1.57 1.57,-1.57 L 1.57,-1.57 Z"></path></g><g transform="translate(807.21875 337.6171875) rotate(0 0.00004999999998744897 0.00005000000000165983)" stroke="none"><path fill="#000000" d="M 1.57,-1.57 Q 1.57,-1.57 1.77,-1.27 1.98,-0.98 2.09,-0.64 2.20,-0.29 2.19,0.05 2.18,0.41 2.05,0.75 1.93,1.09 1.70,1.37 1.48,1.65 1.18,1.84 0.87,2.04 0.52,2.12 0.18,2.21 -0.17,2.18 -0.53,2.15 -0.86,2.01 -1.19,1.87 -1.46,1.63 -1.73,1.39 -1.90,1.07 -2.08,0.76 -2.15,0.41 -2.21,0.05 -2.17,-0.29 -2.12,-0.65 -1.96,-0.97 -1.80,-1.29 -1.54,-1.54 -1.29,-1.80 -0.97,-1.96 -0.65,-2.12 -0.29,-2.17 0.06,-2.21 0.41,-2.15 0.76,-2.08 1.07,-1.90 1.39,-1.73 1.63,-1.46 1.87,-1.19 2.01,-0.86 2.15,-0.53 2.18,-0.17 2.21,0.18 2.12,0.52 2.03,0.87 1.84,1.18 1.65,1.48 1.37,1.70 1.09,1.93 0.75,2.05 0.41,2.18 0.05,2.19 -0.30,2.20 -0.64,2.09 -0.98,1.98 -1.27,1.77 -1.57,1.56 -1.57,1.57 -1.57,1.57 -1.73,1.35 -1.90,1.14 -2.01,0.90 -2.12,0.66 -2.16,0.39 -2.21,0.13 -2.20,-0.13 -2.18,-0.40 -2.10,-0.65 -2.02,-0.91 -1.88,-1.14 -1.74,-1.36 -1.55,-1.55 -1.36,-1.74 -1.14,-1.88 -0.91,-2.02 -0.65,-2.10 -0.40,-2.18 -0.13,-2.20 0.13,-2.21 0.39,-2.16 0.66,-2.12 0.90,-2.01 1.14,-1.90 1.35,-1.73 1.57,-1.57 1.57,-1.57 L 1.57,-1.57 Z"></path></g><g transform="translate(807.21875 337.84765625) rotate(0 0.00004999999998744897 0.00005000000000165983)" stroke="none"><path fill="#000000" d="M 1.57,-1.57 Q 1.57,-1.57 1.77,-1.27 1.98,-0.98 2.09,-0.64 2.20,-0.29 2.19,0.05 2.18,0.41 2.05,0.75 1.93,1.09 1.70,1.37 1.48,1.65 1.18,1.84 0.87,2.04 0.52,2.12 0.18,2.21 -0.17,2.18 -0.53,2.15 -0.86,2.01 -1.19,1.87 -1.46,1.63 -1.73,1.39 -1.90,1.07 -2.08,0.76 -2.15,0.41 -2.21,0.05 -2.17,-0.29 -2.12,-0.65 -1.96,-0.97 -1.80,-1.29 -1.54,-1.54 -1.29,-1.80 -0.97,-1.96 -0.65,-2.12 -0.29,-2.17 0.06,-2.21 0.41,-2.15 0.76,-2.08 1.07,-1.90 1.39,-1.73 1.63,-1.46 1.87,-1.19 2.01,-0.86 2.15,-0.53 2.18,-0.17 2.21,0.18 2.12,0.52 2.03,0.87 1.84,1.18 1.65,1.48 1.37,1.70 1.09,1.93 0.75,2.05 0.41,2.18 0.05,2.19 -0.30,2.20 -0.64,2.09 -0.98,1.98 -1.27,1.77 -1.57,1.56 -1.57,1.57 -1.57,1.57 -1.73,1.35 -1.90,1.14 -2.01,0.90 -2.12,0.66 -2.16,0.39 -2.21,0.13 -2.20,-0.13 -2.18,-0.40 -2.10,-0.65 -2.02,-0.91 -1.88,-1.14 -1.74,-1.36 -1.55,-1.55 -1.36,-1.74 -1.14,-1.88 -0.91,-2.02 -0.65,-2.10 -0.40,-2.18 -0.13,-2.20 0.13,-2.21 0.39,-2.16 0.66,-2.12 0.90,-2.01 1.14,-1.90 1.35,-1.73 1.57,-1.57 1.57,-1.57 L 1.57,-1.57 Z"></path></g><g stroke-linecap="round" transform="translate(331.7890625 233.9140625) rotate(0 321.015625 219.037109375)"><path d="M0 0 C141.09 0, 282.18 0, 642.03 0 M642.03 0 C642.03 112.01, 642.03 224.02, 642.03 438.07 M642.03 438.07 C507.35 438.07, 372.68 438.07, 0 438.07 M0 438.07 C0 326.96, 0 215.84, 0 0" stroke="#000000" stroke-width="2.5" fill="none" stroke-dasharray="1.5 8"></path></g><g stroke-linecap="round" transform="translate(747.4296875 350.33984375) rotate(0 67.783203125 13.96484375)"><path d="M0 0 C45.19 0, 90.39 0, 135.57 0 M0 0 C49.1 0, 98.2 0, 135.57 0 M135.57 0 C135.57 8.24, 135.57 16.48, 135.57 27.93 M135.57 0 C135.57 7.45, 135.57 14.9, 135.57 27.93 M135.57 27.93 C94.69 27.93, 53.82 27.93, 0 27.93 M135.57 27.93 C99.57 27.93, 63.56 27.93, 0 27.93 M0 27.93 C0 20.42, 0 12.91, 0 0 M0 27.93 C0 17, 0 6.08, 0 0" stroke="#c92a2a" stroke-width="2" fill="none"></path></g><g stroke-linecap="round"><g transform="translate(373.4921875 230.50390625) rotate(0 0.091796875 -37.349609375)"><path d="M0 0 C0.03 -12.45, 0.15 -62.25, 0.18 -74.7" stroke="#000000" stroke-width="2.5" fill="none" stroke-dasharray="1.5 8"></path></g></g><g stroke-linecap="round"><g transform="translate(374.46484374999994 161.671875) rotate(0 341.11328125000006 2.087890625)"><path d="M0 0 C113.7 0.7, 568.52 3.48, 682.23 4.18" stroke="#000000" stroke-width="2.5" fill="none" stroke-dasharray="1.5 8"></path></g></g><g stroke-linecap="round"><g transform="translate(1047.8125 168.55859375) rotate(0 0.232421875 227.87890625000003)"><path d="M0 0 C0.08 75.96, 0.39 379.8, 0.46 455.76" stroke="#000000" stroke-width="2.5" fill="none" stroke-dasharray="1.5 8"></path></g></g><g stroke-linecap="round"><g transform="translate(1047.9609375 615.87890625) rotate(0 -37.234375 0.041015625)"><path d="M0 0 C-12.41 0.01, -62.06 0.07, -74.47 0.08" stroke="#000000" stroke-width="2.5" fill="none" stroke-dasharray="1.5 8"></path></g></g><g stroke-linecap="round"><g transform="translate(425.43359375 157.515625) rotate(0 0.47265625 -33.287109375)"><path d="M0 0 C0.16 -11.1, 0.79 -55.48, 0.95 -66.57" stroke="#000000" stroke-width="2.5" fill="none" stroke-dasharray="1.5 8"></path></g></g><g stroke-linecap="round"><g transform="translate(427.8203125 88.04296875) rotate(0 346.13476562500006 4.48828125)"><path d="M0 0 C115.38 1.5, 576.89 7.48, 692.27 8.98" stroke="#000000" stroke-width="2.5" fill="none" stroke-dasharray="1.5 8"></path></g></g><g stroke-linecap="round"><g transform="translate(1115.875 99.0390625) rotate(0 0.546875 231.22265625000003)"><path d="M0 0 C0.18 77.07, 0.91 385.37, 1.09 462.45" stroke="#000000" stroke-width="2.5" fill="none" stroke-dasharray="1.5 8"></path></g></g><g stroke-linecap="round"><g transform="translate(1117.5078125 557.4765625) rotate(0 -34.064453125 -0.91015625)"><path d="M0 0 C-11.35 -0.3, -56.77 -1.52, -68.13 -1.82" stroke="#000000" stroke-width="2.5" fill="none" stroke-dasharray="1.5 8"></path></g></g><g transform="translate(439.44921875 189.19140625) rotate(0 60.5 12.5)"><text x="0" y="18" font-family="Virgil, Segoe UI Emoji" font-size="20px" fill="#000000" text-anchor="start" style="white-space: pre;" direction="ltr">crate:  core</text></g><g transform="translate(493.44921875 111.19140625) rotate(0 69 12.5)"><text x="0" y="18" font-family="Virgil, Segoe UI Emoji" font-size="20px" fill="#000000" text-anchor="start" style="white-space: pre;" direction="ltr">crate network</text></g><g stroke-linecap="round" transform="translate(10 10) rotate(0 568.37890625 338.75)"><path d="M0 0 C394.66 0, 789.32 0, 1136.76 0 M0 0 C386.61 0, 773.22 0, 1136.76 0 M1136.76 0 C1136.76 211.98, 1136.76 423.96, 1136.76 677.5 M1136.76 0 C1136.76 172.33, 1136.76 344.66, 1136.76 677.5 M1136.76 677.5 C711.61 677.5, 286.46 677.5, 0 677.5 M1136.76 677.5 C766.84 677.5, 396.92 677.5, 0 677.5 M0 677.5 C0 529.06, 0 380.62, 0 0 M0 677.5 C0 446.31, 0 215.11, 0 0" stroke="#000000" stroke-width="2" fill="none"></path></g><g transform="translate(70.44921875 81.19140625) rotate(0 49.5 37.5)"><text x="0" y="18" font-family="Virgil, Segoe UI Emoji" font-size="20px" fill="#000000" text-anchor="start" style="white-space: pre;" direction="ltr">Workspace</text><text x="0" y="43" font-family="Virgil, Segoe UI Emoji" font-size="20px" fill="#000000" text-anchor="start" style="white-space: pre;" direction="ltr"></text><text x="0" y="68" font-family="Virgil, Segoe UI Emoji" font-size="20px" fill="#000000" text-anchor="start" style="white-space: pre;" direction="ltr"></text></g><g stroke-linecap="round" transform="translate(71.26953125 216.53125) rotate(0 85.056640625 141.501953125)"><path d="M-3.03 -0.17 C41.98 6.58, 91.1 6.31, 172.27 2.7 M-1.95 -1.54 C61.13 0.13, 127.12 2.24, 171.47 1.12 M168.22 2.56 C172.97 70.53, 171.55 135.72, 169.34 282.74 M169.37 0.01 C172.02 89.36, 169.74 177.61, 170.77 284.33 M174.1 280.5 C106.28 287.11, 37.73 283.53, -0.48 282.14 M172 282.74 C114.71 286.11, 59.3 284.31, -1.85 283.28 M2.04 284.64 C-0.03 192.25, 0.21 105.05, -1.59 2.43 M0.78 283.5 C-3.15 188.62, -3.03 96.59, 0.52 -0.22" stroke="#000000" stroke-width="1" fill="none"></path></g><g transform="translate(106.44921875 177.19140625) rotate(0 51.5 12.5)"><text x="0" y="18" font-family="Virgil, Segoe UI Emoji" font-size="20px" fill="#000000" text-anchor="start" style="white-space: pre;" direction="ltr">Cargo.toml</text></g><g transform="translate(83.7265625 246.5703125) rotate(0 68.5 87.5)"><text x="0" y="18" font-family="Virgil, Segoe UI Emoji" font-size="20px" fill="#000000" text-anchor="start" style="white-space: pre;" direction="ltr">[workspace]</text><text x="0" y="43" font-family="Virgil, Segoe UI Emoji" font-size="20px" fill="#000000" text-anchor="start" style="white-space: pre;" direction="ltr"></text><text x="0" y="68" font-family="Virgil, Segoe UI Emoji" font-size="20px" fill="#000000" text-anchor="start" style="white-space: pre;" direction="ltr">members = [</text><text x="0" y="93" font-family="Virgil, Segoe UI Emoji" font-size="20px" fill="#000000" text-anchor="start" style="white-space: pre;" direction="ltr">    "network",</text><text x="0" y="118" font-family="Virgil, Segoe UI Emoji" font-size="20px" fill="#000000" text-anchor="start" style="white-space: pre;" direction="ltr">    "core",</text><text x="0" y="143" font-family="Virgil, Segoe UI Emoji" font-size="20px" fill="#000000" text-anchor="start" style="white-space: pre;" direction="ltr">    "crate_A"</text><text x="0" y="168" font-family="Virgil, Segoe UI Emoji" font-size="20px" fill="#000000" text-anchor="start" style="white-space: pre;" direction="ltr">]</text></g><g stroke-linecap="round"><g transform="translate(227.96484375 323.08203125) rotate(0 100.333984375 -105.654296875)"><path d="M0 0 C33.44 -35.22, 167.22 -176.09, 200.67 -211.31 M0 0 C33.44 -35.22, 167.22 -176.09, 200.67 -211.31" stroke="#2b8a3e" stroke-width="2" fill="none"></path></g><g transform="translate(227.96484375 323.08203125) rotate(0 100.333984375 -105.654296875)"><path d="M188.7 -183.8 C191.78 -190.88, 194.85 -197.95, 200.67 -211.31 M188.7 -183.8 C191.1 -189.34, 193.51 -194.87, 200.67 -211.31" stroke="#2b8a3e" stroke-width="2" fill="none"></path></g><g transform="translate(227.96484375 323.08203125) rotate(0 100.333984375 -105.654296875)"><path d="M173.82 -197.93 C180.72 -201.37, 187.63 -204.81, 200.67 -211.31 M173.82 -197.93 C179.22 -200.62, 184.62 -203.31, 200.67 -211.31" stroke="#2b8a3e" stroke-width="2" fill="none"></path></g></g><g stroke-linecap="round"><g transform="translate(224.5078125 352.1875) rotate(0 102.255859375 -74.9453125)"><path d="M0 0 C34.09 -24.98, 170.43 -124.91, 204.51 -149.89 M0 0 C34.09 -24.98, 170.43 -124.91, 204.51 -149.89" stroke="#2b8a3e" stroke-width="2" fill="none"></path></g><g transform="translate(224.5078125 352.1875) rotate(0 102.255859375 -74.9453125)"><path d="M187.84 -124.95 C192.95 -132.6, 198.06 -140.25, 204.51 -149.89 M187.84 -124.95 C193.34 -133.17, 198.83 -141.4, 204.51 -149.89" stroke="#2b8a3e" stroke-width="2" fill="none"></path></g><g transform="translate(224.5078125 352.1875) rotate(0 102.255859375 -74.9453125)"><path d="M175.71 -141.5 C184.54 -144.07, 193.37 -146.65, 204.51 -149.89 M175.71 -141.5 C185.21 -144.27, 194.7 -147.03, 204.51 -149.89" stroke="#2b8a3e" stroke-width="2" fill="none"></path></g></g><g stroke-linecap="round"><g transform="translate(222.84765625 381.1953125) rotate(0 65.083984375 -34.361328125)"><path d="M0 0 C21.69 -11.45, 108.47 -57.27, 130.17 -68.72 M0 0 C21.69 -11.45, 108.47 -57.27, 130.17 -68.72" stroke="#2b8a3e" stroke-width="2" fill="none"></path></g><g transform="translate(222.84765625 381.1953125) rotate(0 65.083984375 -34.361328125)"><path d="M110.03 -46.49 C114.55 -51.47, 119.06 -56.46, 130.17 -68.72 M110.03 -46.49 C114.48 -51.41, 118.94 -56.32, 130.17 -68.72" stroke="#2b8a3e" stroke-width="2" fill="none"></path></g><g transform="translate(222.84765625 381.1953125) rotate(0 65.083984375 -34.361328125)"><path d="M100.45 -64.63 C107.11 -65.55, 113.78 -66.47, 130.17 -68.72 M100.45 -64.63 C107.02 -65.54, 113.59 -66.44, 130.17 -68.72" stroke="#2b8a3e" stroke-width="2" fill="none"></path></g></g><g transform="translate(171.44921875 85.19140625) rotate(0 75 14.5)"><text x="0" y="21" font-family="Virgil, Segoe UI Emoji" font-size="20px" fill="#2b8a3e" text-anchor="start" style="white-space: pre;" direction="ltr">(包含多个crate)</text></g></svg>