<svg id="kity_svg_6" xmlns="http://www.w3.org/2000/svg" xmlns:xlink="http://www.w3.org/1999/xlink" version="1.1" width="1439" height="421" style="background: rgb(251, 251, 251); visibility: visible;" viewBox="0 0 1439 421"><defs id="kity_defs_7"><linearGradient id="kity_linearGradient_17" x1="0" y1="0" x2="0" y2="1"><stop id="kity_stop_18" offset="0" stop-color="rgb(255, 255, 255)"></stop><stop id="kity_stop_19" offset="1" stop-color="rgb(204, 204, 204)"></stop></linearGradient><marker id="kity_marker_2" orient="auto" refX="6" refY="0" viewBox="-7 -7 14 14" markerWidth="7" markerHeight="7" markerUnits="userSpaceOnUse"><path id="kity_path_3" fill="rgb(115, 161, 191)" stroke="none" d="M6,0A6,6,0,1,1,-6,0A6,6,0,1,1,6,0"></path></marker></defs><g id="kity_g_8"><g id="minder1" text-rendering="optimize-speed"><g id="minder_connect_group1"><path id="kity_path_31" fill="none" stroke="rgb(115, 161, 191)" stroke-width="1" d="M610.5,60.5v30h-542V110.5"></path><path id="kity_path_33" fill="none" stroke="rgb(115, 161, 191)" stroke-width="1" d="M40.5,136.5V182.5L60.5,182.5"></path><path id="kity_path_35" fill="none" stroke="rgb(115, 161, 191)" stroke-width="1" d="M610.5,60.5v30h-278V110.5"></path><path id="kity_path_37" fill="none" stroke="rgb(115, 161, 191)" stroke-width="1" d="M248.5,136.5V182.5L268.5,182.5"></path><path id="kity_path_39" fill="none" stroke="rgb(115, 161, 191)" stroke-width="1" d="M248.5,136.5V234.5L268.5,234.5"></path><path id="kity_path_41" fill="none" stroke="rgb(115, 161, 191)" stroke-width="1" d="M610.5,60.5v30h556V110.5"></path><path id="kity_path_43" fill="none" stroke="rgb(115, 161, 191)" stroke-width="1" d="M1152.5,136.5V182.5L1172.5,182.5"></path><path id="kity_path_45" fill="none" stroke="rgb(115, 161, 191)" stroke-width="1" d="M1192.5,193.5V234.5L1212.5,234.5"></path><path id="kity_path_47" fill="none" stroke="rgb(115, 161, 191)" stroke-width="1" d="M1192.5,193.5V286.5L1212.5,286.5"></path><path id="kity_path_49" fill="none" stroke="rgb(115, 161, 191)" stroke-width="1" d="M1192.5,193.5V338.5L1212.5,338.5"></path><path id="kity_path_51" fill="none" stroke="rgb(115, 161, 191)" stroke-width="1" d="M1192.5,193.5V390.5L1212.5,390.5"></path><path id="kity_path_127" fill="none" stroke="rgb(115, 161, 191)" stroke-width="1" d="M40.5,136.5V234.5L60.5,234.5"></path><path id="kity_path_135" fill="none" stroke="rgb(115, 161, 191)" stroke-width="1" d="M40.5,136.5V286.5L60.5,286.5"></path></g><g id="minder_node1"><path id="node_outline1" fill="rgb(115, 161, 191)" stroke="rgb(115, 161, 191)" d="M527.5,20.5h166a5,5,0,0,1,5,5v30a5,5,0,0,1,-5,5h-166a5,5,0,0,1,-5,-5v-30a5,5,0,0,1,5,-5z" stroke-width="3"></path><g id="node_text1" fill="white"><text id="kity_text_22" text-rendering="inherit" font-size="16" dy=".8em" y="32.5" x="546.5">《国史大纲》笔记</text></g></g><g id="kity_g_12"><path id="kity_path_13" fill="none" stroke="none" d="M546.5,40.5h0v0h0z"></path></g><g id="kity_g_14"><path id="kity_path_15" fill="none" stroke="none" d="M546.5,40.5h0v0h0z"></path><path id="kity_path_16" fill="none" stroke="none"></path></g><g id="minder_node2"><g id="node_expander2" style="cursor: pointer;"><path id="kity_path_89" fill="white" stroke="gray" d="M74.5,103.5A6,6,0,1,1,62.5,103.5A6,6,0,1,1,74.5,103.5"></path><path id="kity_path_90" fill="none" stroke="gray" d="M64,103.5L73,103.5"></path></g><path id="node_outline3" fill="rgb(238, 243, 246)" stroke="rgb(115, 161, 191)" d="M23.5,110.5h90a3,3,0,0,1,3,3v20a3,3,0,0,1,-3,3h-90a3,3,0,0,1,-3,-3v-20a3,3,0,0,1,3,-3z" stroke-width="1"></path><g id="node_text3" fill="black"><text id="kity_text_55" text-rendering="inherit" font-size="14" dy=".8em" y="116.5" x="40.5">出版说明</text></g></g><g id="minder_node3"><g id="node_expander1" style="cursor: pointer;" display="none"><path id="kity_path_86" fill="white" stroke="gray" d="M60.5,182.5A6,6,0,1,1,48.5,182.5A6,6,0,1,1,60.5,182.5"></path><path id="kity_path_87" fill="none" stroke="gray" d="M50,182.5L59,182.5"></path></g><path id="node_outline2" fill="none" stroke="none" d="M65.5,171.5h94a5,5,0,0,1,5,5v12a5,5,0,0,1,-5,5h-94a5,5,0,0,1,-5,-5v-12a5,5,0,0,1,5,-5z" stroke-width="3"></path><g id="node_text2" fill="black"><text id="kity_text_53" text-rendering="inherit" font-size="12" dy=".8em" y="176.5" x="70.5">战国重学术思想</text></g></g><g id="minder_node4"><g id="node_expander5" style="cursor: pointer;"><path id="kity_path_98" fill="white" stroke="gray" d="M338.5,103.5A6,6,0,1,1,326.5,103.5A6,6,0,1,1,338.5,103.5"></path><path id="kity_path_99" fill="none" stroke="gray" d="M328,103.5L337,103.5"></path></g><path id="node_outline6" fill="rgb(238, 243, 246)" stroke="rgb(115, 161, 191)" d="M231.5,110.5h202a3,3,0,0,1,3,3v20a3,3,0,0,1,-3,3h-202a3,3,0,0,1,-3,-3v-20a3,3,0,0,1,3,-3z" stroke-width="1"></path><g id="node_text6" fill="black"><text id="kity_text_61" text-rendering="inherit" font-size="14" dy=".8em" y="116.5" x="248.5">凡读本书请先具下列诸信念</text></g></g><g id="minder_node5"><g id="node_expander3" style="cursor: pointer;" display="none"><path id="kity_path_92" fill="white" stroke="gray" d="M268.5,182.5A6,6,0,1,1,256.5,182.5A6,6,0,1,1,268.5,182.5"></path><path id="kity_path_93" fill="none" stroke="gray"></path></g><path id="node_outline4" fill="none" stroke="none" d="M273.5,171.5h814a5,5,0,0,1,5,5v12a5,5,0,0,1,-5,5h-814a5,5,0,0,1,-5,-5v-12a5,5,0,0,1,5,-5z"></path><g id="node_text4" fill="black"><text id="kity_text_57" text-rendering="inherit" font-size="12" dy=".8em" y="176.5" x="278.5">当信任何一国之国民，尤其是自称知识在水平线以上之国民，对其本国已往历史，应该略有所知。否则最多只算一有知识的人，不能算一有知识的国民。</text></g></g><g id="minder_node6"><g id="node_expander4" style="cursor: pointer;" display="none"><path id="kity_path_95" fill="white" stroke="gray" d="M268.5,234.5A6,6,0,1,1,256.5,234.5A6,6,0,1,1,268.5,234.5"></path><path id="kity_path_96" fill="none" stroke="gray"></path></g><path id="node_outline5" fill="none" stroke="none" d="M273.5,223.5h190a5,5,0,0,1,5,5v12a5,5,0,0,1,-5,5h-190a5,5,0,0,1,-5,-5v-12a5,5,0,0,1,5,-5z"></path><g id="node_text5" fill="black"><text id="kity_text_59" text-rendering="inherit" font-size="12" dy=".8em" y="228.5" x="278.5">对其本国已往历史之温情与敬意。</text></g></g><g id="minder_node7"><g id="node_expander11" style="cursor: pointer;"><path id="kity_path_116" fill="white" stroke="gray" d="M1172.5,103.5A6,6,0,1,1,1160.5,103.5A6,6,0,1,1,1172.5,103.5"></path><path id="kity_path_117" fill="none" stroke="gray" d="M1162,103.5L1171,103.5"></path></g><path id="node_outline12" fill="rgb(238, 243, 246)" stroke="rgb(115, 161, 191)" d="M1135.5,110.5h62a3,3,0,0,1,3,3v20a3,3,0,0,1,-3,3h-62a3,3,0,0,1,-3,-3v-20a3,3,0,0,1,3,-3z" stroke-width="1"></path><g id="node_text12" fill="black"><text id="kity_text_73" text-rendering="inherit" font-size="14" dy=".8em" y="116.5" x="1152.5">引论</text></g></g><g id="minder_node8"><g id="node_expander10" style="cursor: pointer;"><path id="kity_path_113" fill="white" stroke="gray" d="M1172.5,182.5A6,6,0,1,1,1160.5,182.5A6,6,0,1,1,1172.5,182.5"></path><path id="kity_path_114" fill="none" stroke="gray" d="M1162,182.5L1171,182.5"></path></g><path id="node_outline11" fill="none" stroke="none" d="M1177.5,171.5h82a5,5,0,0,1,5,5v12a5,5,0,0,1,-5,5h-82a5,5,0,0,1,-5,-5v-12a5,5,0,0,1,5,-5z"></path><g id="node_text11" fill="black"><text id="kity_text_71" text-rendering="inherit" font-size="12" dy=".8em" y="176.5" x="1182.5">三种史书体裁</text></g></g><g id="minder_node9"><g id="node_expander6" style="cursor: pointer;" display="none"><path id="kity_path_101" fill="white" stroke="gray" d="M1212.5,234.5A6,6,0,1,1,1200.5,234.5A6,6,0,1,1,1212.5,234.5"></path><path id="kity_path_102" fill="none" stroke="gray"></path></g><path id="node_outline7" fill="none" stroke="none" d="M1217.5,223.5h197a5,5,0,0,1,5,5v12a5,5,0,0,1,-5,5h-197a5,5,0,0,1,-5,-5v-12a5,5,0,0,1,5,-5z"></path><g id="node_text7" fill="black"><text id="kity_text_63" text-rendering="inherit" font-size="12" dy=".8em" y="228.5" x="1222.5">编年体，春秋，资治通鉴 宋-司马光</text></g></g><g id="minder_node10"><g id="node_expander7" style="cursor: pointer;" display="none"><path id="kity_path_104" fill="white" stroke="gray" d="M1212.5,286.5A6,6,0,1,1,1200.5,286.5A6,6,0,1,1,1212.5,286.5"></path><path id="kity_path_105" fill="none" stroke="gray"></path></g><path id="node_outline8" fill="none" stroke="none" d="M1217.5,275.5h130a5,5,0,0,1,5,5v12a5,5,0,0,1,-5,5h-130a5,5,0,0,1,-5,-5v-12a5,5,0,0,1,5,-5z"></path><g id="node_text8" fill="black"><text id="kity_text_65" text-rendering="inherit" font-size="12" dy=".8em" y="280.5" x="1222.5">纪传体，史记，三国志</text></g></g><g id="minder_node11"><g id="node_expander8" style="cursor: pointer;" display="none"><path id="kity_path_107" fill="white" stroke="gray" d="M1212.5,338.5A6,6,0,1,1,1200.5,338.5A6,6,0,1,1,1212.5,338.5"></path><path id="kity_path_108" fill="none" stroke="gray"></path></g><path id="node_outline9" fill="none" stroke="none" d="M1217.5,327.5h190a5,5,0,0,1,5,5v12a5,5,0,0,1,-5,5h-190a5,5,0,0,1,-5,-5v-12a5,5,0,0,1,5,-5z"></path><g id="node_text9" fill="black"><text id="kity_text_67" text-rendering="inherit" font-size="12" dy=".8em" y="332.5" x="1222.5">纪事本末体，尚书，通鉴纪事本末</text></g></g><g id="minder_node12"><g id="node_expander9" style="cursor: pointer;" display="none"><path id="kity_path_110" fill="white" stroke="gray" d="M1212.5,390.5A6,6,0,1,1,1200.5,390.5A6,6,0,1,1,1212.5,390.5"></path><path id="kity_path_111" fill="none" stroke="gray"></path></g><path id="node_outline10" fill="none" stroke="none" d="M1217.5,379.5h97a5,5,0,0,1,5,5v12a5,5,0,0,1,-5,5h-97a5,5,0,0,1,-5,-5v-12a5,5,0,0,1,5,-5z"></path><g id="node_text10" fill="black"><text id="kity_text_69" text-rendering="inherit" font-size="12" dy=".8em" y="384.5" x="1222.5">其他： 四库全书</text></g></g><g id="minder_node14"><g id="node_expander13" style="cursor: pointer;" display="none"><path id="kity_path_132" fill="white" stroke="gray" d="M60.5,234.5A6,6,0,1,1,48.5,234.5A6,6,0,1,1,60.5,234.5"></path><path id="kity_path_133" fill="none" stroke="gray"></path></g><path id="node_outline14" fill="none" stroke="none" d="M65.5,223.5h94a5,5,0,0,1,5,5v12a5,5,0,0,1,-5,5h-94a5,5,0,0,1,-5,-5v-12a5,5,0,0,1,5,-5z" stroke-width="3"></path><g id="node_text14" fill="black"><text id="kity_text_129" text-rendering="inherit" font-size="12" dy=".8em" y="228.5" x="70.5">秦汉重政治制度</text></g></g><g id="minder_node15"><g id="node_expander14" style="cursor: pointer;" display="none"><path id="kity_path_140" fill="white" stroke="gray" d="M60.5,286.5A6,6,0,1,1,48.5,286.5A6,6,0,1,1,60.5,286.5"></path><path id="kity_path_141" fill="none" stroke="gray"></path></g><path id="node_outline15" fill="none" stroke="none" d="M65.5,275.5h118a5,5,0,0,1,5,5v12a5,5,0,0,1,-5,5h-118a5,5,0,0,1,-5,-5v-12a5,5,0,0,1,5,-5z" stroke-width="3"></path><g id="node_text15" fill="black"><text id="kity_text_137" text-rendering="inherit" font-size="12" dy=".8em" y="280.5" x="70.5">三国魏晋重社会经济</text></g></g></g></g></svg>