<svg id="kity_svg_6" xmlns="http://www.w3.org/2000/svg" xmlns:xlink="http://www.w3.org/1999/xlink" version="1.1" width="1576" height="1045" style="background: rgb(251, 251, 251); visibility: visible;" viewBox="0 0 1576 1045"><defs id="kity_defs_7"><linearGradient id="kity_linearGradient_17" x1="0" y1="0" x2="0" y2="1"><stop id="kity_stop_18" offset="0" stop-color="rgb(255, 255, 255)"></stop><stop id="kity_stop_19" offset="1" stop-color="rgb(204, 204, 204)"></stop></linearGradient><marker id="kity_marker_2" orient="auto" refX="6" refY="0" viewBox="-7 -7 14 14" markerWidth="7" markerHeight="7" markerUnits="userSpaceOnUse"><path id="kity_path_3" fill="rgb(115, 161, 191)" stroke="none" d="M6,0A6,6,0,1,1,-6,0A6,6,0,1,1,6,0"></path></marker></defs><g id="kity_g_8"><g id="minder1" text-rendering="optimize-speed"><g id="minder_connect_group1"><path id="kity_path_31" fill="none" stroke="rgb(115, 191, 118)" stroke-width="1" d="M564.5,60.5v30h-447V110.5"></path><path id="kity_path_33" fill="none" stroke="rgb(115, 191, 118)" stroke-width="1" d="M40.5,136.5V182.5L60.5,182.5"></path><path id="kity_path_35" fill="none" stroke="rgb(115, 191, 118)" stroke-width="1" d="M80.5,193.5V234.5L100.5,234.5"></path><path id="kity_path_37" fill="none" stroke="rgb(115, 191, 118)" stroke-width="1" d="M40.5,136.5V286.5L60.5,286.5"></path><path id="kity_path_39" fill="none" stroke="rgb(115, 191, 118)" stroke-width="1" d="M80.5,297.5V338.5L100.5,338.5"></path><path id="kity_path_41" fill="none" stroke="rgb(115, 191, 118)" stroke-width="1" d="M40.5,136.5V390.5L60.5,390.5"></path><path id="kity_path_43" fill="none" stroke="rgb(115, 191, 118)" stroke-width="1" d="M80.5,401.5V442.5L100.5,442.5"></path><path id="kity_path_45" fill="none" stroke="rgb(115, 191, 118)" stroke-width="1" d="M40.5,136.5V494.5L60.5,494.5"></path><path id="kity_path_47" fill="none" stroke="rgb(115, 191, 118)" stroke-width="1" d="M80.5,505.5V546.5L100.5,546.5"></path><path id="kity_path_49" fill="none" stroke="rgb(115, 191, 118)" stroke-width="1" d="M564.5,60.5v30h6V110.5"></path><path id="kity_path_51" fill="none" stroke="rgb(115, 191, 118)" stroke-width="1" d="M528.5,136.5V182.5L548.5,182.5"></path><path id="kity_path_53" fill="none" stroke="rgb(115, 191, 118)" stroke-width="1" d="M528.5,136.5V234.5L548.5,234.5"></path><path id="kity_path_55" fill="none" stroke="rgb(115, 191, 118)" stroke-width="1" d="M528.5,136.5V286.5L548.5,286.5"></path><path id="kity_path_57" fill="none" stroke="rgb(115, 191, 118)" stroke-width="1" d="M528.5,136.5V338.5L548.5,338.5"></path><path id="kity_path_59" fill="none" stroke="rgb(115, 191, 118)" stroke-width="1" d="M528.5,136.5V390.5L548.5,390.5"></path><path id="kity_path_61" fill="none" stroke="rgb(115, 191, 118)" stroke-width="1" d="M528.5,136.5V910.5L548.5,910.5"></path><path id="kity_path_159" fill="none" stroke="rgb(115, 191, 118)" stroke-width="1" d="M528.5,136.5V442.5L548.5,442.5"></path><path id="kity_path_167" fill="none" stroke="rgb(115, 191, 118)" stroke-width="1" d="M568.5,453.5V494.5L588.5,494.5"></path><path id="kity_path_175" fill="none" stroke="rgb(115, 191, 118)" stroke-width="1" d="M568.5,453.5V546.5L588.5,546.5"></path><path id="kity_path_191" fill="none" stroke="rgb(115, 191, 118)" stroke-width="1" d="M568.5,453.5V598.5L588.5,598.5"></path><path id="kity_path_199" fill="none" stroke="rgb(115, 191, 118)" stroke-width="1" d="M528.5,136.5V650.5L548.5,650.5"></path><path id="kity_path_207" fill="none" stroke="rgb(115, 191, 118)" stroke-width="1" d="M528.5,136.5V702.5L548.5,702.5"></path><path id="kity_path_215" fill="none" stroke="rgb(115, 191, 118)" stroke-width="1" d="M568.5,713.5V754.5L588.5,754.5"></path><path id="kity_path_223" fill="none" stroke="rgb(115, 191, 118)" stroke-width="1" d="M568.5,713.5V806.5L588.5,806.5"></path><path id="kity_path_239" fill="none" stroke="rgb(115, 191, 118)" stroke-width="1" d="M568.5,713.5V858.5L588.5,858.5"></path><path id="kity_path_255" fill="none" stroke="rgb(115, 191, 118)" stroke-width="1" d="M528.5,136.5V1014.5L548.5,1014.5"></path><path id="kity_path_263" fill="none" stroke="rgb(115, 191, 118)" stroke-width="1" d="M568.5,921.5V962.5L588.5,962.5"></path><path id="kity_path_279" fill="none" stroke="rgb(115, 191, 118)" stroke-width="1" d="M564.5,60.5v30h510V110.5"></path><path id="kity_path_295" fill="none" stroke="rgb(115, 191, 118)" stroke-width="1" d="M1060.5,136.5V182.5L1080.5,182.5"></path><path id="kity_path_311" fill="none" stroke="rgb(115, 191, 118)" stroke-width="1" d="M1060.5,136.5V234.5L1080.5,234.5"></path><path id="kity_path_319" fill="none" stroke="rgb(115, 191, 118)" stroke-width="1" d="M1060.5,136.5V286.5L1080.5,286.5"></path><path id="kity_path_335" fill="none" stroke="rgb(115, 191, 118)" stroke-width="1" d="M1060.5,136.5V338.5L1080.5,338.5"></path><path id="kity_path_343" fill="none" stroke="rgb(115, 191, 118)" stroke-width="1" d="M1100.5,349.5V390.5L1120.5,390.5"></path></g><g id="minder_node1"><path id="node_outline1" fill="rgb(115, 191, 118)" stroke="rgb(115, 191, 118)" d="M505.5,20.5h118a5,5,0,0,1,5,5v30a5,5,0,0,1,-5,5h-118a5,5,0,0,1,-5,-5v-30a5,5,0,0,1,5,-5z" stroke-width="3"></path><g id="node_text1" fill="white"><text id="kity_text_22" text-rendering="inherit" font-size="16" dy=".8em" y="32.5" x="524.5">人生护城河</text></g></g><g id="kity_g_12"><path id="kity_path_13" fill="none" stroke="none" d="M524.5,40.5h0v0h0z"></path></g><g id="kity_g_14"><path id="kity_path_15" fill="none" stroke="none" d="M524.5,40.5h0v0h0z"></path><path id="kity_path_16" fill="none" stroke="none"></path></g><g id="minder_node2"><g id="node_expander9" style="cursor: pointer;"><path id="kity_path_135" fill="white" stroke="gray" d="M123.5,103.5A6,6,0,1,1,111.5,103.5A6,6,0,1,1,123.5,103.5"></path><path id="kity_path_136" fill="none" stroke="gray" d="M113,103.5L122,103.5"></path></g><path id="node_outline10" fill="rgb(238, 246, 238)" stroke="rgb(115, 191, 118)" d="M23.5,110.5h188a3,3,0,0,1,3,3v20a3,3,0,0,1,-3,3h-188a3,3,0,0,1,-3,-3v-20a3,3,0,0,1,3,-3z" stroke-width="1"></path><g id="node_text10" fill="black"><text id="kity_text_79" text-rendering="inherit" font-size="14" dy=".8em" y="116.5" x="40.5">如何建立自己的核心优势</text></g></g><g id="minder_node3"><g id="node_expander2" style="cursor: pointer;"><path id="kity_path_114" fill="white" stroke="gray" d="M60.5,182.5A6,6,0,1,1,48.5,182.5A6,6,0,1,1,60.5,182.5"></path><path id="kity_path_115" fill="none" stroke="gray" d="M50,182.5L59,182.5"></path></g><path id="node_outline3" fill="none" stroke="none" d="M65.5,171.5h58a5,5,0,0,1,5,5v12a5,5,0,0,1,-5,5h-58a5,5,0,0,1,-5,-5v-12a5,5,0,0,1,5,-5z"></path><g id="node_text3" fill="black"><text id="kity_text_65" text-rendering="inherit" font-size="12" dy=".8em" y="176.5" x="70.5">以始为终</text></g></g><g id="minder_node4"><g id="node_expander1" style="cursor: pointer;" display="none"><path id="kity_path_111" fill="white" stroke="gray" d="M100.5,234.5A6,6,0,1,1,88.5,234.5A6,6,0,1,1,100.5,234.5"></path><path id="kity_path_112" fill="none" stroke="gray"></path></g><path id="node_outline2" fill="none" stroke="none" d="M105.5,223.5h358a5,5,0,0,1,5,5v12a5,5,0,0,1,-5,5h-358a5,5,0,0,1,-5,-5v-12a5,5,0,0,1,5,-5z"></path><g id="node_text2" fill="black"><text id="kity_text_63" text-rendering="inherit" font-size="12" dy=".8em" y="228.5" x="110.5">有终局思考能力，学着站在未来看现在，找到对的事并做一辈子。</text></g></g><g id="minder_node5"><g id="node_expander4" style="cursor: pointer;"><path id="kity_path_120" fill="white" stroke="gray" d="M60.5,286.5A6,6,0,1,1,48.5,286.5A6,6,0,1,1,60.5,286.5"></path><path id="kity_path_121" fill="none" stroke="gray" d="M50,286.5L59,286.5"></path></g><path id="node_outline5" fill="none" stroke="none" d="M65.5,275.5h58a5,5,0,0,1,5,5v12a5,5,0,0,1,-5,5h-58a5,5,0,0,1,-5,-5v-12a5,5,0,0,1,5,-5z"></path><g id="node_text5" fill="black"><text id="kity_text_69" text-rendering="inherit" font-size="12" dy=".8em" y="280.5" x="70.5">思行合一</text></g></g><g id="minder_node6"><g id="node_expander3" style="cursor: pointer;" display="none"><path id="kity_path_117" fill="white" stroke="gray" d="M100.5,338.5A6,6,0,1,1,88.5,338.5A6,6,0,1,1,100.5,338.5"></path><path id="kity_path_118" fill="none" stroke="gray"></path></g><path id="node_outline4" fill="none" stroke="none" d="M105.5,327.5h68a5,5,0,0,1,5,5v12a5,5,0,0,1,-5,5h-68a5,5,0,0,1,-5,-5v-12a5,5,0,0,1,5,-5z"></path><g id="node_text4" fill="black"><text id="kity_text_67" text-rendering="inherit" font-size="12" dy=".8em" y="332.5" x="110.5">学习+ 实践</text></g></g><g id="minder_node7"><g id="node_expander6" style="cursor: pointer;"><path id="kity_path_126" fill="white" stroke="gray" d="M60.5,390.5A6,6,0,1,1,48.5,390.5A6,6,0,1,1,60.5,390.5"></path><path id="kity_path_127" fill="none" stroke="gray" d="M50,390.5L59,390.5"></path></g><path id="node_outline7" fill="none" stroke="none" d="M65.5,379.5h58a5,5,0,0,1,5,5v12a5,5,0,0,1,-5,5h-58a5,5,0,0,1,-5,-5v-12a5,5,0,0,1,5,-5z"></path><g id="node_text7" fill="black"><text id="kity_text_73" text-rendering="inherit" font-size="12" dy=".8em" y="384.5" x="70.5">高度透明</text></g></g><g id="minder_node8"><g id="node_expander5" style="cursor: pointer;" display="none"><path id="kity_path_123" fill="white" stroke="gray" d="M100.5,442.5A6,6,0,1,1,88.5,442.5A6,6,0,1,1,100.5,442.5"></path><path id="kity_path_124" fill="none" stroke="gray"></path></g><path id="node_outline6" fill="none" stroke="none" d="M105.5,431.5h238a5,5,0,0,1,5,5v12a5,5,0,0,1,-5,5h-238a5,5,0,0,1,-5,-5v-12a5,5,0,0,1,5,-5z" stroke-width="3"></path><g id="node_text6" fill="black"><text id="kity_text_71" text-rendering="inherit" font-size="12" dy=".8em" y="436.5" x="110.5">勇于剖析自己的不足，直面缺点，扩大优势</text></g></g><g id="minder_node9"><g id="node_expander8" style="cursor: pointer;"><path id="kity_path_132" fill="white" stroke="gray" d="M60.5,494.5A6,6,0,1,1,48.5,494.5A6,6,0,1,1,60.5,494.5"></path><path id="kity_path_133" fill="none" stroke="gray" d="M50,494.5L59,494.5"></path></g><path id="node_outline9" fill="none" stroke="none" d="M65.5,483.5h58a5,5,0,0,1,5,5v12a5,5,0,0,1,-5,5h-58a5,5,0,0,1,-5,-5v-12a5,5,0,0,1,5,-5z"></path><g id="node_text9" fill="black"><text id="kity_text_77" text-rendering="inherit" font-size="12" dy=".8em" y="488.5" x="70.5">多点支撑</text></g></g><g id="minder_node10"><g id="node_expander7" style="cursor: pointer;" display="none"><path id="kity_path_129" fill="white" stroke="gray" d="M100.5,546.5A6,6,0,1,1,88.5,546.5A6,6,0,1,1,100.5,546.5"></path><path id="kity_path_130" fill="none" stroke="gray"></path></g><path id="node_outline8" fill="none" stroke="none" d="M105.5,535.5h262a5,5,0,0,1,5,5v12a5,5,0,0,1,-5,5h-262a5,5,0,0,1,-5,-5v-12a5,5,0,0,1,5,-5z"></path><g id="node_text8" fill="black"><text id="kity_text_75" text-rendering="inherit" font-size="12" dy=".8em" y="540.5" x="110.5">在追求财务自由和精神自由的路上寻找其他支点</text></g></g><g id="minder_node11"><g id="node_expander16" style="cursor: pointer;"><path id="kity_path_156" fill="white" stroke="gray" d="M576.5,103.5A6,6,0,1,1,564.5,103.5A6,6,0,1,1,576.5,103.5"></path><path id="kity_path_157" fill="none" stroke="gray" d="M566,103.5L575,103.5"></path></g><path id="node_outline17" fill="rgb(238, 246, 238)" stroke="rgb(115, 191, 118)" d="M511.5,110.5h118a3,3,0,0,1,3,3v20a3,3,0,0,1,-3,3h-118a3,3,0,0,1,-3,-3v-20a3,3,0,0,1,3,-3z" stroke-width="1"></path><g id="node_text17" fill="black"><text id="kity_text_93" text-rendering="inherit" font-size="14" dy=".8em" y="116.5" x="528.5">人生有限公司</text></g></g><g id="minder_node12"><g id="node_expander10" style="cursor: pointer;" display="none"><path id="kity_path_138" fill="white" stroke="gray" d="M548.5,182.5A6,6,0,1,1,536.5,182.5A6,6,0,1,1,548.5,182.5"></path><path id="kity_path_139" fill="none" stroke="gray"></path></g><path id="node_outline11" fill="none" stroke="none" d="M553.5,171.5h442a5,5,0,0,1,5,5v12a5,5,0,0,1,-5,5h-442a5,5,0,0,1,-5,-5v-12a5,5,0,0,1,5,-5z"></path><g id="node_text11" fill="black"><text id="kity_text_81" text-rendering="inherit" font-size="12" dy=".8em" y="176.5" x="558.5">大部分人辛苦一辈子，依然与财务自由无缘，原因在于选择了错误的人生商业模式</text></g></g><g id="minder_node13"><g id="node_expander11" style="cursor: pointer;" display="none"><path id="kity_path_141" fill="white" stroke="gray" d="M548.5,234.5A6,6,0,1,1,536.5,234.5A6,6,0,1,1,548.5,234.5"></path><path id="kity_path_142" fill="none" stroke="gray"></path></g><path id="node_outline12" fill="none" stroke="none" d="M553.5,223.5h406a5,5,0,0,1,5,5v12a5,5,0,0,1,-5,5h-406a5,5,0,0,1,-5,-5v-12a5,5,0,0,1,5,-5z"></path><g id="node_text12" fill="black"><text id="kity_text_83" text-rendering="inherit" font-size="12" dy=".8em" y="228.5" x="558.5">人生如同一家公司，个人需要有愿景，战略，价值观，商业模式，竞争策略</text></g></g><g id="minder_node14"><g id="node_expander12" style="cursor: pointer;" display="none"><path id="kity_path_144" fill="white" stroke="gray" d="M548.5,286.5A6,6,0,1,1,536.5,286.5A6,6,0,1,1,548.5,286.5"></path><path id="kity_path_145" fill="none" stroke="gray"></path></g><path id="node_outline13" fill="none" stroke="none" d="M553.5,275.5h178a5,5,0,0,1,5,5v12a5,5,0,0,1,-5,5h-178a5,5,0,0,1,-5,-5v-12a5,5,0,0,1,5,-5z"></path><g id="node_text13" fill="black"><text id="kity_text_85" text-rendering="inherit" font-size="12" dy=".8em" y="280.5" x="558.5">人生终局：影响力，财富，健康</text></g></g><g id="minder_node15"><g id="node_expander13" style="cursor: pointer;" display="none"><path id="kity_path_147" fill="white" stroke="gray" d="M548.5,338.5A6,6,0,1,1,536.5,338.5A6,6,0,1,1,548.5,338.5"></path><path id="kity_path_148" fill="none" stroke="gray"></path></g><path id="node_outline14" fill="none" stroke="none" d="M553.5,327.5h119a5,5,0,0,1,5,5v12a5,5,0,0,1,-5,5h-119a5,5,0,0,1,-5,-5v-12a5,5,0,0,1,5,-5z" stroke-width="3"></path><g id="node_text14" fill="black"><text id="kity_text_87" text-rendering="inherit" font-size="12" dy=".8em" y="332.5" x="558.5">商业模式 = 挣钱模式</text></g></g><g id="minder_node16"><g id="node_expander14" style="cursor: pointer;" display="none"><path id="kity_path_150" fill="white" stroke="gray" d="M548.5,390.5A6,6,0,1,1,536.5,390.5A6,6,0,1,1,548.5,390.5"></path><path id="kity_path_151" fill="none" stroke="gray"></path></g><path id="node_outline15" fill="none" stroke="none" d="M553.5,379.5h286a5,5,0,0,1,5,5v12a5,5,0,0,1,-5,5h-286a5,5,0,0,1,-5,-5v-12a5,5,0,0,1,5,-5z" stroke-width="3"></path><g id="node_text15" fill="black"><text id="kity_text_89" text-rendering="inherit" font-size="12" dy=".8em" y="384.5" x="558.5">大多数人的商业模式是被雇佣，出卖时间和出卖技能</text></g></g><g id="minder_node17"><g id="node_expander15" style="cursor: pointer;"><path id="kity_path_153" fill="white" stroke="gray" d="M548.5,910.5A6,6,0,1,1,536.5,910.5A6,6,0,1,1,548.5,910.5"></path><path id="kity_path_154" fill="none" stroke="gray" d="M538,910.5L547,910.5"></path></g><path id="node_outline16" fill="none" stroke="none" d="M553.5,899.5h82a5,5,0,0,1,5,5v12a5,5,0,0,1,-5,5h-82a5,5,0,0,1,-5,-5v-12a5,5,0,0,1,5,-5z" stroke-width="3"></path><g id="node_text16" fill="black"><text id="kity_text_91" text-rendering="inherit" font-size="12" dy=".8em" y="904.5" x="558.5">边际成本递减</text></g></g><g id="minder_node18"><g id="node_expander17" style="cursor: pointer;"><path id="kity_path_164" fill="white" stroke="gray" d="M548.5,442.5A6,6,0,1,1,536.5,442.5A6,6,0,1,1,548.5,442.5"></path><path id="kity_path_165" fill="none" stroke="gray" d="M538,442.5L547,442.5"></path></g><path id="node_outline18" fill="none" stroke="none" d="M553.5,431.5h94a5,5,0,0,1,5,5v12a5,5,0,0,1,-5,5h-94a5,5,0,0,1,-5,-5v-12a5,5,0,0,1,5,-5z" stroke-width="3"></path><g id="node_text18" fill="black"><text id="kity_text_161" text-rendering="inherit" font-size="12" dy=".8em" y="436.5" x="558.5">人生的商业模式</text></g></g><g id="minder_node19"><g id="node_expander18" style="cursor: pointer;" display="none"><path id="kity_path_172" fill="white" stroke="gray" d="M588.5,494.5A6,6,0,1,1,576.5,494.5A6,6,0,1,1,588.5,494.5"></path><path id="kity_path_173" fill="none" stroke="gray"></path></g><path id="node_outline19" fill="none" stroke="none" d="M593.5,483.5h274a5,5,0,0,1,5,5v12a5,5,0,0,1,-5,5h-274a5,5,0,0,1,-5,-5v-12a5,5,0,0,1,5,-5z" stroke-width="3"></path><g id="node_text19" fill="black"><text id="kity_text_169" text-rendering="inherit" font-size="12" dy=".8em" y="488.5" x="598.5">无杠杆卖时间，即单位时间只能卖一次。例如上班</text></g></g><g id="minder_node20"><g id="node_expander19" style="cursor: pointer;" display="none"><path id="kity_path_180" fill="white" stroke="gray" d="M588.5,546.5A6,6,0,1,1,576.5,546.5A6,6,0,1,1,588.5,546.5"></path><path id="kity_path_181" fill="none" stroke="gray" d="M578,546.5L587,546.5"></path></g><path id="node_outline20" fill="none" stroke="none" d="M593.5,535.5h298a5,5,0,0,1,5,5v12a5,5,0,0,1,-5,5h-298a5,5,0,0,1,-5,-5v-12a5,5,0,0,1,5,-5z" stroke-width="3"></path><g id="node_text20" fill="black"><text id="kity_text_177" text-rendering="inherit" font-size="12" dy=".8em" y="540.5" x="598.5">有杠杆卖时间，即单位时间可以卖多次。例如卖课老师</text></g></g><g id="minder_node22"><g id="node_expander21" style="cursor: pointer;" display="none"><path id="kity_path_196" fill="white" stroke="gray" d="M588.5,598.5A6,6,0,1,1,576.5,598.5A6,6,0,1,1,588.5,598.5"></path><path id="kity_path_197" fill="none" stroke="gray"></path></g><path id="node_outline22" fill="none" stroke="none" d="M593.5,587.5h250a5,5,0,0,1,5,5v12a5,5,0,0,1,-5,5h-250a5,5,0,0,1,-5,-5v-12a5,5,0,0,1,5,-5z" stroke-width="3"></path><g id="node_text22" fill="black"><text id="kity_text_193" text-rendering="inherit" font-size="12" dy=".8em" y="592.5" x="598.5">花钱买“厉害的人”的时间，例如价值投资者</text></g></g><g id="minder_node23"><g id="node_expander22" style="cursor: pointer;" display="none"><path id="kity_path_204" fill="white" stroke="gray" d="M548.5,650.5A6,6,0,1,1,536.5,650.5A6,6,0,1,1,548.5,650.5"></path><path id="kity_path_205" fill="none" stroke="gray"></path></g><path id="node_outline23" fill="none" stroke="none" d="M553.5,639.5h226a5,5,0,0,1,5,5v12a5,5,0,0,1,-5,5h-226a5,5,0,0,1,-5,-5v-12a5,5,0,0,1,5,-5z" stroke-width="3"></path><g id="node_text23" fill="black"><text id="kity_text_201" text-rendering="inherit" font-size="12" dy=".8em" y="644.5" x="558.5">收入项只有一份工资，但是支出项数不清</text></g></g><g id="minder_node24"><g id="node_expander23" style="cursor: pointer;"><path id="kity_path_212" fill="white" stroke="gray" d="M548.5,702.5A6,6,0,1,1,536.5,702.5A6,6,0,1,1,548.5,702.5"></path><path id="kity_path_213" fill="none" stroke="gray" d="M538,702.5L547,702.5"></path></g><path id="node_outline24" fill="none" stroke="none" d="M553.5,691.5h226a5,5,0,0,1,5,5v12a5,5,0,0,1,-5,5h-226a5,5,0,0,1,-5,-5v-12a5,5,0,0,1,5,-5z" stroke-width="3"></path><g id="node_text24" fill="black"><text id="kity_text_209" text-rendering="inherit" font-size="12" dy=".8em" y="696.5" x="558.5">错峰出行背后的实质是避免不必要的竞争</text></g></g><g id="minder_node25"><g id="node_expander24" style="cursor: pointer;" display="none"><path id="kity_path_220" fill="white" stroke="gray" d="M588.5,754.5A6,6,0,1,1,576.5,754.5A6,6,0,1,1,588.5,754.5"></path><path id="kity_path_221" fill="none" stroke="gray"></path></g><path id="node_outline25" fill="none" stroke="none" d="M593.5,743.5h118a5,5,0,0,1,5,5v12a5,5,0,0,1,-5,5h-118a5,5,0,0,1,-5,-5v-12a5,5,0,0,1,5,-5z" stroke-width="3"></path><g id="node_text25" fill="black"><text id="kity_text_217" text-rendering="inherit" font-size="12" dy=".8em" y="748.5" x="598.5">去有门槛的领域中去</text></g></g><g id="minder_node26"><g id="node_expander25" style="cursor: pointer;" display="none"><path id="kity_path_228" fill="white" stroke="gray" d="M588.5,806.5A6,6,0,1,1,576.5,806.5A6,6,0,1,1,588.5,806.5"></path><path id="kity_path_229" fill="none" stroke="gray" d="M578,806.5L587,806.5"></path></g><path id="node_outline26" fill="none" stroke="none" d="M593.5,795.5h322a5,5,0,0,1,5,5v12a5,5,0,0,1,-5,5h-322a5,5,0,0,1,-5,-5v-12a5,5,0,0,1,5,-5z" stroke-width="3"></path><g id="node_text26" fill="black"><text id="kity_text_225" text-rendering="inherit" font-size="12" dy=".8em" y="800.5" x="598.5">有什么事情是你可以做一辈子也不烦，同时还能有回报的？</text></g></g><g id="minder_node28"><g id="node_expander27" style="cursor: pointer;" display="none"><path id="kity_path_244" fill="white" stroke="gray" d="M588.5,858.5A6,6,0,1,1,576.5,858.5A6,6,0,1,1,588.5,858.5"></path><path id="kity_path_245" fill="none" stroke="gray"></path></g><path id="node_outline28" fill="none" stroke="none" d="M593.5,847.5h250a5,5,0,0,1,5,5v12a5,5,0,0,1,-5,5h-250a5,5,0,0,1,-5,-5v-12a5,5,0,0,1,5,-5z" stroke-width="3"></path><g id="node_text28" fill="black"><text id="kity_text_241" text-rendering="inherit" font-size="12" dy=".8em" y="852.5" x="598.5">供大于求，你的工资贬值。供不应求，你升值</text></g></g><g id="minder_node30"><g id="node_expander29" style="cursor: pointer;" display="none"><path id="kity_path_260" fill="white" stroke="gray" d="M548.5,1014.5A6,6,0,1,1,536.5,1014.5A6,6,0,1,1,548.5,1014.5"></path><path id="kity_path_261" fill="none" stroke="gray"></path></g><path id="node_outline30" fill="none" stroke="none" d="M553.5,1003.5h365a5,5,0,0,1,5,5v12a5,5,0,0,1,-5,5h-365a5,5,0,0,1,-5,-5v-12a5,5,0,0,1,5,-5z" stroke-width="3"></path><g id="node_text30" fill="black"><text id="kity_text_257" text-rendering="inherit" font-size="12" dy=".8em" y="1008.5" x="558.5">当你能想清楚5年的恐惧和希望，你就不会焦虑于今年的恐惧和希望</text></g></g><g id="minder_node31"><g id="node_expander30" style="cursor: pointer;" display="none"><path id="kity_path_268" fill="white" stroke="gray" d="M588.5,962.5A6,6,0,1,1,576.5,962.5A6,6,0,1,1,588.5,962.5"></path><path id="kity_path_269" fill="none" stroke="gray"></path></g><path id="node_outline31" fill="none" stroke="none" d="M593.5,951.5h154a5,5,0,0,1,5,5v12a5,5,0,0,1,-5,5h-154a5,5,0,0,1,-5,-5v-12a5,5,0,0,1,5,-5z" stroke-width="3"></path><g id="node_text31" fill="black"><text id="kity_text_265" text-rendering="inherit" font-size="12" dy=".8em" y="956.5" x="598.5">知识付费，一份时间卖多次</text></g></g><g id="minder_node33"><g id="node_expander32" style="cursor: pointer;"><path id="kity_path_284" fill="white" stroke="gray" d="M1080.5,103.5A6,6,0,1,1,1068.5,103.5A6,6,0,1,1,1080.5,103.5"></path><path id="kity_path_285" fill="none" stroke="gray" d="M1070,103.5L1079,103.5"></path></g><path id="node_outline33" fill="rgb(238, 246, 238)" stroke="rgb(115, 191, 118)" d="M1043.5,110.5h62a3,3,0,0,1,3,3v20a3,3,0,0,1,-3,3h-62a3,3,0,0,1,-3,-3v-20a3,3,0,0,1,3,-3z" stroke-width="1"></path><g id="node_text33" fill="black"><text id="kity_text_281" text-rendering="inherit" font-size="14" dy=".8em" y="116.5" x="1060.5">自我</text></g></g><g id="minder_node35"><g id="node_expander34" style="cursor: pointer;" display="none"><path id="kity_path_300" fill="white" stroke="gray" d="M1080.5,182.5A6,6,0,1,1,1068.5,182.5A6,6,0,1,1,1080.5,182.5"></path><path id="kity_path_301" fill="none" stroke="gray"></path></g><path id="node_outline35" fill="none" stroke="none" d="M1085.5,171.5h466a5,5,0,0,1,5,5v12a5,5,0,0,1,-5,5h-466a5,5,0,0,1,-5,-5v-12a5,5,0,0,1,5,-5z" stroke-width="3"></path><g id="node_text35" fill="black"><text id="kity_text_297" text-rendering="inherit" font-size="12" dy=".8em" y="176.5" x="1090.5">财务自由的本质就是拥有足够的自由时间，即不再需要通过出卖自己的时间去获得收入</text></g></g><g id="minder_node37"><g id="node_expander36" style="cursor: pointer;" display="none"><path id="kity_path_316" fill="white" stroke="gray" d="M1080.5,234.5A6,6,0,1,1,1068.5,234.5A6,6,0,1,1,1080.5,234.5"></path><path id="kity_path_317" fill="none" stroke="gray"></path></g><path id="node_outline37" fill="none" stroke="none" d="M1085.5,223.5h310a5,5,0,0,1,5,5v12a5,5,0,0,1,-5,5h-310a5,5,0,0,1,-5,-5v-12a5,5,0,0,1,5,-5z" stroke-width="3"></path><g id="node_text37" fill="black"><text id="kity_text_313" text-rendering="inherit" font-size="12" dy=".8em" y="228.5" x="1090.5">复盘，无法收敛的一天注定是混乱无章、低效疲劳的一天 </text></g></g><g id="minder_node38"><g id="node_expander37" style="cursor: pointer;" display="none"><path id="kity_path_324" fill="white" stroke="gray" d="M1080.5,286.5A6,6,0,1,1,1068.5,286.5A6,6,0,1,1,1080.5,286.5"></path><path id="kity_path_325" fill="none" stroke="gray" d="M1070,286.5L1079,286.5"></path></g><path id="node_outline38" fill="none" stroke="none" d="M1085.5,275.5h166a5,5,0,0,1,5,5v12a5,5,0,0,1,-5,5h-166a5,5,0,0,1,-5,-5v-12a5,5,0,0,1,5,-5z" stroke-width="3"></path><g id="node_text38" fill="black"><text id="kity_text_321" text-rendering="inherit" font-size="12" dy=".8em" y="280.5" x="1090.5">没有激励机制的学习都会落空</text></g></g><g id="minder_node40"><g id="node_expander39" style="cursor: pointer;"><path id="kity_path_340" fill="white" stroke="gray" d="M1080.5,338.5A6,6,0,1,1,1068.5,338.5A6,6,0,1,1,1080.5,338.5"></path><path id="kity_path_341" fill="none" stroke="gray" d="M1070,338.5L1079,338.5"></path></g><path id="node_outline40" fill="none" stroke="none" d="M1085.5,327.5h94a5,5,0,0,1,5,5v12a5,5,0,0,1,-5,5h-94a5,5,0,0,1,-5,-5v-12a5,5,0,0,1,5,-5z" stroke-width="3"></path><g id="node_text40" fill="black"><text id="kity_text_337" text-rendering="inherit" font-size="12" dy=".8em" y="332.5" x="1090.5">高频远胜于大量</text></g></g><g id="minder_node41"><g id="node_expander40" style="cursor: pointer;" display="none"><path id="kity_path_348" fill="white" stroke="gray" d="M1120.5,390.5A6,6,0,1,1,1108.5,390.5A6,6,0,1,1,1120.5,390.5"></path><path id="kity_path_349" fill="none" stroke="gray"></path></g><path id="node_outline41" fill="none" stroke="none" d="M1125.5,379.5h294a5,5,0,0,1,5,5v12a5,5,0,0,1,-5,5h-294a5,5,0,0,1,-5,-5v-12a5,5,0,0,1,5,-5z" stroke-width="3"></path><g id="node_text41" fill="black"><text id="kity_text_345" text-rendering="inherit" font-size="12" dy=".8em" y="384.5" x="1130.5">多次小睡”。最长不超过10分钟，最短只需要5分钟。</text></g></g></g></g></svg>