<svg version="1.1" xmlns="http://www.w3.org/2000/svg" viewBox="0 0 7297.887875535432 882.6246938426555" width="21893.663626606296" height="2647.874081527966">
  <!-- svg-source:excalidraw -->
  
  <defs>
    <style>
      @font-face {
        font-family: "Virgil";
        src: url("https://excalidraw.com/Virgil.woff2");
      }
      @font-face {
        font-family: "Cascadia";
        src: url("https://excalidraw.com/Cascadia.woff2");
      }
    </style>
  </defs>
  <g stroke-linecap="round"><g transform="translate(90.44101876923287 72.17540368227105) rotate(0 3425.096839893539 -1.249398690833658)"><path d="M0.64 1.2 C1142.5 0.53, 5709.23 -3.09, 6850.68 -3.7 M-0.49 0.78 C1141.3 0.27, 5707.94 -1.41, 6849.98 -2.24" stroke="#000000" stroke-width="4" fill="none"></path></g></g><g stroke-linecap="round"><g transform="translate(2352.0148067339255 373.86950469154397) rotate(0 1796.2876348650948 -5.070962115914483)"><path d="M0.03 0.82 C598.79 -0.88, 2993 -9.1, 3591.63 -10.96 M-1.41 0.2 C597.82 -1.28, 2995.29 -8.19, 3593.99 -9.71" stroke="#000000" stroke-width="4" fill="none"></path></g></g><g stroke-linecap="round" transform="translate(90.91058863763942 84.92149743227105) rotate(0 65.5 19.5)"><path d="M-0.36 0 C46.28 2.15, 91.87 -1.44, 132.9 1.55 M-0.53 0.26 C28.3 1.35, 56.38 1.36, 131.66 0.16 M130.92 -1.91 C128.82 11.94, 129.51 25.66, 130.97 40.26 M131.81 -0.22 C130.83 13.21, 130.1 25.61, 130.97 38.2 M131.15 39.35 C84.7 39.96, 38.92 37.09, -1.58 40.8 M131.38 38.87 C90.83 40.17, 50.12 40.6, -0.88 39.51 M1.27 39.02 C-0.39 24.29, 1.52 10.7, -1.53 1.77 M0.3 38.43 C-0.45 29.15, 0.05 17.57, 0.02 -0.64" stroke="#000000" stroke-width="1" fill="none"></path></g><g transform="translate(95.91058863763942 90.92149743227105) rotate(0 60.5 13.5)"><text x="60.5" y="21" font-family="Chinese, Segoe UI Emoji" font-size="20px" fill="#000000" text-anchor="middle" style="white-space: pre;" direction="ltr">亚当夏娃</text></g><g stroke-linecap="round" transform="translate(260.95186365967334 84.73262219246124) rotate(0 46.5 34.5)"><path d="M0.91 -0.99 C29.6 -0.42, 62.96 0.46, 94.56 -1.49 M-0.13 0.64 C35.61 -0.82, 70.24 0.58, 93.09 0.19 M94.67 1.69 C92.27 27.85, 91.83 52.35, 93.66 70.96 M92.42 -0.59 C92.02 27.51, 91.84 53.44, 92.13 68.47 M92.71 67.13 C68.03 69.08, 42.81 68.02, -0.21 70.76 M93.31 69.59 C72.26 68.02, 50.07 68.31, -0.77 68.43 M0.92 70.19 C-0.41 46.26, -1.76 23.03, -0.05 0.06 M-0.34 69.09 C0.4 47.51, 0.45 25.4, -0.98 -0.71" stroke="#000000" stroke-width="1" fill="none"></path></g><g transform="translate(265.95186365967334 92.23262219246124) rotate(0 41.5 27)"><text x="41.5" y="21" font-family="Chinese, Segoe UI Emoji" font-size="20px" fill="#000000" text-anchor="middle" style="white-space: pre;" direction="ltr">第9代：</text><text x="41.5" y="48" font-family="Chinese, Segoe UI Emoji" font-size="20px" fill="#000000" text-anchor="middle" style="white-space: pre;" direction="ltr">诺亚</text></g><g stroke-linecap="round" transform="translate(404.2855886376394 81.04063805727105) rotate(0 50 57)"><path d="M-0.28 1.87 C29.83 1.39, 62.85 1.23, 101.62 0.07 M0.73 0.71 C19.83 0.38, 41.63 -0.71, 99.79 0.58 M101.29 -0.11 C101.77 36.75, 100.23 69.25, 99.78 113.24 M99.82 -0.53 C99.42 31.23, 99.68 64.41, 99.74 113.76 M98.21 114.08 C66.05 112.3, 32.53 112.45, -1.84 113.68 M99.59 114.91 C61.06 113.34, 23.6 112.6, 0.47 113.2 M0.43 114.86 C-0.62 77, 0.12 36.93, -1.97 0.86 M-0.91 113.2 C1.21 81.74, 1.19 48.57, 0.41 0.49" stroke="#000000" stroke-width="1" fill="none"></path></g><g transform="translate(409.2855886376394 111.04063805727105) rotate(0 45 27)"><text x="45" y="21" font-family="Chinese, Segoe UI Emoji" font-size="20px" fill="#000000" text-anchor="middle" style="white-space: pre;" direction="ltr">第11代：</text><text x="45" y="48" font-family="Chinese, Segoe UI Emoji" font-size="20px" fill="#000000" text-anchor="middle" style="white-space: pre;" direction="ltr">亚伯拉罕</text></g><g stroke-linecap="round" transform="translate(618.712659504383 86.94363047925526) rotate(0 64.5 59)"><path d="M0 0.04 C34.19 -0.38, 63.66 -0.08, 130.97 1.36 M0.19 -0.16 C45.24 0.43, 89.32 -0.29, 128.12 -0.53 M129.06 1.51 C130.64 22.5, 128.71 48.69, 127.5 118.91 M129.38 -0.24 C129.22 35.71, 129.73 69.5, 128.94 117.18 M130.17 117.54 C80.38 114.98, 29.57 116.7, 0.8 119.12 M129.41 117.43 C90.5 117.59, 52.63 118.27, 0.57 118.9 M0.44 117.25 C-0.89 82.97, -0.01 52.32, 0.08 1.41 M-0.95 117.38 C1.03 79.5, 1.95 42.58, -0.19 -0.04" stroke="#000000" stroke-width="1" fill="none"></path></g><g transform="translate(623.712659504383 91.94363047925526) rotate(0 59.5 54)"><text x="59.5" y="21" font-family="Chinese, Segoe UI Emoji" font-size="20px" fill="#000000" text-anchor="middle" style="white-space: pre;" direction="ltr">儿子：以撒</text><text x="59.5" y="48" font-family="Chinese, Segoe UI Emoji" font-size="20px" fill="#000000" text-anchor="middle" style="white-space: pre;" direction="ltr">。</text><text x="59.5" y="75" font-family="Chinese, Segoe UI Emoji" font-size="20px" fill="#000000" text-anchor="middle" style="white-space: pre;" direction="ltr">孙子：雅各</text><text x="59.5" y="102" font-family="Chinese, Segoe UI Emoji" font-size="20px" fill="#000000" text-anchor="middle" style="white-space: pre;" direction="ltr">（以色列）</text></g><g stroke-linecap="round"><g transform="translate(515.2820361216836 123.32119634821572) rotate(0 48.1904426343707 6.926772545441111)"><path d="M0 0 C16.06 2.31, 80.32 11.54, 96.38 13.85 M0 0 C16.06 2.31, 80.32 11.54, 96.38 13.85" stroke="#000000" stroke-width="1" fill="none"></path></g><g transform="translate(515.2820361216836 123.32119634821572) rotate(0 48.1904426343707 6.926772545441111)"><path d="M67.02 20 C76.81 17.95, 86.6 15.9, 96.38 13.85 M67.02 20 C77.36 17.83, 87.71 15.67, 96.38 13.85" stroke="#000000" stroke-width="1" fill="none"></path></g><g transform="translate(515.2820361216836 123.32119634821572) rotate(0 48.1904426343707 6.926772545441111)"><path d="M69.94 -0.31 C78.75 4.41, 87.57 9.13, 96.38 13.85 M69.94 -0.31 C79.25 4.68, 88.57 9.67, 96.38 13.85" stroke="#000000" stroke-width="1" fill="none"></path></g></g><g stroke-linecap="round" transform="translate(1003.6797343271699 802.9098500926555) rotate(0 62.500000000000114 27.37890625)"><path d="M-0.15 -1.2 C45.29 -1.37, 91.18 0.34, 124.22 0.08 M-0.9 0.31 C43.27 -0.83, 87.65 -0.19, 125.77 -0.37 M126.81 0.47 C127.07 19.29, 124.33 40.75, 123.84 55.77 M124.01 -0.93 C124.73 14.66, 124.71 28.92, 125.24 54.3 M126.23 53.28 C82.06 53.74, 36.32 56.05, 0.61 54.62 M125.87 53.81 C95.44 54.92, 64.03 55.61, 0.32 54.5 M-0.99 53.14 C-1.51 38.48, -0.94 23.2, -1.04 -1.84 M0.5 55.11 C0.57 34.34, -0.39 12.85, 0 -0.65" stroke="#000000" stroke-width="1" fill="none"></path></g><g transform="translate(1008.6797343271699 816.7887563426557) rotate(0 57.500000000000114 13.5)"><text x="57.5" y="21" font-family="Chinese, Segoe UI Emoji" font-size="20px" fill="#000000" text-anchor="middle" style="white-space: pre;" direction="ltr">儿子：约瑟</text></g><g stroke-linecap="round"><g transform="translate(708.1610821390097 209.71805604718384) rotate(0 153.8261500127935 295.7990220227358)"><path d="M0 0 C51.28 98.6, 256.38 493, 307.65 591.6 M0 0 C51.28 98.6, 256.38 493, 307.65 591.6" stroke="#000000" stroke-width="1" fill="none"></path></g><g transform="translate(708.1610821390097 209.71805604718384) rotate(0 153.8261500127935 295.7990220227358)"><path d="M285.54 571.32 C290.87 576.21, 296.2 581.1, 307.65 591.6 M285.54 571.32 C294.32 579.37, 303.09 587.41, 307.65 591.6" stroke="#000000" stroke-width="1" fill="none"></path></g><g transform="translate(708.1610821390097 209.71805604718384) rotate(0 153.8261500127935 295.7990220227358)"><path d="M303.75 561.85 C304.69 569.02, 305.63 576.2, 307.65 591.6 M303.75 561.85 C305.3 573.66, 306.85 585.46, 307.65 591.6" stroke="#000000" stroke-width="1" fill="none"></path></g></g><g transform="translate(847.7094169225968 812.0178322401853) rotate(0 50.5 13.5)"><text x="0" y="21" font-family="Chinese, Segoe UI Emoji" font-size="20px" fill="#000000" text-anchor="start" style="white-space: pre;" direction="ltr">被卖到埃及</text></g><g stroke-linecap="round" transform="translate(1209.64848432717 801.1793813426555) rotate(0 74.841796875 35.72265625)"><path d="M-1.9 -1.03 C38.87 -0.53, 79.23 0.01, 148.59 -0.14 M-0.22 -0.8 C60.12 0.04, 118.36 -0.62, 149.14 0.86 M149.26 -1.1 C149.99 24.41, 148.45 45.92, 149.16 71.16 M150.62 -0.09 C148.89 27.4, 149.86 55.2, 150.35 71.29 M149.9 70.47 C107.93 70.59, 61.95 72.27, -1.53 70.54 M150.08 70.59 C100.15 72.71, 51.88 72.78, 0.61 70.9 M-1.96 72.45 C-0.88 44.95, -1.15 21.03, 1.21 1.99 M-0.05 70.78 C-0.4 53.13, 0.51 34.87, -0.62 0.02" stroke="#000000" stroke-width="1" fill="none"></path></g><g transform="translate(1296.3598073876392 23.925403682271053) rotate(0 57.5 13.5)"><text x="0" y="21" font-family="Chinese, Segoe UI Emoji" font-size="20px" fill="#000000" text-anchor="start" style="white-space: pre;" direction="ltr">公元前1250年</text></g><g transform="translate(1224.45707807717 809.8121938426555) rotate(0 62.5 26.5)"><text x="0" y="21.5" font-family="Chinese, Segoe UI Emoji" font-size="20px" fill="#000000" text-anchor="start" style="white-space: pre;" direction="ltr">摩西 逃离埃及</text><text x="0" y="48" font-family="Chinese, Segoe UI Emoji" font-size="20px" fill="#000000" text-anchor="start" style="white-space: pre;" direction="ltr">摩西开海</text></g><g stroke-linecap="round" transform="translate(1263.9105886376392 89.68321618227105) rotate(0 100 32)"><path d="M-0.41 -1.36 C78.41 0.79, 154.81 1.23, 201.67 -1 M0.33 -0.1 C49.98 1.11, 98.64 2.27, 199.47 0.84 M199.34 0.53 C200.12 19.21, 200.47 35.23, 198.51 64.36 M199.95 0.18 C198.69 21.96, 199.54 43.84, 199.14 63.96 M201.52 64.28 C130.18 65.56, 62.09 64.35, 1.06 63.94 M200.79 63.23 C129.45 65.81, 59.41 66.42, -0.51 64.33 M0.71 62.67 C-0.24 46.85, -0.75 31.55, -0.22 0.3 M0.82 63.77 C-0.71 50.96, -0.66 35.77, -0.01 -0.72" stroke="#000000" stroke-width="1" fill="none"></path></g><g transform="translate(1268.9105886376392 94.68321618227105) rotate(0 95 27)"><text x="95" y="21" font-family="Chinese, Segoe UI Emoji" font-size="20px" fill="#000000" text-anchor="middle" style="white-space: pre;" direction="ltr">摩西十诫</text><text x="95" y="48" font-family="Chinese, Segoe UI Emoji" font-size="20px" fill="#000000" text-anchor="middle" style="white-space: pre;" direction="ltr">（上帝与以色列人）</text></g><g stroke-linecap="round"><g transform="translate(1318.6606361919312 795.9254750926555) rotate(0 3.25816186754264 -319.8975016707771)"><path d="M-0.27 0.47 C0.84 -106.14, 5.75 -532.09, 6.78 -638.51 M1.8 -0.32 C2.78 -106.77, 5.62 -533.7, 6.15 -640.27" stroke="#000000" stroke-width="1" fill="none"></path></g><g transform="translate(1318.6606361919312 795.9254750926555) rotate(0 3.25816186754264 -319.8975016707771)"><path d="M17.03 -611.02 C13.97 -621.35, 11.62 -630.59, 6.65 -640.2 M16.11 -612.8 C13.7 -623.06, 10.05 -632.48, 7.08 -639.39" stroke="#000000" stroke-width="1" fill="none"></path></g><g transform="translate(1318.6606361919312 795.9254750926555) rotate(0 3.25816186754264 -319.8975016707771)"><path d="M-3.49 -611.14 C-0.13 -621.39, 3.94 -630.59, 6.65 -640.2 M-4.41 -612.92 C0.52 -623.16, 4.22 -632.53, 7.08 -639.39" stroke="#000000" stroke-width="1" fill="none"></path></g></g><g stroke-linecap="round" transform="translate(6879.950375535433 97.00169925340765) rotate(0 149.00390625 39.16015625)"><path d="M-1.24 0.43 C73.37 1.04, 146.14 0.55, 298.32 1.2 M0.72 0.31 C86.4 -1.22, 174.8 -1.12, 298.56 0.55 M296.75 -0.12 C297.24 25.7, 300.13 55.39, 298.15 78.39 M298.01 -0.25 C297 15.4, 297.41 31.56, 298.57 79.05 M298.2 78.91 C205.75 78.2, 111.07 78.95, -0.23 77.84 M298.66 78.69 C188.05 78.03, 77.57 77.74, 0.29 78.79 M-0.33 79.22 C-0.4 59.19, 1.77 41.45, -0.81 -1.91 M0.22 78.59 C-0.47 57.2, 0.35 35.07, 0.24 -0.49" stroke="#000000" stroke-width="1" fill="none"></path></g><g transform="translate(6885.505063035433 11.78294925340765) rotate(0 26 13.5)"><text x="0" y="21" font-family="Chinese, Segoe UI Emoji" font-size="20px" fill="#000000" text-anchor="start" style="white-space: pre;" direction="ltr">1948年</text></g><g transform="translate(6885.098813035433 99.46263675340765) rotate(0 134.5 40)"><text x="0" y="20.666666666666668" font-family="Chinese, Segoe UI Emoji" font-size="20px" fill="#000000" text-anchor="start" style="white-space: pre;" direction="ltr">复国  以色列。</text><text x="0" y="47.333333333333336" font-family="Chinese, Segoe UI Emoji" font-size="20px" fill="#000000" text-anchor="start" style="white-space: pre;" direction="ltr">以色利的4子犹大部落的后代。</text><text x="0" y="74" font-family="Chinese, Segoe UI Emoji" font-size="20px" fill="#000000" text-anchor="start" style="white-space: pre;" direction="ltr">犹大代表： 大卫。</text></g><g stroke-linecap="round" transform="translate(1566.3543579468424 89.45274743227105) rotate(0 93.5 45.5)"><path d="M0.89 0.37 C70.35 -0.3, 143.06 2.67, 188.53 1.5 M0.2 -0.17 C47.02 -0.22, 96.25 0.41, 186.58 -0.27 M188.81 -1.64 C185.13 20.45, 187.82 40.76, 186.69 90.94 M187.03 -0.39 C186.8 18.66, 185.81 39.13, 187.36 91.49 M187.79 90.76 C124.76 91.57, 62.43 92.85, 1.94 91.59 M186.08 90.37 C128.47 91.19, 67.25 90.47, -0.22 90.22 M-0.01 89.33 C-2.43 71.41, -2.44 49.78, 0.23 1.06 M0.47 91.12 C0.59 64.63, -0.13 40.64, 0.01 0.08" stroke="#000000" stroke-width="1" fill="none"></path></g><g transform="translate(1599.8519948876392 14.597278682271053) rotate(0 46.5 13.5)"><text x="0" y="21" font-family="Chinese, Segoe UI Emoji" font-size="20px" fill="#000000" text-anchor="start" style="white-space: pre;" direction="ltr">公元前1000</text></g><g transform="translate(1571.3543579468424 94.45274743227105) rotate(0 88.5 40.5)"><text x="88.5" y="21" font-family="Chinese, Segoe UI Emoji" font-size="20px" fill="#000000" text-anchor="middle" style="white-space: pre;" direction="ltr">以色列的4子</text><text x="88.5" y="48" font-family="Chinese, Segoe UI Emoji" font-size="20px" fill="#000000" text-anchor="middle" style="white-space: pre;" direction="ltr">犹大王国。</text><text x="88.5" y="75" font-family="Chinese, Segoe UI Emoji" font-size="20px" fill="#000000" text-anchor="middle" style="white-space: pre;" direction="ltr">大卫王。</text></g><g stroke-linecap="round" transform="translate(1861.0512136376392 96.82384118227105) rotate(0 165.435546875 47.193359375)"><path d="M-0.02 0.26 C87.95 -2.09, 174.82 -2.07, 330.56 0.77 M-0.13 0.08 C117.44 0.44, 234.15 0.43, 331.51 -0.31 M330.62 -1.67 C331.37 24.68, 328.99 51.36, 331.46 95.33 M331.41 -0.26 C329.35 28.92, 329.68 58.23, 329.93 93.46 M330.62 93.3 C232.87 93.76, 137.17 93.02, -0.69 93.77 M330.23 94.89 C238.66 92.73, 147.08 93.83, -0.53 94.27 M1.97 96.22 C-0.82 62.78, -0.42 33.26, -0.84 0.39 M-0.65 94.81 C-0.98 61.55, 0.29 29.85, 0.32 0.41" stroke="#000000" stroke-width="1" fill="none"></path></g><g transform="translate(1867.0199636376392 112.65196618227105) rotate(0 160 26.5)"><text x="0" y="21.5" font-family="Chinese, Segoe UI Emoji" font-size="20px" fill="#000000" text-anchor="start" style="white-space: pre;" direction="ltr">《塔纳赫》：《妥拉》，《先知书》</text><text x="0" y="48" font-family="Chinese, Segoe UI Emoji" font-size="20px" fill="#000000" text-anchor="start" style="white-space: pre;" direction="ltr">《文集》。</text></g><g stroke-linecap="round" transform="translate(1868.2738698876392 202.40977868227105) rotate(0 165 18.5)"><path d="M-0.1 0.25 C98.54 1.17, 195.64 2.5, 329.05 -0.94 M-0.61 0.44 C131.15 1.82, 262.15 1.72, 330.45 -0.12 M328.43 0.47 C330.88 12.56, 328.35 23.74, 329.06 37.83 M330.25 0.66 C330.5 10.06, 330.86 19.41, 330.71 37.81 M329.35 36.07 C207.39 37.15, 85.35 36.3, 1.07 36.03 M329.68 36.83 C227.3 36.44, 124.49 36.89, -0.16 37.07 M0.8 36.35 C-0.46 27.42, 1.62 19.67, -0.74 -0.08 M0.56 36.65 C-0.68 29.01, -0.43 19.5, 0.34 0.69" stroke="#000000" stroke-width="1" fill="none"></path></g><g transform="translate(1873.2738698876392 207.40977868227105) rotate(0 160 13.5)"><text x="160" y="21" font-family="Chinese, Segoe UI Emoji" font-size="20px" fill="#000000" text-anchor="middle" style="white-space: pre;" direction="ltr">《塔木德》，《密西拿》等书</text></g><g transform="translate(2323.957463637639 154.41472179739446) rotate(0 215.5 13.5)"><text x="0" y="21" font-family="Chinese, Segoe UI Emoji" font-size="20px" fill="#000000" text-anchor="start" style="white-space: pre;" direction="ltr">犹太人是神的选民。一直在等弥赛亚（救世主）...</text></g><g transform="translate(2355.957463637639 332.47227868227105) rotate(0 50.5 13.5)"><text x="0" y="21" font-family="Chinese, Segoe UI Emoji" font-size="20px" fill="#000000" text-anchor="start" style="white-space: pre;" direction="ltr">公元元年。</text></g><g stroke-linecap="round" transform="translate(2352.309026137639 406.15196618227105) rotate(0 88.00390625 28.302734375)"><path d="M1.53 -0.87 C36.77 -1.03, 74.55 -1.53, 177.72 1.61 M-0.14 -0.3 C57.58 1.64, 115.81 0.22, 176.62 -0.24 M176.81 -0.98 C175.91 19.44, 176.23 38.58, 175.81 58.39 M176.02 -0.83 C175.41 11.79, 175.73 24.7, 176.77 55.88 M174.44 55.98 C130.93 58.15, 86.46 58.24, 1.75 57.74 M176.77 57.31 C132.76 56.55, 89.99 57.66, 0.66 55.87 M-0.63 58.45 C-0.95 43.56, 0.94 32.28, -1.66 -0.15 M0 57.1 C0.72 44.76, 0.66 31.48, 0.34 0.56" stroke="#000000" stroke-width="1" fill="none"></path></g><g transform="translate(2363.891057387639 423.35509118227105) rotate(0 80.5 13.5)"><text x="0" y="21" font-family="Chinese, Segoe UI Emoji" font-size="20px" fill="#000000" text-anchor="start" style="white-space: pre;" direction="ltr">犹太人耶稣诞生。</text></g><g stroke-linecap="round" transform="translate(2558.578557387639 399.35118493227105) rotate(0 184 32)"><path d="M-1.23 -0.07 C126.03 -1.85, 251.44 -1.24, 366.96 -0.47 M-0.35 -0.58 C115.37 0.46, 229.94 0.61, 368.16 -0.24 M368.99 -0.16 C366.45 21.67, 367.22 42.96, 367.51 63.52 M368.74 0.18 C368.06 17.26, 368.91 33.04, 367.32 63.39 M368.46 64.36 C227.13 65.11, 83.78 65.05, -1.11 64.44 M368 64.57 C278.82 66.15, 190.98 65.47, 0.19 63.42 M-1.59 63.27 C0.37 40.34, -1.55 19.28, 1.63 -1.77 M0.01 63.83 C-0.56 49.78, -0.55 33.56, 0.04 -0.06" stroke="#000000" stroke-width="1" fill="none"></path></g><g transform="translate(2563.578557387639 417.85118493227105) rotate(0 179 13.5)"><text x="179" y="21" font-family="Chinese, Segoe UI Emoji" font-size="20px" fill="#000000" text-anchor="middle" style="white-space: pre;" direction="ltr">叛徒judas出卖耶稣(不是以色列4子Judah)</text></g><g stroke-linecap="round" transform="translate(3001.488713637639 394.09727868227105) rotate(0 84.5 33.216796875)"><path d="M0.95 1.2 C48.57 -0.84, 96.3 0.59, 169.62 -0.92 M-0.54 0.36 C49.27 -0.87, 100.1 -0.05, 168.63 -0.84 M167.11 -0.32 C169.38 18.25, 168.86 40.52, 167.99 65.64 M169.35 -0.82 C168.94 18.1, 169.33 38.18, 168.51 67.25 M170.08 65.92 C131.46 65.89, 92.14 64.8, 0.09 65.03 M168.36 67.16 C112.64 65.86, 57.03 65.06, 0.5 67.08 M-0.09 66.95 C2.1 44.24, -0.93 25.53, -0.25 0.98 M0.67 66.39 C1.06 43.25, 1.32 19.22, -0.18 0.73" stroke="#000000" stroke-width="1" fill="none"></path></g><g transform="translate(3006.488713637639 400.31407555727105) rotate(0 79.5 27)"><text x="79.5" y="21" font-family="Chinese, Segoe UI Emoji" font-size="20px" fill="#000000" text-anchor="middle" style="white-space: pre;" direction="ltr">耶稣被钉死在十</text><text x="79.5" y="48" font-family="Chinese, Segoe UI Emoji" font-size="20px" fill="#000000" text-anchor="middle" style="white-space: pre;" direction="ltr">字架上。</text></g><g stroke-linecap="round" transform="translate(3248.656682387639 390.56212243227105) rotate(0 86.74609375 34.365234375)"><path d="M-0.77 -0.46 C50.4 1.77, 98.07 2.26, 173.01 1.17 M-0.61 -0.15 C50.31 -1.4, 100.39 -0.83, 173.2 0.33 M173.01 1.47 C171.34 19.47, 172.1 36.64, 172.15 67.42 M173.3 -0.92 C173.18 26.09, 173.7 53.29, 172.74 67.79 M171.7 70.12 C108.1 70.82, 41.39 69.46, -1.36 67.7 M173.8 69.07 C121.86 68.76, 70.88 69, 0.04 69.43 M-0.31 69.27 C1.04 55.59, 1 40.08, -0.31 -0.2 M-0.43 68.27 C-0.38 41.5, 1.52 13.63, -0.07 0.8" stroke="#000000" stroke-width="1" fill="none"></path></g><g stroke-linecap="round" transform="translate(1819.5824636376392 82.15977868227105) rotate(0 242.041015625 58.275390625)"><path d="M-0.64 -0.76 C139.47 -0.96, 280.16 -0.32, 484.39 -0.28 M483.49 -0.96 C484.55 23.17, 483.68 51.04, 483.2 118.42 M483.9 116.38 C335.5 115.19, 185.36 116.07, 0.72 116.08 M0.09 116.92 C1.04 72.28, 0.22 29.24, 1.82 1.47" stroke="#000000" stroke-width="1.5" fill="none" stroke-dasharray="8 9"></path></g><g transform="translate(2203.957463637639 97.47227868227105) rotate(0 50.5 26.5)"><text x="0" y="21.5" font-family="Chinese, Segoe UI Emoji" font-size="20px" fill="#000000" text-anchor="start" style="white-space: pre;" direction="ltr">圣经</text><text x="0" y="48" font-family="Chinese, Segoe UI Emoji" font-size="20px" fill="#000000" text-anchor="start" style="white-space: pre;" direction="ltr">的《旧约》</text></g><g transform="translate(3253.656682387639 411.42735680727105) rotate(0 81.5 13.5)"><text x="81.5" y="21" font-family="Chinese, Segoe UI Emoji" font-size="20px" fill="#000000" text-anchor="middle" style="white-space: pre;" direction="ltr">基督教</text></g><g stroke-linecap="round"><g transform="translate(7253.423031785432 104.23216800340765) rotate(0 -17.78515625 26.912109375)"><path d="M0 0 C-5.93 8.97, -29.64 44.85, -35.57 53.82 M0 0 C-5.93 8.97, -29.64 44.85, -35.57 53.82" stroke="#000000" stroke-width="1" fill="none"></path></g></g><g stroke-linecap="round"><g transform="translate(7254.469906785432 104.61498050340765) rotate(0 15.580078125 26.49609375)"><path d="M0 0 C5.19 8.83, 25.97 44.16, 31.16 52.99 M0 0 C5.19 8.83, 25.97 44.16, 31.16 52.99" stroke="#000000" stroke-width="1" fill="none"></path></g></g><g stroke-linecap="round"><g transform="translate(7219.048031785432 160.11107425340765) rotate(0 34.068359375 -0.107421875)"><path d="M0 0 C11.36 -0.04, 56.78 -0.18, 68.14 -0.21 M0 0 C11.36 -0.04, 56.78 -0.18, 68.14 -0.21" stroke="#000000" stroke-width="1" fill="none"></path></g></g><g stroke-linecap="round"><g transform="translate(7215.903500535432 122.53685550340765) rotate(0 18.501953125 29.08984375)"><path d="M0 0 C6.17 9.7, 30.84 48.48, 37 58.18 M0 0 C6.17 9.7, 30.84 48.48, 37 58.18" stroke="#000000" stroke-width="1" fill="none"></path></g></g><g stroke-linecap="round"><g transform="translate(7252.962094285432 181.16185550340765) rotate(0 0.205078125 -29.5)"><path d="M0 0 C12.56 -21.21, 25.11 -42.43, 34.93 -59 M0 0 C10.17 -17.19, 20.35 -34.37, 34.93 -59 M34.93 -59 C20.24 -58.92, 5.55 -58.85, -34.52 -58.64 M34.93 -59 C15.49 -58.9, -3.95 -58.8, -34.52 -58.64" stroke="#000000" stroke-width="1" fill="none"></path></g></g><g stroke-linecap="round"><g transform="translate(3483.398869887639 416.35899743227105) rotate(0 23.318359375 -0.259765625)"><path d="M0 0 C13.84 -0.15, 27.67 -0.31, 46.64 -0.52 M0 0 C17.32 -0.19, 34.63 -0.39, 46.64 -0.52" stroke="#000000" stroke-width="1" fill="none"></path></g></g><g stroke-linecap="round"><g transform="translate(3507.289494887639 396.83555993227105) rotate(0 -0.80859375 33.724609375)"><path d="M0 0 C-0.53 22.15, -1.06 44.3, -1.62 67.45 M0 0 C-0.45 18.6, -0.89 37.19, -1.62 67.45" stroke="#000000" stroke-width="1" fill="none"></path></g></g><g transform="translate(3459.957463637639 330.47227868227105) rotate(0 107 13.5)"><text x="0" y="21" font-family="Chinese, Segoe UI Emoji" font-size="20px" fill="#000000" text-anchor="start" style="white-space: pre;" direction="ltr">公元325年 第一届大公会</text></g><g transform="translate(3743.957463637639 329.47227868227105) rotate(0 12.5 13.5)"><text x="0" y="21" font-family="Chinese, Segoe UI Emoji" font-size="20px" fill="#000000" text-anchor="start" style="white-space: pre;" direction="ltr">331</text></g><g stroke-linecap="round" transform="translate(3709.351994887639 395.92149743227105) rotate(0 70.12890625 33.791015625)"><path d="M0 0 C44.49 0, 88.97 0, 140.26 0 M0 0 C48.32 0, 96.63 0, 140.26 0 M140.26 0 C140.26 15.86, 140.26 31.71, 140.26 67.58 M140.26 0 C140.26 16.84, 140.26 33.68, 140.26 67.58 M140.26 67.58 C97.15 67.58, 54.04 67.58, 0 67.58 M140.26 67.58 C103.33 67.58, 66.41 67.58, 0 67.58 M0 67.58 C0 43.64, 0 19.7, 0 0 M0 67.58 C0 43.42, 0 19.27, 0 0" stroke="#000000" stroke-width="1" fill="none"></path></g><g transform="translate(3714.351994887639 416.21251305727105) rotate(0 65 13.5)"><text x="65" y="21" font-family="Chinese, Segoe UI Emoji" font-size="20px" fill="#000000" text-anchor="middle" style="white-space: pre;" direction="ltr">定稿《圣经》</text></g><g transform="translate(3940.957463637639 330.47227868227105) rotate(0 14.5 13.5)"><text x="0" y="21" font-family="Chinese, Segoe UI Emoji" font-size="20px" fill="#000000" text-anchor="start" style="white-space: pre;" direction="ltr">380</text></g><g stroke-linecap="round" transform="translate(3932.547307387639 397.89415368227105) rotate(0 101.36328125 35.005859375)"><path d="M0 0 C72.64 0, 145.27 0, 202.73 0 M0 0 C77.31 0, 154.62 0, 202.73 0 M202.73 0 C202.73 17.16, 202.73 34.31, 202.73 70.01 M202.73 0 C202.73 15.8, 202.73 31.61, 202.73 70.01 M202.73 70.01 C133.4 70.01, 64.07 70.01, 0 70.01 M202.73 70.01 C157.97 70.01, 113.22 70.01, 0 70.01 M0 70.01 C0 43.57, 0 17.12, 0 0 M0 70.01 C0 43.66, 0 17.32, 0 0" stroke="#000000" stroke-width="1" fill="none"></path></g><g transform="translate(3939.652776137639 418.14024743227105) rotate(0 100.5 13.5)"><text x="0" y="21" font-family="Chinese, Segoe UI Emoji" font-size="20px" fill="#000000" text-anchor="start" style="white-space: pre;" direction="ltr">基督教为罗马的国教。</text></g><g transform="translate(5027.681142346651 316.6990833200314) rotate(0 17 13.5)"><text x="0" y="21" font-family="Chinese, Segoe UI Emoji" font-size="20px" fill="#000000" text-anchor="start" style="white-space: pre;" direction="ltr">1054</text></g><g stroke-linecap="round" transform="translate(5014.665517346651 389.1561145700314) rotate(0 87 32)"><path d="M0 0 C55.96 0, 111.91 0, 174 0 M0 0 C49.1 0, 98.21 0, 174 0 M174 0 C174 25.44, 174 50.87, 174 64 M174 0 C174 18.85, 174 37.7, 174 64 M174 64 C116.27 64, 58.55 64, 0 64 M174 64 C138.37 64, 102.74 64, 0 64 M0 64 C0 38.62, 0 13.25, 0 0 M0 64 C0 47.32, 0 30.64, 0 0" stroke="#000000" stroke-width="1" fill="none"></path></g><g transform="translate(5019.665517346651 394.1561145700314) rotate(0 82 27)"><text x="82" y="21" font-family="Chinese, Segoe UI Emoji" font-size="20px" fill="#000000" text-anchor="middle" style="white-space: pre;" direction="ltr">东西大分裂。</text><text x="82" y="48" font-family="Chinese, Segoe UI Emoji" font-size="20px" fill="#000000" text-anchor="middle" style="white-space: pre;" direction="ltr">天主教。东正教。</text></g><g transform="translate(5713.509314443839 324.33052119839954) rotate(0 14.5 13.5)"><text x="0" y="21" font-family="Chinese, Segoe UI Emoji" font-size="20px" fill="#000000" text-anchor="start" style="white-space: pre;" direction="ltr">1517</text></g><g stroke-linecap="round" transform="translate(5701.439001943839 385.34614619839954) rotate(0 68.9375 83.158203125)"><path d="M0 0 C36.3 0, 72.59 0, 137.88 0 M0 0 C51.23 0, 102.47 0, 137.88 0 M137.88 0 C137.88 48.94, 137.88 97.88, 137.88 166.32 M137.88 0 C137.88 54.26, 137.88 108.51, 137.88 166.32 M137.88 166.32 C88.18 166.32, 38.49 166.32, 0 166.32 M137.88 166.32 C99.99 166.32, 62.1 166.32, 0 166.32 M0 166.32 C0 108.87, 0 51.42, 0 0 M0 166.32 C0 127.1, 0 87.89, 0 0" stroke="#000000" stroke-width="1" fill="none"></path></g><g transform="translate(5712.411658193839 393.24848994839954) rotate(0 50 79.5)"><text x="0" y="21.5" font-family="Chinese, Segoe UI Emoji" font-size="20px" fill="#000000" text-anchor="start" style="white-space: pre;" direction="ltr">宗教改革。</text><text x="0" y="48" font-family="Chinese, Segoe UI Emoji" font-size="20px" fill="#000000" text-anchor="start" style="white-space: pre;" direction="ltr">马丁路德。</text><text x="0" y="74.5" font-family="Chinese, Segoe UI Emoji" font-size="20px" fill="#000000" text-anchor="start" style="white-space: pre;" direction="ltr">因信称义。</text><text x="0" y="101" font-family="Chinese, Segoe UI Emoji" font-size="20px" fill="#000000" text-anchor="start" style="white-space: pre;" direction="ltr"></text><text x="0" y="127.5" font-family="Chinese, Segoe UI Emoji" font-size="20px" fill="#000000" text-anchor="start" style="white-space: pre;" direction="ltr">新教。</text><text x="0" y="154" font-family="Chinese, Segoe UI Emoji" font-size="20px" fill="#000000" text-anchor="start" style="white-space: pre;" direction="ltr"></text></g><g transform="translate(5556.411658193839 409.24848994839954) rotate(0 40 26.5)"><text x="0" y="21.5" font-family="Chinese, Segoe UI Emoji" font-size="20px" fill="#000000" text-anchor="start" style="white-space: pre;" direction="ltr">赎罪券。</text><text x="0" y="48" font-family="Chinese, Segoe UI Emoji" font-size="20px" fill="#000000" text-anchor="start" style="white-space: pre;" direction="ltr">腐败。</text></g><g transform="translate(5868.355685404341 428.830105236961) rotate(0 216.5 26.5)"><text x="0" y="21.5" font-family="Chinese, Segoe UI Emoji" font-size="20px" fill="#000000" text-anchor="start" style="white-space: pre;" direction="ltr">信耶稣-》信圣经的《旧约》+《新约》</text><text x="0" y="48" font-family="Chinese, Segoe UI Emoji" font-size="20px" fill="#000000" text-anchor="start" style="white-space: pre;" direction="ltr">基督教-〉（天主教， 东正教，新教（基督教））</text></g><g stroke-linecap="round"><g transform="translate(835.8052544342002 694.9306472085323) rotate(0 2552.1036700961467 7.5739628053617025)"><path d="M0 0 C1270.08 3.77, 2540.15 7.54, 5104.21 15.15 M0 0 C1420.53 4.22, 2841.06 8.43, 5104.21 15.15" stroke="#000000" stroke-width="4" fill="none"></path></g></g><g transform="translate(1886.8253669467176 26.80137793990872) rotate(0 43 13.5)"><text x="0" y="21" font-family="Chinese, Segoe UI Emoji" font-size="20px" fill="#000000" text-anchor="start" style="white-space: pre;" direction="ltr">公元前597</text></g><g transform="translate(1758.0392208131238 769.7404154839205) rotate(0 40.5 13.5)"><text x="0" y="21" font-family="Chinese, Segoe UI Emoji" font-size="20px" fill="#000000" text-anchor="start" style="white-space: pre;" direction="ltr">伊斯兰教</text></g><g transform="translate(1877.2709240571912 754.7651605278263) rotate(0 290.5 13.5)"><text x="0" y="21" font-family="Chinese, Segoe UI Emoji" font-size="20px" fill="#000000" text-anchor="start" style="white-space: pre;" direction="ltr">只相信《妥拉》，讲先知摩西的部分。不认可耶稣是上帝的儿子。</text></g><g transform="translate(4116.375021749912 658.3155188067619) rotate(0 31.5 13.5)"><text x="0" y="21" font-family="Chinese, Segoe UI Emoji" font-size="20px" fill="#000000" text-anchor="start" style="white-space: pre;" direction="ltr">公元610</text></g><g stroke-linecap="round" transform="translate(4096.026046723969 741.0389444388268) rotate(0 117.5 32)"><path d="M-1.34 0.42 C71.13 1.93, 140.86 3.02, 234.25 -1.22 M-0.66 0.51 C87.72 -0.38, 175.17 -0.59, 235.25 0.11 M234.21 0.39 C234.55 24.14, 235.79 47.9, 235.29 64.86 M235.45 0.26 C235.51 17.56, 234.56 36.53, 234.88 63.42 M236.14 64.94 C165 63.6, 96.26 61.47, -1.1 62.71 M234.29 64.75 C173.77 65.55, 110.75 65.95, -0.25 63.67 M-0.86 65.84 C0.55 37.62, 0.7 15.78, 1.39 -0.62 M0.67 64.55 C0.69 49.14, -0.55 33.82, 0.62 -0.61" stroke="#000000" stroke-width="1" fill="none"></path></g><g transform="translate(4101.026046723969 746.0389444388268) rotate(0 112.5 27)"><text x="112.5" y="21" font-family="Chinese, Segoe UI Emoji" font-size="20px" fill="#000000" text-anchor="middle" style="white-space: pre;" direction="ltr">先知：默罕默德</text><text x="112.5" y="48" font-family="Chinese, Segoe UI Emoji" font-size="20px" fill="#000000" text-anchor="middle" style="white-space: pre;" direction="ltr">《Quran 古兰经》</text></g><g transform="translate(4340.815478104461 656.6306718130993) rotate(0 103.5 13.5)"><text x="0" y="21" font-family="Chinese, Segoe UI Emoji" font-size="20px" fill="#000000" text-anchor="start" style="white-space: pre;" direction="ltr">伊斯兰的起源在公元700</text></g><g stroke-linecap="round" transform="translate(5235.699459278801 749.7614287196827) rotate(0 140 33.288809235035615)"><path d="M-0.53 0.23 C108.06 1.52, 219.31 -0.32, 279.16 0.55 M-0.58 -0.24 C74.11 -1.25, 148.07 -1.04, 280.38 -0.49 M281.1 1.59 C281.63 13.17, 278.68 30.86, 279.54 66.53 M279.26 0.09 C279.83 19.47, 280.27 37.8, 279.58 66.68 M279.87 67.56 C201.2 67.85, 123.42 66.34, -0.66 66.02 M279.63 66.8 C170.3 67.98, 59.83 68.48, -0.66 66.11 M-0.01 65.28 C-1 51.63, 0.5 38.17, -1.27 -0.9 M0.3 65.78 C0.87 46.67, 0.77 27.97, -0.86 0.64" stroke="#000000" stroke-width="1" fill="none"></path></g><g transform="translate(1758.054918145358 827.2659056961149) rotate(0 220.5 13.5)"><text x="0" y="21" font-family="Chinese, Segoe UI Emoji" font-size="20px" fill="#000000" text-anchor="start" style="white-space: pre;" direction="ltr">亚伯拉罕与二妻子生：伊斯玛仪，阿拉伯人之父。</text></g><g transform="translate(5299.671320597167 313.51315128693443) rotate(0 16.5 13.5)"><text x="0" y="21" font-family="Chinese, Segoe UI Emoji" font-size="20px" fill="#000000" text-anchor="start" style="white-space: pre;" direction="ltr">1095</text></g><g stroke-linecap="round"><g transform="translate(5197.178205964056 429.62480259154904) rotate(0 95.10910594079951 134.99499836758565)"><path d="M-0.88 1.23 C65.64 92.77, 132.49 186.86, 190.14 268.26 M-0.08 0.16 C75.97 104.05, 151.35 209.53, 191.1 269.83" stroke="#000000" stroke-width="1" fill="none"></path></g><g transform="translate(5197.178205964056 429.62480259154904) rotate(0 95.10910594079951 134.99499836758565)"><path d="M165.45 254.11 C174.94 258.55, 184.52 265.81, 190.27 268.43 M166.63 252.55 C175.83 258.81, 186.55 265.98, 191.67 270.73" stroke="#000000" stroke-width="1" fill="none"></path></g><g transform="translate(5197.178205964056 429.62480259154904) rotate(0 95.10910594079951 134.99499836758565)"><path d="M182.41 242.55 C186 251.09, 189.71 262.35, 190.27 268.43 M183.58 240.99 C186.27 251.92, 190.36 263.6, 191.67 270.73" stroke="#000000" stroke-width="1" fill="none"></path></g></g><g transform="translate(5298.185306478537 411.97205153460243) rotate(0 90.5 13.5)"><text x="0" y="21" font-family="Chinese, Segoe UI Emoji" font-size="20px" fill="#000000" text-anchor="start" style="white-space: pre;" direction="ltr">圣战：十字军东征。</text></g><g transform="translate(5240.699459278801 769.5502379547183) rotate(0 135 13.5)"><text x="135" y="21" font-family="Chinese, Segoe UI Emoji" font-size="20px" fill="#000000" text-anchor="middle" style="white-space: pre;" direction="ltr">占领了耶路撒冷</text></g><g stroke-linecap="round" transform="translate(5273.221315774303 393.039553586304) rotate(0 110.4804405207733 34.78528824182911)"><path d="M1.26 -0.15 C51.09 0.96, 106.78 -0.25, 219.27 0.73 M0.36 0.83 C51.84 0.61, 102.8 0.79, 220.53 -0.77 M222.54 1.33 C222.94 22.73, 221.46 46.33, 222.9 70.33 M220.11 -0.64 C221.15 16, 219.72 31.32, 221.62 70.33 M221.85 70.83 C142.37 71.49, 61.35 70.81, 0.16 70.53 M220.27 69.04 C173.85 70.1, 126.02 69.41, 0.06 70.03 M-1.02 70.54 C1.22 40.66, -0.29 13.04, 1.77 -1.51 M-0.8 70.12 C0.23 42.4, 0.23 15.45, -0.6 -0.94" stroke="#000000" stroke-width="1" fill="none"></path></g><g transform="translate(10 56.88269895408996) rotate(0 12 13.5)"><text x="0" y="21" font-family="Chinese, Segoe UI Emoji" font-size="20px" fill="#000000" text-anchor="start" style="white-space: pre;" direction="ltr">god</text></g><g stroke-linecap="round"><g transform="translate(21.788696511558555 92.18448389185619) rotate(0 30.63003898095519 8.520318811549316)"><path d="M-1.36 0.45 C16.76 5.31, 33.64 6.73, 62.62 16.59 M0 0.52 C24.94 6.35, 47.25 12.64, 61.5 16.09" stroke="#000000" stroke-width="1" fill="none"></path></g><g transform="translate(21.788696511558555 92.18448389185619) rotate(0 30.63003898095519 8.520318811549316)"><path d="M30.28 19.53 C40.49 19.62, 49.28 15.99, 63.43 16.44 M31.64 19.6 C44.37 17.88, 54.55 16.61, 62.31 15.95" stroke="#000000" stroke-width="1" fill="none"></path></g><g transform="translate(21.788696511558555 92.18448389185619) rotate(0 30.63003898095519 8.520318811549316)"><path d="M35.35 -0.35 C44.06 4.98, 51.53 6.57, 63.43 16.44 M36.71 -0.29 C47.53 5.82, 55.71 12.37, 62.31 15.95" stroke="#000000" stroke-width="1" fill="none"></path></g></g><g transform="translate(26.074068212830753 110.06002813605585) rotate(0 20.5 13.5)"><text x="0" y="21" font-family="Chinese, Segoe UI Emoji" font-size="20px" fill="#000000" text-anchor="start" style="white-space: pre;" direction="ltr">造人</text></g><g transform="translate(764.3300683055136 106.49673371778181) rotate(0 240 26.5)"><text x="0" y="21.5" font-family="Chinese, Segoe UI Emoji" font-size="20px" fill="#000000" text-anchor="start" style="white-space: pre;" direction="ltr">与神摔跤后，改名为以色列（和神摔跤，竞争的人）。</text><text x="0" y="48" font-family="Chinese, Segoe UI Emoji" font-size="20px" fill="#000000" text-anchor="start" style="white-space: pre;" direction="ltr">有12个儿子。</text></g><g transform="translate(3021.2087785369695 327.46284720340805) rotate(0 30 13.5)"><text x="0" y="21" font-family="Chinese, Segoe UI Emoji" font-size="20px" fill="#000000" text-anchor="start" style="white-space: pre;" direction="ltr">公元33</text></g><g transform="translate(3240.8877107789904 24.73456252842834) rotate(0 29 13.5)"><text x="0" y="21" font-family="Chinese, Segoe UI Emoji" font-size="20px" fill="#000000" text-anchor="start" style="white-space: pre;" direction="ltr">公元70</text></g><g transform="translate(3235.6918938078506 98.0515689731501) rotate(0 80.5 13.5)"><text x="0" y="21" font-family="Chinese, Segoe UI Emoji" font-size="20px" fill="#000000" text-anchor="start" style="white-space: pre;" direction="ltr">犹太人开始流浪。</text></g><g transform="translate(3950.8257235123483 95.72836380176432) rotate(0 90.5 13.5)"><text x="0" y="21" font-family="Chinese, Segoe UI Emoji" font-size="20px" fill="#000000" text-anchor="start" style="white-space: pre;" direction="ltr">罗马帝国的统治下。</text></g><g transform="translate(3003.795204639735 476.14797817209285) rotate(0 155 26.5)"><text x="0" y="21.5" font-family="Chinese, Segoe UI Emoji" font-size="20px" fill="#000000" text-anchor="start" style="white-space: pre;" direction="ltr">耶稣死 因为犹太人的出卖</text><text x="0" y="48" font-family="Chinese, Segoe UI Emoji" font-size="20px" fill="#000000" text-anchor="start" style="white-space: pre;" direction="ltr">在信仰上 基督徒对 犹太教有仇恨。</text></g><g transform="translate(5350.609163713028 14.018517053207688) rotate(0 16 13.5)"><text x="0" y="21" font-family="Chinese, Segoe UI Emoji" font-size="20px" fill="#000000" text-anchor="start" style="white-space: pre;" direction="ltr">1098</text></g><g transform="translate(5354.680005207032 83.67281264214114) rotate(0 70.5 13.5)"><text x="0" y="21" font-family="Chinese, Segoe UI Emoji" font-size="20px" fill="#000000" text-anchor="start" style="white-space: pre;" direction="ltr">被十字军屠杀。</text></g><g transform="translate(5564.930073217438 10) rotate(0 17 13.5)"><text x="0" y="21" font-family="Chinese, Segoe UI Emoji" font-size="20px" fill="#000000" text-anchor="start" style="white-space: pre;" direction="ltr">1350</text></g><g transform="translate(5567.609084586244 83.67281264214103) rotate(0 110.5 13.5)"><text x="0" y="21" font-family="Chinese, Segoe UI Emoji" font-size="20px" fill="#000000" text-anchor="start" style="white-space: pre;" direction="ltr">大瘟疫中犹太人被迫害。</text></g><g transform="translate(5849.795396985108 14.04467927360622) rotate(0 32.5 13.5)"><text x="0" y="21" font-family="Chinese, Segoe UI Emoji" font-size="20px" fill="#000000" text-anchor="start" style="white-space: pre;" direction="ltr">1881-1914</text></g><g transform="translate(5985.534858119845 86.3518240109463) rotate(0 150.5 13.5)"><text x="0" y="21" font-family="Chinese, Segoe UI Emoji" font-size="20px" fill="#000000" text-anchor="start" style="white-space: pre;" direction="ltr">罗斯柴尔德家族为复国的领头羊。</text></g><g transform="translate(5847.565772626381 79.65429558893345) rotate(0 40.5 13.5)"><text x="0" y="21" font-family="Chinese, Segoe UI Emoji" font-size="20px" fill="#000000" text-anchor="start" style="white-space: pre;" direction="ltr">锡安主义</text></g><g transform="translate(6336.333606555005 14.48420457630084) rotate(0 16.5 13.5)"><text x="0" y="21" font-family="Chinese, Segoe UI Emoji" font-size="20px" fill="#000000" text-anchor="start" style="white-space: pre;" direction="ltr">1942</text></g><g transform="translate(6328.181458678836 85.00708588246403) rotate(0 83 13.5)"><text x="0" y="21" font-family="Chinese, Segoe UI Emoji" font-size="20px" fill="#000000" text-anchor="start" style="white-space: pre;" direction="ltr">二战 被德国人屠杀</text></g><g transform="translate(6635.195115055089 12.679011368805163) rotate(0 15.5 13.5)"><text x="0" y="21" font-family="Chinese, Segoe UI Emoji" font-size="20px" fill="#000000" text-anchor="start" style="white-space: pre;" direction="ltr">1947</text></g><g transform="translate(6620.460552526661 91.70984674855652) rotate(0 109 40)"><text x="0" y="20.666666666666668" font-family="Chinese, Segoe UI Emoji" font-size="20px" fill="#000000" text-anchor="start" style="white-space: pre;" direction="ltr">地域分割计划。</text><text x="0" y="47.333333333333336" font-family="Chinese, Segoe UI Emoji" font-size="20px" fill="#000000" text-anchor="start" style="white-space: pre;" direction="ltr">    将巴勒斯坦一分为二：</text><text x="0" y="74" font-family="Chinese, Segoe UI Emoji" font-size="20px" fill="#000000" text-anchor="start" style="white-space: pre;" direction="ltr">    以色列+巴勒斯坦。</text></g><g stroke-linecap="round"><g transform="translate(514.2663332927 189.83835111119288) rotate(0 617.2238361476773 322.0263694338202)"><path d="M0.4 0.14 C426.65 225.22, 855.76 448.54, 1233.61 643.71 M0.07 0.07 C344.49 182.94, 689.35 362.04, 1234.38 643.99" stroke="#000000" stroke-width="1" fill="none"></path></g><g transform="translate(514.2663332927 189.83835111119288) rotate(0 617.2238361476773 322.0263694338202)"><path d="M1205.64 640.47 C1214.22 642.43, 1224.78 642.68, 1232.73 643.94 M1204.8 640.3 C1213.4 642.2, 1222.24 641.68, 1234.64 644.62" stroke="#000000" stroke-width="1" fill="none"></path></g><g transform="translate(514.2663332927 189.83835111119288) rotate(0 617.2238361476773 322.0263694338202)"><path d="M1215.08 622.25 C1220.23 630.52, 1227.51 637.1, 1232.73 643.94 M1214.23 622.08 C1220.18 629.01, 1226.38 633.58, 1234.64 644.62" stroke="#000000" stroke-width="1" fill="none"></path></g></g></svg>