<svg id="kity_svg_6" xmlns="http://www.w3.org/2000/svg" xmlns:xlink="http://www.w3.org/1999/xlink" version="1.1" width="1333" height="473" style="background: rgb(251, 251, 251); visibility: visible;" viewBox="0 0 1333 473"><defs id="kity_defs_7"><linearGradient id="kity_linearGradient_17" x1="0" y1="0" x2="0" y2="1"><stop id="kity_stop_18" offset="0" stop-color="rgb(255, 255, 255)"></stop><stop id="kity_stop_19" offset="1" stop-color="rgb(204, 204, 204)"></stop></linearGradient><marker id="kity_marker_2" orient="auto" refX="6" refY="0" viewBox="-7 -7 14 14" markerWidth="7" markerHeight="7" markerUnits="userSpaceOnUse"><path id="kity_path_3" fill="rgb(115, 161, 191)" stroke="none" d="M6,0A6,6,0,1,1,-6,0A6,6,0,1,1,6,0"></path></marker></defs><g id="kity_g_8"><g id="minder1" text-rendering="optimize-speed"><g id="minder_connect_group1"><path id="kity_path_31" fill="none" stroke="rgb(115, 191, 118)" stroke-width="1" d="M666.5,60.5v30h-488.5V110.5"></path><path id="kity_path_33" fill="none" stroke="rgb(115, 191, 118)" stroke-width="1" d="M40.5,136.5V182.5L60.5,182.5"></path><path id="kity_path_35" fill="none" stroke="rgb(115, 191, 118)" stroke-width="1" d="M40.5,136.5V234.5L60.5,234.5"></path><path id="kity_path_37" fill="none" stroke="rgb(115, 191, 118)" stroke-width="1" d="M40.5,136.5V286.5L60.5,286.5"></path><path id="kity_path_39" fill="none" stroke="rgb(115, 191, 118)" stroke-width="1" d="M666.5,60.5v30h-201V110.5"></path><path id="kity_path_41" fill="none" stroke="rgb(115, 191, 118)" stroke-width="1" d="M395.5,136.5V182.5L415.5,182.5"></path><path id="kity_path_43" fill="none" stroke="rgb(115, 191, 118)" stroke-width="1" d="M395.5,136.5V234.5L415.5,234.5"></path><path id="kity_path_45" fill="none" stroke="rgb(115, 191, 118)" stroke-width="1" d="M395.5,136.5V286.5L415.5,286.5"></path><path id="kity_path_47" fill="none" stroke="rgb(115, 191, 118)" stroke-width="1" d="M395.5,136.5V338.5L415.5,338.5"></path><path id="kity_path_49" fill="none" stroke="rgb(115, 191, 118)" stroke-width="1" d="M666.5,60.5v30h178V110.5"></path><path id="kity_path_51" fill="none" stroke="rgb(115, 191, 118)" stroke-width="1" d="M795.5,136.5V182.5L815.5,182.5"></path><path id="kity_path_53" fill="none" stroke="rgb(115, 191, 118)" stroke-width="1" d="M795.5,136.5V234.5L815.5,234.5"></path><path id="kity_path_55" fill="none" stroke="rgb(115, 191, 118)" stroke-width="1" d="M835.5,245.5V286.5L855.5,286.5"></path><path id="kity_path_57" fill="none" stroke="rgb(115, 191, 118)" stroke-width="1" d="M835.5,245.5V338.5L855.5,338.5"></path><path id="kity_path_59" fill="none" stroke="rgb(115, 191, 118)" stroke-width="1" d="M795.5,136.5V390.5L815.5,390.5"></path><path id="kity_path_61" fill="none" stroke="rgb(115, 191, 118)" stroke-width="1" d="M795.5,136.5V442.5L815.5,442.5"></path><path id="kity_path_63" fill="none" stroke="rgb(115, 191, 118)" stroke-width="1" d="M666.5,60.5v30h578V110.5"></path></g><g id="minder_node1"><path id="node_outline1" fill="rgb(115, 191, 118)" stroke="rgb(115, 191, 118)" d="M591.5,20.5h150a5,5,0,0,1,5,5v30a5,5,0,0,1,-5,5h-150a5,5,0,0,1,-5,-5v-30a5,5,0,0,1,5,-5z" stroke-width="3"></path><g id="node_text1" fill="white"><text id="kity_text_22" text-rendering="inherit" font-size="16" dy=".8em" y="32.5" x="610.5">拆掉思维里的墙</text></g></g><g id="kity_g_12"><path id="kity_path_13" fill="none" stroke="none" d="M610.5,40.5h0v0h0z"></path></g><g id="kity_g_14"><path id="kity_path_15" fill="none" stroke="none" d="M610.5,40.5h0v0h0z"></path><path id="kity_path_16" fill="none" stroke="none"></path></g><g id="minder_node2"><g id="node_expander4" style="cursor: pointer;"><path id="kity_path_125" fill="white" stroke="gray" d="M184,103.5A6,6,0,1,1,172,103.5A6,6,0,1,1,184,103.5"></path><path id="kity_path_126" fill="none" stroke="gray" d="M173.5,103.5L182.5,103.5"></path></g><path id="node_outline5" fill="rgb(238, 246, 238)" stroke="rgb(115, 191, 118)" d="M23.5,110.5h309a3,3,0,0,1,3,3v20a3,3,0,0,1,-3,3h-309a3,3,0,0,1,-3,-3v-20a3,3,0,0,1,3,-3z" stroke-width="1"></path><g id="node_text5" fill="black"><text id="kity_text_71" text-rendering="inherit" font-size="14" dy=".8em" y="116.5" x="40.5">从impossible 到i'm possible，只需一点改变</text></g></g><g id="minder_node3"><g id="node_expander1" style="cursor: pointer;" display="none"><path id="kity_path_116" fill="white" stroke="gray" d="M60.5,182.5A6,6,0,1,1,48.5,182.5A6,6,0,1,1,60.5,182.5"></path><path id="kity_path_117" fill="none" stroke="gray"></path></g><path id="node_outline2" fill="none" stroke="none" d="M65.5,171.5h118a5,5,0,0,1,5,5v12a5,5,0,0,1,-5,5h-118a5,5,0,0,1,-5,-5v-12a5,5,0,0,1,5,-5z"></path><g id="node_text2" fill="black"><text id="kity_text_65" text-rendering="inherit" font-size="12" dy=".8em" y="176.5" x="70.5">限制就是限制本身。</text></g></g><g id="minder_node4"><g id="node_expander2" style="cursor: pointer;" display="none"><path id="kity_path_119" fill="white" stroke="gray" d="M60.5,234.5A6,6,0,1,1,48.5,234.5A6,6,0,1,1,60.5,234.5"></path><path id="kity_path_120" fill="none" stroke="gray"></path></g><path id="node_outline3" fill="none" stroke="none" d="M65.5,223.5h190a5,5,0,0,1,5,5v12a5,5,0,0,1,-5,5h-190a5,5,0,0,1,-5,-5v-12a5,5,0,0,1,5,-5z"></path><g id="node_text3" fill="black"><text id="kity_text_67" text-rendering="inherit" font-size="12" dy=".8em" y="228.5" x="70.5">你认为你做不到，你就真的做不到</text></g></g><g id="minder_node5"><g id="node_expander3" style="cursor: pointer;" display="none"><path id="kity_path_122" fill="white" stroke="gray" d="M60.5,286.5A6,6,0,1,1,48.5,286.5A6,6,0,1,1,60.5,286.5"></path><path id="kity_path_123" fill="none" stroke="gray"></path></g><path id="node_outline4" fill="none" stroke="none" d="M65.5,275.5h250a5,5,0,0,1,5,5v12a5,5,0,0,1,-5,5h-250a5,5,0,0,1,-5,-5v-12a5,5,0,0,1,5,-5z"></path><g id="node_text4" fill="black"><text id="kity_text_69" text-rendering="inherit" font-size="12" dy=".8em" y="280.5" x="70.5">你认为自己可以更强大，你就真的会变得强大</text></g></g><g id="minder_node6"><g id="node_expander9" style="cursor: pointer;"><path id="kity_path_140" fill="white" stroke="gray" d="M471.5,103.5A6,6,0,1,1,459.5,103.5A6,6,0,1,1,471.5,103.5"></path><path id="kity_path_141" fill="none" stroke="gray" d="M461,103.5L470,103.5"></path></g><path id="node_outline10" fill="rgb(238, 246, 238)" stroke="rgb(115, 191, 118)" d="M378.5,110.5h174a3,3,0,0,1,3,3v20a3,3,0,0,1,-3,3h-174a3,3,0,0,1,-3,-3v-20a3,3,0,0,1,3,-3z" stroke-width="1"></path><g id="node_text10" fill="black"><text id="kity_text_81" text-rendering="inherit" font-size="14" dy=".8em" y="116.5" x="395.5">有意思比有意义更重要</text></g></g><g id="minder_node7"><g id="node_expander5" style="cursor: pointer;" display="none"><path id="kity_path_128" fill="white" stroke="gray" d="M415.5,182.5A6,6,0,1,1,403.5,182.5A6,6,0,1,1,415.5,182.5"></path><path id="kity_path_129" fill="none" stroke="gray"></path></g><path id="node_outline6" fill="none" stroke="none" d="M420.5,171.5h310a5,5,0,0,1,5,5v12a5,5,0,0,1,-5,5h-310a5,5,0,0,1,-5,-5v-12a5,5,0,0,1,5,-5z"></path><g id="node_text6" fill="black"><text id="kity_text_73" text-rendering="inherit" font-size="12" dy=".8em" y="176.5" x="425.5">不要去想人生的意义，就从你觉得有意思的事开始做起吧</text></g></g><g id="minder_node8"><g id="node_expander6" style="cursor: pointer;" display="none"><path id="kity_path_131" fill="white" stroke="gray" d="M415.5,234.5A6,6,0,1,1,403.5,234.5A6,6,0,1,1,415.5,234.5"></path><path id="kity_path_132" fill="none" stroke="gray"></path></g><path id="node_outline7" fill="none" stroke="none" d="M420.5,223.5h286a5,5,0,0,1,5,5v12a5,5,0,0,1,-5,5h-286a5,5,0,0,1,-5,-5v-12a5,5,0,0,1,5,-5z"></path><g id="node_text7" fill="black"><text id="kity_text_75" text-rendering="inherit" font-size="12" dy=".8em" y="228.5" x="425.5">有意义有点高尚，可以先从你感到有意思的事做起。</text></g></g><g id="minder_node9"><g id="node_expander7" style="cursor: pointer;" display="none"><path id="kity_path_134" fill="white" stroke="gray" d="M415.5,286.5A6,6,0,1,1,403.5,286.5A6,6,0,1,1,415.5,286.5"></path><path id="kity_path_135" fill="none" stroke="gray"></path></g><path id="node_outline8" fill="none" stroke="none" d="M420.5,275.5h298a5,5,0,0,1,5,5v12a5,5,0,0,1,-5,5h-298a5,5,0,0,1,-5,-5v-12a5,5,0,0,1,5,-5z"></path><g id="node_text8" fill="black"><text id="kity_text_77" text-rendering="inherit" font-size="12" dy=".8em" y="280.5" x="425.5">要是你觉得没什么有意思的事，那就躺平，锻炼身体。</text></g></g><g id="minder_node10"><g id="node_expander8" style="cursor: pointer;" display="none"><path id="kity_path_137" fill="white" stroke="gray" d="M415.5,338.5A6,6,0,1,1,403.5,338.5A6,6,0,1,1,415.5,338.5"></path><path id="kity_path_138" fill="none" stroke="gray"></path></g><path id="node_outline9" fill="none" stroke="none" d="M420.5,327.5h226a5,5,0,0,1,5,5v12a5,5,0,0,1,-5,5h-226a5,5,0,0,1,-5,-5v-12a5,5,0,0,1,5,-5z"></path><g id="node_text9" fill="black"><text id="kity_text_79" text-rendering="inherit" font-size="12" dy=".8em" y="332.5" x="425.5">没有人会一直躺平，追寻价值事人的本能</text></g></g><g id="minder_node11"><g id="node_expander16" style="cursor: pointer;"><path id="kity_path_161" fill="white" stroke="gray" d="M850.5,103.5A6,6,0,1,1,838.5,103.5A6,6,0,1,1,850.5,103.5"></path><path id="kity_path_162" fill="none" stroke="gray" d="M840,103.5L849,103.5"></path></g><path id="node_outline17" fill="rgb(238, 246, 238)" stroke="rgb(115, 191, 118)" d="M778.5,110.5h132a3,3,0,0,1,3,3v20a3,3,0,0,1,-3,3h-132a3,3,0,0,1,-3,-3v-20a3,3,0,0,1,3,-3z" stroke-width="1"></path><g id="node_text17" fill="black"><text id="kity_text_95" text-rendering="inherit" font-size="14" dy=".8em" y="116.5" x="795.5">别定太大的计划</text></g></g><g id="minder_node12"><g id="node_expander10" style="cursor: pointer;" display="none"><path id="kity_path_143" fill="white" stroke="gray" d="M815.5,182.5A6,6,0,1,1,803.5,182.5A6,6,0,1,1,815.5,182.5"></path><path id="kity_path_144" fill="none" stroke="gray"></path></g><path id="node_outline11" fill="none" stroke="none" d="M820.5,171.5h226a5,5,0,0,1,5,5v12a5,5,0,0,1,-5,5h-226a5,5,0,0,1,-5,-5v-12a5,5,0,0,1,5,-5z"></path><g id="node_text11" fill="black"><text id="kity_text_83" text-rendering="inherit" font-size="12" dy=".8em" y="176.5" x="825.5">把计划划分到最小，小到不可能失败为止</text></g></g><g id="minder_node13"><g id="node_expander13" style="cursor: pointer;"><path id="kity_path_152" fill="white" stroke="gray" d="M815.5,234.5A6,6,0,1,1,803.5,234.5A6,6,0,1,1,815.5,234.5"></path><path id="kity_path_153" fill="none" stroke="gray" d="M805,234.5L814,234.5"></path></g><path id="node_outline14" fill="none" stroke="none" d="M820.5,223.5h166a5,5,0,0,1,5,5v12a5,5,0,0,1,-5,5h-166a5,5,0,0,1,-5,-5v-12a5,5,0,0,1,5,-5z"></path><g id="node_text14" fill="black"><text id="kity_text_89" text-rendering="inherit" font-size="12" dy=".8em" y="228.5" x="825.5">坏的开始等于成功的三分之一</text></g></g><g id="minder_node14"><g id="node_expander11" style="cursor: pointer;" display="none"><path id="kity_path_146" fill="white" stroke="gray" d="M855.5,286.5A6,6,0,1,1,843.5,286.5A6,6,0,1,1,855.5,286.5"></path><path id="kity_path_147" fill="none" stroke="gray"></path></g><path id="node_outline12" fill="none" stroke="none" d="M860.5,275.5h262a5,5,0,0,1,5,5v12a5,5,0,0,1,-5,5h-262a5,5,0,0,1,-5,-5v-12a5,5,0,0,1,5,-5z"></path><g id="node_text12" fill="black"><text id="kity_text_85" text-rendering="inherit" font-size="12" dy=".8em" y="280.5" x="865.5">如果没有一个好的开始，就试试一个坏的开始。</text></g></g><g id="minder_node15"><g id="node_expander12" style="cursor: pointer;" display="none"><path id="kity_path_149" fill="white" stroke="gray" d="M855.5,338.5A6,6,0,1,1,843.5,338.5A6,6,0,1,1,855.5,338.5"></path><path id="kity_path_150" fill="none" stroke="gray"></path></g><path id="node_outline13" fill="none" stroke="none" d="M860.5,327.5h250a5,5,0,0,1,5,5v12a5,5,0,0,1,-5,5h-250a5,5,0,0,1,-5,-5v-12a5,5,0,0,1,5,-5z"></path><g id="node_text13" fill="black"><text id="kity_text_87" text-rendering="inherit" font-size="12" dy=".8em" y="332.5" x="865.5">不可能有完美的开始，那就从坏的开始做起吧</text></g></g><g id="minder_node16"><g id="node_expander14" style="cursor: pointer;" display="none"><path id="kity_path_155" fill="white" stroke="gray" d="M815.5,390.5A6,6,0,1,1,803.5,390.5A6,6,0,1,1,815.5,390.5"></path><path id="kity_path_156" fill="none" stroke="gray"></path></g><path id="node_outline15" fill="none" stroke="none" d="M820.5,379.5h94a5,5,0,0,1,5,5v12a5,5,0,0,1,-5,5h-94a5,5,0,0,1,-5,-5v-12a5,5,0,0,1,5,-5z"></path><g id="node_text15" fill="black"><text id="kity_text_91" text-rendering="inherit" font-size="12" dy=".8em" y="384.5" x="825.5">然后坚持做起来</text></g></g><g id="minder_node17"><g id="node_expander15" style="cursor: pointer;" display="none"><path id="kity_path_158" fill="white" stroke="gray" d="M815.5,442.5A6,6,0,1,1,803.5,442.5A6,6,0,1,1,815.5,442.5"></path><path id="kity_path_159" fill="none" stroke="gray"></path></g><path id="node_outline16" fill="none" stroke="none" d="M820.5,431.5h310a5,5,0,0,1,5,5v12a5,5,0,0,1,-5,5h-310a5,5,0,0,1,-5,-5v-12a5,5,0,0,1,5,-5z"></path><g id="node_text16" fill="black"><text id="kity_text_93" text-rendering="inherit" font-size="12" dy=".8em" y="436.5" x="825.5">坚持写成功日记，找到一个让你觉得自己很厉害的地方。</text></g></g><g id="minder_node18"><g id="node_expander17" style="cursor: pointer;" display="none"><path id="kity_path_164" fill="white" stroke="gray" d="M1250.5,103.5A6,6,0,1,1,1238.5,103.5A6,6,0,1,1,1250.5,103.5"></path><path id="kity_path_165" fill="none" stroke="gray"></path></g><path id="node_outline18" fill="rgb(238, 246, 238)" stroke="rgb(115, 191, 118)" d="M1178.5,110.5h132a3,3,0,0,1,3,3v20a3,3,0,0,1,-3,3h-132a3,3,0,0,1,-3,-3v-20a3,3,0,0,1,3,-3z" stroke-width="1"></path><g id="node_text18" fill="black"><text id="kity_text_97" text-rendering="inherit" font-size="14" dy=".8em" y="116.5" x="1195.5">怕什么？可以学</text></g></g></g></g></svg>