<svg id="kity_svg_6" xmlns="http://www.w3.org/2000/svg" xmlns:xlink="http://www.w3.org/1999/xlink" version="1.1" width="1584" height="1357" style="background: rgb(251, 251, 251); visibility: visible;" viewBox="0 0 1584 1357"><defs id="kity_defs_7"><linearGradient id="kity_linearGradient_17" x1="0" y1="0" x2="0" y2="1"><stop id="kity_stop_18" offset="0" stop-color="rgb(255, 255, 255)"></stop><stop id="kity_stop_19" offset="1" stop-color="rgb(204, 204, 204)"></stop></linearGradient><marker id="kity_marker_2" orient="auto" refX="6" refY="0" viewBox="-7 -7 14 14" markerWidth="7" markerHeight="7" markerUnits="userSpaceOnUse"><path id="kity_path_3" fill="rgb(115, 161, 191)" stroke="none" d="M6,0A6,6,0,1,1,-6,0A6,6,0,1,1,6,0"></path></marker></defs><g id="kity_g_8"><g id="minder1" text-rendering="optimize-speed"><g id="minder_connect_group1"><path id="kity_path_31" fill="none" stroke="rgb(115, 161, 191)" stroke-width="1" d="M529.5,60.5v30h-474.5V110.5"></path><path id="kity_path_33" fill="none" stroke="rgb(115, 161, 191)" stroke-width="1" d="M40.5,136.5V182.5L60.5,182.5"></path><path id="kity_path_35" fill="none" stroke="rgb(115, 161, 191)" stroke-width="1" d="M40.5,136.5V234.5L60.5,234.5"></path><path id="kity_path_37" fill="none" stroke="rgb(115, 161, 191)" stroke-width="1" d="M80.5,245.5V286.5L100.5,286.5"></path><path id="kity_path_39" fill="none" stroke="rgb(115, 161, 191)" stroke-width="1" d="M80.5,245.5V338.5L100.5,338.5"></path><path id="kity_path_41" fill="none" stroke="rgb(115, 161, 191)" stroke-width="1" d="M40.5,136.5V390.5L60.5,390.5"></path><path id="kity_path_43" fill="none" stroke="rgb(115, 161, 191)" stroke-width="1" d="M40.5,136.5V442.5L60.5,442.5"></path><path id="kity_path_45" fill="none" stroke="rgb(115, 161, 191)" stroke-width="1" d="M40.5,136.5V494.5L60.5,494.5"></path><path id="kity_path_47" fill="none" stroke="rgb(115, 161, 191)" stroke-width="1" d="M40.5,136.5V546.5L60.5,546.5"></path><path id="kity_path_49" fill="none" stroke="rgb(115, 161, 191)" stroke-width="1" d="M80.5,557.5V598.5L100.5,598.5"></path><path id="kity_path_51" fill="none" stroke="rgb(115, 161, 191)" stroke-width="1" d="M120.5,609.5V650.5L140.5,650.5"></path><path id="kity_path_53" fill="none" stroke="rgb(115, 161, 191)" stroke-width="1" d="M40.5,136.5V702.5L60.5,702.5"></path><path id="kity_path_55" fill="none" stroke="rgb(115, 161, 191)" stroke-width="1" d="M80.5,713.5V754.5L100.5,754.5"></path><path id="kity_path_57" fill="none" stroke="rgb(115, 161, 191)" stroke-width="1" d="M120.5,765.5V806.5L140.5,806.5"></path><path id="kity_path_59" fill="none" stroke="rgb(115, 161, 191)" stroke-width="1" d="M80.5,713.5V858.5L100.5,858.5"></path><path id="kity_path_61" fill="none" stroke="rgb(115, 161, 191)" stroke-width="1" d="M40.5,136.5V910.5L60.5,910.5"></path><path id="kity_path_63" fill="none" stroke="rgb(115, 161, 191)" stroke-width="1" d="M80.5,921.5V962.5L100.5,962.5"></path><path id="kity_path_65" fill="none" stroke="rgb(115, 161, 191)" stroke-width="1" d="M120.5,973.5V1014.5L140.5,1014.5"></path><path id="kity_path_67" fill="none" stroke="rgb(115, 161, 191)" stroke-width="1" d="M80.5,921.5V1066.5L100.5,1066.5"></path><path id="kity_path_69" fill="none" stroke="rgb(115, 161, 191)" stroke-width="1" d="M40.5,136.5V1118.5L60.5,1118.5"></path><path id="kity_path_71" fill="none" stroke="rgb(115, 161, 191)" stroke-width="1" d="M40.5,136.5V1170.5L60.5,1170.5"></path><path id="kity_path_73" fill="none" stroke="rgb(115, 161, 191)" stroke-width="1" d="M40.5,136.5V1222.5L60.5,1222.5"></path><path id="kity_path_75" fill="none" stroke="rgb(115, 161, 191)" stroke-width="1" d="M80.5,1233.5V1274.5L100.5,1274.5"></path><path id="kity_path_77" fill="none" stroke="rgb(115, 161, 191)" stroke-width="1" d="M40.5,136.5V1326.5L60.5,1326.5"></path><path id="kity_path_79" fill="none" stroke="rgb(115, 161, 191)" stroke-width="1" d="M529.5,60.5v30h48.5V110.5"></path><path id="kity_path_81" fill="none" stroke="rgb(115, 161, 191)" stroke-width="1" d="M552.5,136.5V182.5L572.5,182.5"></path><path id="kity_path_83" fill="none" stroke="rgb(115, 161, 191)" stroke-width="1" d="M552.5,136.5V234.5L572.5,234.5"></path><path id="kity_path_85" fill="none" stroke="rgb(115, 161, 191)" stroke-width="1" d="M552.5,136.5V286.5L572.5,286.5"></path><path id="kity_path_87" fill="none" stroke="rgb(115, 161, 191)" stroke-width="1" d="M552.5,136.5V338.5L572.5,338.5"></path><path id="kity_path_89" fill="none" stroke="rgb(115, 161, 191)" stroke-width="1" d="M552.5,136.5V390.5L572.5,390.5"></path><path id="kity_path_91" fill="none" stroke="rgb(115, 161, 191)" stroke-width="1" d="M552.5,136.5V442.5L572.5,442.5"></path><path id="kity_path_93" fill="none" stroke="rgb(115, 161, 191)" stroke-width="1" d="M552.5,136.5V494.5L572.5,494.5"></path><path id="kity_path_95" fill="none" stroke="rgb(115, 161, 191)" stroke-width="1" d="M592.5,505.5V546.5L612.5,546.5"></path><path id="kity_path_97" fill="none" stroke="rgb(115, 161, 191)" stroke-width="1" d="M592.5,505.5V598.5L612.5,598.5"></path><path id="kity_path_99" fill="none" stroke="rgb(115, 161, 191)" stroke-width="1" d="M592.5,505.5V650.5L612.5,650.5"></path><path id="kity_path_101" fill="none" stroke="rgb(115, 161, 191)" stroke-width="1" d="M592.5,505.5V702.5L612.5,702.5"></path><path id="kity_path_103" fill="none" stroke="rgb(115, 161, 191)" stroke-width="1" d="M529.5,60.5v30h464.5V110.5"></path><path id="kity_path_105" fill="none" stroke="rgb(115, 161, 191)" stroke-width="1" d="M968.5,136.5V182.5L988.5,182.5"></path><path id="kity_path_107" fill="none" stroke="rgb(115, 161, 191)" stroke-width="1" d="M968.5,136.5V234.5L988.5,234.5"></path><path id="kity_path_109" fill="none" stroke="rgb(115, 161, 191)" stroke-width="1" d="M968.5,136.5V286.5L988.5,286.5"></path><path id="kity_path_111" fill="none" stroke="rgb(115, 161, 191)" stroke-width="1" d="M968.5,136.5V338.5L988.5,338.5"></path><path id="kity_path_113" fill="none" stroke="rgb(115, 161, 191)" stroke-width="1" d="M1008.5,349.5V390.5L1028.5,390.5"></path><path id="kity_path_115" fill="none" stroke="rgb(115, 161, 191)" stroke-width="1" d="M1008.5,349.5V442.5L1028.5,442.5"></path><path id="kity_path_117" fill="none" stroke="rgb(115, 161, 191)" stroke-width="1" d="M1008.5,349.5V494.5L1028.5,494.5"></path><path id="kity_path_119" fill="none" stroke="rgb(115, 161, 191)" stroke-width="1" d="M1008.5,349.5V546.5L1028.5,546.5"></path><path id="kity_path_121" fill="none" stroke="rgb(115, 161, 191)" stroke-width="1" d="M1008.5,349.5V598.5L1028.5,598.5"></path><path id="kity_path_123" fill="none" stroke="rgb(115, 161, 191)" stroke-width="1" d="M968.5,136.5V650.5L988.5,650.5"></path><path id="kity_path_125" fill="none" stroke="rgb(115, 161, 191)" stroke-width="1" d="M1008.5,661.5V702.5L1028.5,702.5"></path><path id="kity_path_127" fill="none" stroke="rgb(115, 161, 191)" stroke-width="1" d="M1008.5,661.5V754.5L1028.5,754.5"></path><path id="kity_path_129" fill="none" stroke="rgb(115, 161, 191)" stroke-width="1" d="M1008.5,661.5V806.5L1028.5,806.5"></path><path id="kity_path_131" fill="none" stroke="rgb(115, 161, 191)" stroke-width="1" d="M1008.5,661.5V858.5L1028.5,858.5"></path><path id="kity_path_133" fill="none" stroke="rgb(115, 161, 191)" stroke-width="1" d="M1008.5,661.5V962.5L1028.5,962.5"></path><path id="kity_path_135" fill="none" stroke="rgb(115, 161, 191)" stroke-width="1" d="M1008.5,661.5V1014.5L1028.5,1014.5"></path><path id="kity_path_455" fill="none" stroke="rgb(115, 161, 191)" stroke-width="1" d="M1008.5,661.5V910.5L1028.5,910.5"></path></g><g id="minder_node1"><path id="node_outline1" fill="rgb(115, 161, 191)" stroke="rgb(115, 161, 191)" d="M459.5,20.5h139a5,5,0,0,1,5,5v30a5,5,0,0,1,-5,5h-139a5,5,0,0,1,-5,-5v-30a5,5,0,0,1,5,-5z" stroke-width="3"></path><g id="node_text1" fill="white"><text id="kity_text_22" text-rendering="inherit" font-size="16" dy=".8em" y="32.5" x="478.5">生死疲劳-莫言</text></g></g><g id="kity_g_12"><path id="kity_path_13" fill="none" stroke="none" d="M478.5,40.5h0v0h0z"></path></g><g id="kity_g_14"><path id="kity_path_15" fill="none" stroke="none" d="M478.5,40.5h0v0h0z"></path><path id="kity_path_16" fill="none" stroke="none"></path></g><g id="minder_node2"><g id="node_expander24" style="cursor: pointer;"><path id="kity_path_365" fill="white" stroke="gray" d="M60.5,103.5A6,6,0,1,1,48.5,103.5A6,6,0,1,1,60.5,103.5"></path><path id="kity_path_366" fill="none" stroke="gray" d="M50,103.5L59,103.5"></path></g><path id="node_outline25" fill="rgb(238, 243, 246)" stroke="rgb(115, 161, 191)" d="M23.5,110.5h62a3,3,0,0,1,3,3v20a3,3,0,0,1,-3,3h-62a3,3,0,0,1,-3,-3v-20a3,3,0,0,1,3,-3z" stroke-width="1"></path><g id="node_text25" fill="black"><text id="kity_text_183" text-rendering="inherit" font-size="14" dy=".8em" y="116.5" x="40.5">人物</text></g></g><g id="minder_node3"><g id="node_expander1" style="cursor: pointer;" display="none"><path id="kity_path_296" fill="white" stroke="gray" d="M60.5,182.5A6,6,0,1,1,48.5,182.5A6,6,0,1,1,60.5,182.5"></path><path id="kity_path_297" fill="none" stroke="gray"></path></g><path id="node_outline2" fill="none" stroke="none" d="M65.5,171.5h238a5,5,0,0,1,5,5v12a5,5,0,0,1,-5,5h-238a5,5,0,0,1,-5,-5v-12a5,5,0,0,1,5,-5z"></path><g id="node_text2" fill="black"><text id="kity_text_137" text-rendering="inherit" font-size="12" dy=".8em" y="176.5" x="70.5">生死疲劳，从贪欲起，少欲无为，身心自在</text></g></g><g id="minder_node4"><g id="node_expander4" style="cursor: pointer;"><path id="kity_path_305" fill="white" stroke="gray" d="M60.5,234.5A6,6,0,1,1,48.5,234.5A6,6,0,1,1,60.5,234.5"></path><path id="kity_path_306" fill="none" stroke="gray" d="M50,234.5L59,234.5"></path></g><path id="node_outline5" fill="none" stroke="none" d="M65.5,223.5h253a5,5,0,0,1,5,5v12a5,5,0,0,1,-5,5h-253a5,5,0,0,1,-5,-5v-12a5,5,0,0,1,5,-5z"></path><g id="node_text5" fill="black"><text id="kity_text_143" text-rendering="inherit" font-size="12" dy=".8em" y="228.5" x="70.5">西门闹： 被枪毙，驴，牛，猪，狗，猴，婴儿</text></g></g><g id="minder_node5"><g id="node_expander2" style="cursor: pointer;" display="none"><path id="kity_path_299" fill="white" stroke="gray" d="M100.5,286.5A6,6,0,1,1,88.5,286.5A6,6,0,1,1,100.5,286.5"></path><path id="kity_path_300" fill="none" stroke="gray"></path></g><path id="node_outline3" fill="none" stroke="none" d="M105.5,275.5h373a5,5,0,0,1,5,5v12a5,5,0,0,1,-5,5h-373a5,5,0,0,1,-5,-5v-12a5,5,0,0,1,5,-5z"></path><g id="node_text3" fill="black"><text id="kity_text_139" text-rendering="inherit" font-size="12" dy=".8em" y="280.5" x="110.5">西门金龙： 西门闹与迎春之子，后随母跟养父姓蓝，心狠烧死西门牛</text></g></g><g id="minder_node6"><g id="node_expander3" style="cursor: pointer;" display="none"><path id="kity_path_302" fill="white" stroke="gray" d="M100.5,338.5A6,6,0,1,1,88.5,338.5A6,6,0,1,1,100.5,338.5"></path><path id="kity_path_303" fill="none" stroke="gray"></path></g><path id="node_outline4" fill="none" stroke="none" d="M105.5,327.5h382a5,5,0,0,1,5,5v12a5,5,0,0,1,-5,5h-382a5,5,0,0,1,-5,-5v-12a5,5,0,0,1,5,-5z"></path><g id="node_text4" fill="black"><text id="kity_text_141" text-rendering="inherit" font-size="12" dy=".8em" y="332.5" x="110.5">西门宝凤：西门闹与迎春之女，赤脚医生，先嫁马良才，后与常天红。</text></g></g><g id="minder_node7"><g id="node_expander5" style="cursor: pointer;" display="none"><path id="kity_path_308" fill="white" stroke="gray" d="M60.5,390.5A6,6,0,1,1,48.5,390.5A6,6,0,1,1,60.5,390.5"></path><path id="kity_path_309" fill="none" stroke="gray"></path></g><path id="node_outline6" fill="none" stroke="none" d="M65.5,379.5h106a5,5,0,0,1,5,5v12a5,5,0,0,1,-5,5h-106a5,5,0,0,1,-5,-5v-12a5,5,0,0,1,5,-5z"></path><g id="node_text6" fill="black"><text id="kity_text_145" text-rendering="inherit" font-size="12" dy=".8em" y="384.5" x="70.5">白氏：西门闹正妻</text></g></g><g id="minder_node8"><g id="node_expander6" style="cursor: pointer;" display="none"><path id="kity_path_311" fill="white" stroke="gray" d="M60.5,442.5A6,6,0,1,1,48.5,442.5A6,6,0,1,1,60.5,442.5"></path><path id="kity_path_312" fill="none" stroke="gray"></path></g><path id="node_outline7" fill="none" stroke="none" d="M65.5,431.5h190a5,5,0,0,1,5,5v12a5,5,0,0,1,-5,5h-190a5,5,0,0,1,-5,-5v-12a5,5,0,0,1,5,-5z"></path><g id="node_text7" fill="black"><text id="kity_text_147" text-rendering="inherit" font-size="12" dy=".8em" y="436.5" x="70.5">迎春：西门闹二姨太，后嫁给蓝脸</text></g></g><g id="minder_node9"><g id="node_expander7" style="cursor: pointer;" display="none"><path id="kity_path_314" fill="white" stroke="gray" d="M60.5,494.5A6,6,0,1,1,48.5,494.5A6,6,0,1,1,60.5,494.5"></path><path id="kity_path_315" fill="none" stroke="gray"></path></g><path id="node_outline8" fill="none" stroke="none" d="M65.5,483.5h202a5,5,0,0,1,5,5v12a5,5,0,0,1,-5,5h-202a5,5,0,0,1,-5,-5v-12a5,5,0,0,1,5,-5z"></path><g id="node_text8" fill="black"><text id="kity_text_149" text-rendering="inherit" font-size="12" dy=".8em" y="488.5" x="70.5">吴秋香：西门闹三姨太，后嫁给黄瞳</text></g></g><g id="minder_node10"><g id="node_expander10" style="cursor: pointer;"><path id="kity_path_323" fill="white" stroke="gray" d="M60.5,546.5A6,6,0,1,1,48.5,546.5A6,6,0,1,1,60.5,546.5"></path><path id="kity_path_324" fill="none" stroke="gray" d="M50,546.5L59,546.5"></path></g><path id="node_outline11" fill="none" stroke="none" d="M65.5,535.5h238a5,5,0,0,1,5,5v12a5,5,0,0,1,-5,5h-238a5,5,0,0,1,-5,-5v-12a5,5,0,0,1,5,-5z"></path><g id="node_text11" fill="black"><text id="kity_text_155" text-rendering="inherit" font-size="12" dy=".8em" y="540.5" x="70.5">蓝脸：西门闹家的长工。坚持到底的单干户</text></g></g><g id="minder_node11"><g id="node_expander9" style="cursor: pointer;"><path id="kity_path_320" fill="white" stroke="gray" d="M100.5,598.5A6,6,0,1,1,88.5,598.5A6,6,0,1,1,100.5,598.5"></path><path id="kity_path_321" fill="none" stroke="gray" d="M90,598.5L99,598.5"></path></g><path id="node_outline10" fill="none" stroke="none" d="M105.5,587.5h241a5,5,0,0,1,5,5v12a5,5,0,0,1,-5,5h-241a5,5,0,0,1,-5,-5v-12a5,5,0,0,1,5,-5z"></path><g id="node_text10" fill="black"><text id="kity_text_153" text-rendering="inherit" font-size="12" dy=".8em" y="592.5" x="110.5">蓝解放： 蓝脸与迎春之子。县主任，副县长</text></g></g><g id="minder_node12"><g id="node_expander8" style="cursor: pointer;" display="none"><path id="kity_path_317" fill="white" stroke="gray" d="M140.5,650.5A6,6,0,1,1,128.5,650.5A6,6,0,1,1,140.5,650.5"></path><path id="kity_path_318" fill="none" stroke="gray"></path></g><path id="node_outline9" fill="none" stroke="none" d="M145.5,639.5h250a5,5,0,0,1,5,5v12a5,5,0,0,1,-5,5h-250a5,5,0,0,1,-5,-5v-12a5,5,0,0,1,5,-5z"></path><g id="node_text9" fill="black"><text id="kity_text_151" text-rendering="inherit" font-size="12" dy=".8em" y="644.5" x="150.5">蓝开放：蓝解放与黄合作之子，派出所副所长</text></g></g><g id="minder_node13"><g id="node_expander14" style="cursor: pointer;"><path id="kity_path_335" fill="white" stroke="gray" d="M60.5,702.5A6,6,0,1,1,48.5,702.5A6,6,0,1,1,60.5,702.5"></path><path id="kity_path_336" fill="none" stroke="gray" d="M50,702.5L59,702.5"></path></g><path id="node_outline15" fill="none" stroke="none" d="M65.5,691.5h118a5,5,0,0,1,5,5v12a5,5,0,0,1,-5,5h-118a5,5,0,0,1,-5,-5v-12a5,5,0,0,1,5,-5z"></path><g id="node_text15" fill="black"><text id="kity_text_163" text-rendering="inherit" font-size="12" dy=".8em" y="696.5" x="70.5">黄瞳：西门屯大队长</text></g></g><g id="minder_node14"><g id="node_expander12" style="cursor: pointer;"><path id="kity_path_329" fill="white" stroke="gray" d="M100.5,754.5A6,6,0,1,1,88.5,754.5A6,6,0,1,1,100.5,754.5"></path><path id="kity_path_330" fill="none" stroke="gray" d="M90,754.5L99,754.5"></path></g><path id="node_outline13" fill="none" stroke="none" d="M105.5,743.5h310a5,5,0,0,1,5,5v12a5,5,0,0,1,-5,5h-310a5,5,0,0,1,-5,-5v-12a5,5,0,0,1,5,-5z"></path><g id="node_text13" fill="black"><text id="kity_text_159" text-rendering="inherit" font-size="12" dy=".8em" y="748.5" x="110.5">黄互助：黄瞳与吴秋香之女，先嫁西门金龙，后与蓝解放</text></g></g><g id="minder_node15"><g id="node_expander11" style="cursor: pointer;" display="none"><path id="kity_path_326" fill="white" stroke="gray" d="M140.5,806.5A6,6,0,1,1,128.5,806.5A6,6,0,1,1,140.5,806.5"></path><path id="kity_path_327" fill="none" stroke="gray"></path></g><path id="node_outline12" fill="none" stroke="none" d="M145.5,795.5h190a5,5,0,0,1,5,5v12a5,5,0,0,1,-5,5h-190a5,5,0,0,1,-5,-5v-12a5,5,0,0,1,5,-5z"></path><g id="node_text12" fill="black"><text id="kity_text_157" text-rendering="inherit" font-size="12" dy=".8em" y="800.5" x="150.5">西门欢：西门金龙与黄互助的养子</text></g></g><g id="minder_node16"><g id="node_expander13" style="cursor: pointer;" display="none"><path id="kity_path_332" fill="white" stroke="gray" d="M100.5,858.5A6,6,0,1,1,88.5,858.5A6,6,0,1,1,100.5,858.5"></path><path id="kity_path_333" fill="none" stroke="gray"></path></g><path id="node_outline14" fill="none" stroke="none" d="M105.5,847.5h226a5,5,0,0,1,5,5v12a5,5,0,0,1,-5,5h-226a5,5,0,0,1,-5,-5v-12a5,5,0,0,1,5,-5z"></path><g id="node_text14" fill="black"><text id="kity_text_161" text-rendering="inherit" font-size="12" dy=".8em" y="852.5" x="110.5">黄合作：黄瞳与吴秋香之女，蓝解放的妻</text></g></g><g id="minder_node17"><g id="node_expander18" style="cursor: pointer;"><path id="kity_path_347" fill="white" stroke="gray" d="M60.5,910.5A6,6,0,1,1,48.5,910.5A6,6,0,1,1,60.5,910.5"></path><path id="kity_path_348" fill="none" stroke="gray" d="M50,910.5L59,910.5"></path></g><path id="node_outline19" fill="none" stroke="none" d="M65.5,899.5h178a5,5,0,0,1,5,5v12a5,5,0,0,1,-5,5h-178a5,5,0,0,1,-5,-5v-12a5,5,0,0,1,5,-5z"></path><g id="node_text19" fill="black"><text id="kity_text_171" text-rendering="inherit" font-size="12" dy=".8em" y="904.5" x="70.5">庞虎：志愿军英雄，棉花厂厂长</text></g></g><g id="minder_node18"><g id="node_expander16" style="cursor: pointer;"><path id="kity_path_341" fill="white" stroke="gray" d="M100.5,962.5A6,6,0,1,1,88.5,962.5A6,6,0,1,1,100.5,962.5"></path><path id="kity_path_342" fill="none" stroke="gray" d="M90,962.5L99,962.5"></path></g><path id="node_outline17" fill="none" stroke="none" d="M105.5,951.5h325a5,5,0,0,1,5,5v12a5,5,0,0,1,-5,5h-325a5,5,0,0,1,-5,-5v-12a5,5,0,0,1,5,-5z"></path><g id="node_text17" fill="black"><text id="kity_text_167" text-rendering="inherit" font-size="12" dy=".8em" y="956.5" x="110.5">庞抗美：庞虎与王乐云之女。 常天红的妻，西门金龙的情人</text></g></g><g id="minder_node19"><g id="node_expander15" style="cursor: pointer;" display="none"><path id="kity_path_338" fill="white" stroke="gray" d="M140.5,1014.5A6,6,0,1,1,128.5,1014.5A6,6,0,1,1,140.5,1014.5"></path><path id="kity_path_339" fill="none" stroke="gray"></path></g><path id="node_outline16" fill="none" stroke="none" d="M145.5,1003.5h277a5,5,0,0,1,5,5v12a5,5,0,0,1,-5,5h-277a5,5,0,0,1,-5,-5v-12a5,5,0,0,1,5,-5z"></path><g id="node_text16" fill="black"><text id="kity_text_165" text-rendering="inherit" font-size="12" dy=".8em" y="1008.5" x="150.5">庞凤凰： 庞抗美与常天红之女，其生父为西门金龙</text></g></g><g id="minder_node20"><g id="node_expander17" style="cursor: pointer;" display="none"><path id="kity_path_344" fill="white" stroke="gray" d="M100.5,1066.5A6,6,0,1,1,88.5,1066.5A6,6,0,1,1,100.5,1066.5"></path><path id="kity_path_345" fill="none" stroke="gray"></path></g><path id="node_outline18" fill="none" stroke="none" d="M105.5,1055.5h277a5,5,0,0,1,5,5v12a5,5,0,0,1,-5,5h-277a5,5,0,0,1,-5,-5v-12a5,5,0,0,1,5,-5z"></path><g id="node_text18" fill="black"><text id="kity_text_169" text-rendering="inherit" font-size="12" dy=".8em" y="1060.5" x="110.5">庞春苗： 庞虎与王乐云之女，蓝解放的情人，继妻</text></g></g><g id="minder_node21"><g id="node_expander19" style="cursor: pointer;" display="none"><path id="kity_path_350" fill="white" stroke="gray" d="M60.5,1118.5A6,6,0,1,1,48.5,1118.5A6,6,0,1,1,60.5,1118.5"></path><path id="kity_path_351" fill="none" stroke="gray"></path></g><path id="node_outline20" fill="none" stroke="none" d="M65.5,1107.5h106a5,5,0,0,1,5,5v12a5,5,0,0,1,-5,5h-106a5,5,0,0,1,-5,-5v-12a5,5,0,0,1,5,-5z"></path><g id="node_text20" fill="black"><text id="kity_text_173" text-rendering="inherit" font-size="12" dy=".8em" y="1112.5" x="70.5">王乐云：庞虎之妻</text></g></g><g id="minder_node22"><g id="node_expander20" style="cursor: pointer;" display="none"><path id="kity_path_353" fill="white" stroke="gray" d="M60.5,1170.5A6,6,0,1,1,48.5,1170.5A6,6,0,1,1,60.5,1170.5"></path><path id="kity_path_354" fill="none" stroke="gray"></path></g><path id="node_outline21" fill="none" stroke="none" d="M65.5,1159.5h130a5,5,0,0,1,5,5v12a5,5,0,0,1,-5,5h-130a5,5,0,0,1,-5,-5v-12a5,5,0,0,1,5,-5z"></path><g id="node_text21" fill="black"><text id="kity_text_175" text-rendering="inherit" font-size="12" dy=".8em" y="1164.5" x="70.5">常天红：戏剧团副团长</text></g></g><g id="minder_node23"><g id="node_expander22" style="cursor: pointer;"><path id="kity_path_359" fill="white" stroke="gray" d="M60.5,1222.5A6,6,0,1,1,48.5,1222.5A6,6,0,1,1,60.5,1222.5"></path><path id="kity_path_360" fill="none" stroke="gray" d="M50,1222.5L59,1222.5"></path></g><path id="node_outline23" fill="none" stroke="none" d="M65.5,1211.5h142a5,5,0,0,1,5,5v12a5,5,0,0,1,-5,5h-142a5,5,0,0,1,-5,-5v-12a5,5,0,0,1,5,-5z"></path><g id="node_text23" fill="black"><text id="kity_text_179" text-rendering="inherit" font-size="12" dy=".8em" y="1216.5" x="70.5">马良才：西门屯小学老师</text></g></g><g id="minder_node24"><g id="node_expander21" style="cursor: pointer;" display="none"><path id="kity_path_356" fill="white" stroke="gray" d="M100.5,1274.5A6,6,0,1,1,88.5,1274.5A6,6,0,1,1,100.5,1274.5"></path><path id="kity_path_357" fill="none" stroke="gray"></path></g><path id="node_outline22" fill="none" stroke="none" d="M105.5,1263.5h178a5,5,0,0,1,5,5v12a5,5,0,0,1,-5,5h-178a5,5,0,0,1,-5,-5v-12a5,5,0,0,1,5,-5z"></path><g id="node_text22" fill="black"><text id="kity_text_177" text-rendering="inherit" font-size="12" dy=".8em" y="1268.5" x="110.5">马改革：马良才与西门宝凤之子</text></g></g><g id="minder_node25"><g id="node_expander23" style="cursor: pointer;" display="none"><path id="kity_path_362" fill="white" stroke="gray" d="M60.5,1326.5A6,6,0,1,1,48.5,1326.5A6,6,0,1,1,60.5,1326.5"></path><path id="kity_path_363" fill="none" stroke="gray"></path></g><path id="node_outline24" fill="none" stroke="none" d="M65.5,1315.5h262a5,5,0,0,1,5,5v12a5,5,0,0,1,-5,5h-262a5,5,0,0,1,-5,-5v-12a5,5,0,0,1,5,-5z"></path><g id="node_text24" fill="black"><text id="kity_text_181" text-rendering="inherit" font-size="12" dy=".8em" y="1320.5" x="70.5">洪泰岳：西门屯村长，最后与西门金龙同归于尽</text></g></g><g id="minder_node26"><g id="node_expander36" style="cursor: pointer;"><path id="kity_path_401" fill="white" stroke="gray" d="M583.5,103.5A6,6,0,1,1,571.5,103.5A6,6,0,1,1,583.5,103.5"></path><path id="kity_path_402" fill="none" stroke="gray" d="M573,103.5L582,103.5"></path></g><path id="node_outline37" fill="rgb(238, 243, 246)" stroke="rgb(115, 161, 191)" d="M535.5,110.5h84a3,3,0,0,1,3,3v20a3,3,0,0,1,-3,3h-84a3,3,0,0,1,-3,-3v-20a3,3,0,0,1,3,-3z" stroke-width="1"></path><g id="node_text37" fill="black"><text id="kity_text_207" text-rendering="inherit" font-size="14" dy=".8em" y="116.5" x="552.5">1驴折腾</text></g></g><g id="minder_node27"><g id="node_expander25" style="cursor: pointer;" display="none"><path id="kity_path_368" fill="white" stroke="gray" d="M572.5,182.5A6,6,0,1,1,560.5,182.5A6,6,0,1,1,572.5,182.5"></path><path id="kity_path_369" fill="none" stroke="gray"></path></g><path id="node_outline26" fill="none" stroke="none" d="M577.5,171.5h317a5,5,0,0,1,5,5v12a5,5,0,0,1,-5,5h-317a5,5,0,0,1,-5,-5v-12a5,5,0,0,1,5,-5z"></path><g id="node_text26" fill="black"><text id="kity_text_185" text-rendering="inherit" font-size="12" dy=".8em" y="176.5" x="582.5">以驴的视角叙述-1950年山东高密东北乡西门屯村土地改革</text></g></g><g id="minder_node28"><g id="node_expander26" style="cursor: pointer;" display="none"><path id="kity_path_371" fill="white" stroke="gray" d="M572.5,234.5A6,6,0,1,1,560.5,234.5A6,6,0,1,1,572.5,234.5"></path><path id="kity_path_372" fill="none" stroke="gray"></path></g><path id="node_outline27" fill="none" stroke="none" d="M577.5,223.5h94a5,5,0,0,1,5,5v12a5,5,0,0,1,-5,5h-94a5,5,0,0,1,-5,-5v-12a5,5,0,0,1,5,-5z"></path><g id="node_text27" fill="black"><text id="kity_text_187" text-rendering="inherit" font-size="12" dy=".8em" y="228.5" x="582.5">可树皮，闹公社</text></g></g><g id="minder_node29"><g id="node_expander27" style="cursor: pointer;" display="none"><path id="kity_path_374" fill="white" stroke="gray" d="M572.5,286.5A6,6,0,1,1,560.5,286.5A6,6,0,1,1,572.5,286.5"></path><path id="kity_path_375" fill="none" stroke="gray"></path></g><path id="node_outline28" fill="none" stroke="none" d="M577.5,275.5h142a5,5,0,0,1,5,5v12a5,5,0,0,1,-5,5h-142a5,5,0,0,1,-5,-5v-12a5,5,0,0,1,5,-5z"></path><g id="node_text28" fill="black"><text id="kity_text_189" text-rendering="inherit" font-size="12" dy=".8em" y="280.5" x="582.5">斗饿狼，救花花驴，交配</text></g></g><g id="minder_node30"><g id="node_expander28" style="cursor: pointer;" display="none"><path id="kity_path_377" fill="white" stroke="gray" d="M572.5,338.5A6,6,0,1,1,560.5,338.5A6,6,0,1,1,572.5,338.5"></path><path id="kity_path_378" fill="none" stroke="gray"></path></g><path id="node_outline29" fill="none" stroke="none" d="M577.5,327.5h154a5,5,0,0,1,5,5v12a5,5,0,0,1,-5,5h-154a5,5,0,0,1,-5,-5v-12a5,5,0,0,1,5,-5z"></path><g id="node_text29" fill="black"><text id="kity_text_191" text-rendering="inherit" font-size="12" dy=".8em" y="332.5" x="582.5">花花驴违背誓言，回到驴窝</text></g></g><g id="minder_node31"><g id="node_expander29" style="cursor: pointer;" display="none"><path id="kity_path_380" fill="white" stroke="gray" d="M572.5,390.5A6,6,0,1,1,560.5,390.5A6,6,0,1,1,572.5,390.5"></path><path id="kity_path_381" fill="none" stroke="gray"></path></g><path id="node_outline30" fill="none" stroke="none" d="M577.5,379.5h142a5,5,0,0,1,5,5v12a5,5,0,0,1,-5,5h-142a5,5,0,0,1,-5,-5v-12a5,5,0,0,1,5,-5z"></path><g id="node_text30" fill="black"><text id="kity_text_193" text-rendering="inherit" font-size="12" dy=".8em" y="384.5" x="582.5">被割卵，救待产的王乐云</text></g></g><g id="minder_node32"><g id="node_expander30" style="cursor: pointer;" display="none"><path id="kity_path_383" fill="white" stroke="gray" d="M572.5,442.5A6,6,0,1,1,560.5,442.5A6,6,0,1,1,572.5,442.5"></path><path id="kity_path_384" fill="none" stroke="gray"></path></g><path id="node_outline31" fill="none" stroke="none" d="M577.5,431.5h190a5,5,0,0,1,5,5v12a5,5,0,0,1,-5,5h-190a5,5,0,0,1,-5,-5v-12a5,5,0,0,1,5,-5z"></path><g id="node_text31" fill="black"><text id="kity_text_195" text-rendering="inherit" font-size="12" dy=".8em" y="436.5" x="582.5">当县长坐骑，断前蹄，被饥民分食</text></g></g><g id="minder_node33"><g id="node_expander35" style="cursor: pointer;"><path id="kity_path_398" fill="white" stroke="gray" d="M572.5,494.5A6,6,0,1,1,560.5,494.5A6,6,0,1,1,572.5,494.5"></path><path id="kity_path_399" fill="none" stroke="gray" d="M562,494.5L571,494.5"></path></g><path id="node_outline36" fill="none" stroke="none" d="M577.5,483.5h53a5,5,0,0,1,5,5v12a5,5,0,0,1,-5,5h-53a5,5,0,0,1,-5,-5v-12a5,5,0,0,1,5,-5z"></path><g id="node_text36" fill="black"><text id="kity_text_205" text-rendering="inherit" font-size="12" dy=".8em" y="488.5" x="582.5">2牛犟劲</text></g></g><g id="minder_node34"><g id="node_expander31" style="cursor: pointer;" display="none"><path id="kity_path_386" fill="white" stroke="gray" d="M612.5,546.5A6,6,0,1,1,600.5,546.5A6,6,0,1,1,612.5,546.5"></path><path id="kity_path_387" fill="none" stroke="gray"></path></g><path id="node_outline32" fill="none" stroke="none" d="M617.5,535.5h118a5,5,0,0,1,5,5v12a5,5,0,0,1,-5,5h-118a5,5,0,0,1,-5,-5v-12a5,5,0,0,1,5,-5z"></path><g id="node_text32" fill="black"><text id="kity_text_197" text-rendering="inherit" font-size="12" dy=".8em" y="540.5" x="622.5">以蓝解放的视角叙述</text></g></g><g id="minder_node35"><g id="node_expander32" style="cursor: pointer;" display="none"><path id="kity_path_389" fill="white" stroke="gray" d="M612.5,598.5A6,6,0,1,1,600.5,598.5A6,6,0,1,1,612.5,598.5"></path><path id="kity_path_390" fill="none" stroke="gray"></path></g><path id="node_outline33" fill="none" stroke="none" d="M617.5,587.5h94a5,5,0,0,1,5,5v12a5,5,0,0,1,-5,5h-94a5,5,0,0,1,-5,-5v-12a5,5,0,0,1,5,-5z"></path><g id="node_text33" fill="black"><text id="kity_text_199" text-rendering="inherit" font-size="12" dy=".8em" y="592.5" x="622.5">西门牛撞吴秋香</text></g></g><g id="minder_node36"><g id="node_expander33" style="cursor: pointer;" display="none"><path id="kity_path_392" fill="white" stroke="gray" d="M612.5,650.5A6,6,0,1,1,600.5,650.5A6,6,0,1,1,612.5,650.5"></path><path id="kity_path_393" fill="none" stroke="gray"></path></g><path id="node_outline34" fill="none" stroke="none" d="M617.5,639.5h169a5,5,0,0,1,5,5v12a5,5,0,0,1,-5,5h-169a5,5,0,0,1,-5,-5v-12a5,5,0,0,1,5,-5z"></path><g id="node_text34" fill="black"><text id="kity_text_201" text-rendering="inherit" font-size="12" dy=".8em" y="644.5" x="622.5">蓝解放 入公社，西门金龙倒台</text></g></g><g id="minder_node37"><g id="node_expander34" style="cursor: pointer;" display="none"><path id="kity_path_395" fill="white" stroke="gray" d="M612.5,702.5A6,6,0,1,1,600.5,702.5A6,6,0,1,1,612.5,702.5"></path><path id="kity_path_396" fill="none" stroke="gray"></path></g><path id="node_outline35" fill="none" stroke="none" d="M617.5,691.5h286a5,5,0,0,1,5,5v12a5,5,0,0,1,-5,5h-286a5,5,0,0,1,-5,-5v-12a5,5,0,0,1,5,-5z"></path><g id="node_text35" fill="black"><text id="kity_text_203" text-rendering="inherit" font-size="12" dy=".8em" y="696.5" x="622.5">西门牛被西门金龙烧死，忍耐走到在蓝脸的田中死掉</text></g></g><g id="minder_node38"><g id="node_expander53" style="cursor: pointer;"><path id="kity_path_452" fill="white" stroke="gray" d="M999.5,103.5A6,6,0,1,1,987.5,103.5A6,6,0,1,1,999.5,103.5"></path><path id="kity_path_453" fill="none" stroke="gray" d="M989,103.5L998,103.5"></path></g><path id="node_outline54" fill="rgb(238, 243, 246)" stroke="rgb(115, 161, 191)" d="M951.5,110.5h84a3,3,0,0,1,3,3v20a3,3,0,0,1,-3,3h-84a3,3,0,0,1,-3,-3v-20a3,3,0,0,1,3,-3z" stroke-width="1"></path><g id="node_text54" fill="black"><text id="kity_text_241" text-rendering="inherit" font-size="14" dy=".8em" y="116.5" x="968.5">3猪撒欢</text></g></g><g id="minder_node39"><g id="node_expander37" style="cursor: pointer;" display="none"><path id="kity_path_404" fill="white" stroke="gray" d="M988.5,182.5A6,6,0,1,1,976.5,182.5A6,6,0,1,1,988.5,182.5"></path><path id="kity_path_405" fill="none" stroke="gray"></path></g><path id="node_outline38" fill="none" stroke="none" d="M993.5,171.5h46a5,5,0,0,1,5,5v12a5,5,0,0,1,-5,5h-46a5,5,0,0,1,-5,-5v-12a5,5,0,0,1,5,-5z"></path><g id="node_text38" fill="black"><text id="kity_text_209" text-rendering="inherit" font-size="12" dy=".8em" y="176.5" x="998.5">猪十六</text></g></g><g id="minder_node40"><g id="node_expander38" style="cursor: pointer;" display="none"><path id="kity_path_407" fill="white" stroke="gray" d="M988.5,234.5A6,6,0,1,1,976.5,234.5A6,6,0,1,1,988.5,234.5"></path><path id="kity_path_408" fill="none" stroke="gray"></path></g><path id="node_outline39" fill="none" stroke="none" d="M993.5,223.5h46a5,5,0,0,1,5,5v12a5,5,0,0,1,-5,5h-46a5,5,0,0,1,-5,-5v-12a5,5,0,0,1,5,-5z"></path><g id="node_text39" fill="black"><text id="kity_text_211" text-rendering="inherit" font-size="12" dy=".8em" y="228.5" x="998.5">刁小三</text></g></g><g id="minder_node41"><g id="node_expander39" style="cursor: pointer;" display="none"><path id="kity_path_410" fill="white" stroke="gray" d="M988.5,286.5A6,6,0,1,1,976.5,286.5A6,6,0,1,1,988.5,286.5"></path><path id="kity_path_411" fill="none" stroke="gray"></path></g><path id="node_outline40" fill="none" stroke="none" d="M993.5,275.5h166a5,5,0,0,1,5,5v12a5,5,0,0,1,-5,5h-166a5,5,0,0,1,-5,-5v-12a5,5,0,0,1,5,-5z"></path><g id="node_text40" fill="black"><text id="kity_text_213" text-rendering="inherit" font-size="12" dy=".8em" y="280.5" x="998.5">冰河里救儿童后沉入河底死了</text></g></g><g id="minder_node42"><g id="node_expander45" style="cursor: pointer;"><path id="kity_path_428" fill="white" stroke="gray" d="M988.5,338.5A6,6,0,1,1,976.5,338.5A6,6,0,1,1,988.5,338.5"></path><path id="kity_path_429" fill="none" stroke="gray" d="M978,338.5L987,338.5"></path></g><path id="node_outline46" fill="none" stroke="none" d="M993.5,327.5h53a5,5,0,0,1,5,5v12a5,5,0,0,1,-5,5h-53a5,5,0,0,1,-5,-5v-12a5,5,0,0,1,5,-5z"></path><g id="node_text46" fill="black"><text id="kity_text_225" text-rendering="inherit" font-size="12" dy=".8em" y="332.5" x="998.5">4狗精神</text></g></g><g id="minder_node43"><g id="node_expander40" style="cursor: pointer;" display="none"><path id="kity_path_413" fill="white" stroke="gray" d="M1028.5,390.5A6,6,0,1,1,1016.5,390.5A6,6,0,1,1,1028.5,390.5"></path><path id="kity_path_414" fill="none" stroke="gray"></path></g><path id="node_outline41" fill="none" stroke="none" d="M1033.5,379.5h46a5,5,0,0,1,5,5v12a5,5,0,0,1,-5,5h-46a5,5,0,0,1,-5,-5v-12a5,5,0,0,1,5,-5z"></path><g id="node_text41" fill="black"><text id="kity_text_215" text-rendering="inherit" font-size="12" dy=".8em" y="384.5" x="1038.5">狗小四</text></g></g><g id="minder_node44"><g id="node_expander41" style="cursor: pointer;" display="none"><path id="kity_path_416" fill="white" stroke="gray" d="M1028.5,442.5A6,6,0,1,1,1016.5,442.5A6,6,0,1,1,1028.5,442.5"></path><path id="kity_path_417" fill="none" stroke="gray"></path></g><path id="node_outline42" fill="none" stroke="none" d="M1033.5,431.5h118a5,5,0,0,1,5,5v12a5,5,0,0,1,-5,5h-118a5,5,0,0,1,-5,-5v-12a5,5,0,0,1,5,-5z"></path><g id="node_text42" fill="black"><text id="kity_text_217" text-rendering="inherit" font-size="12" dy=".8em" y="436.5" x="1038.5">蓝解放与庞春苗偷情</text></g></g><g id="minder_node45"><g id="node_expander42" style="cursor: pointer;" display="none"><path id="kity_path_419" fill="white" stroke="gray" d="M1028.5,494.5A6,6,0,1,1,1016.5,494.5A6,6,0,1,1,1028.5,494.5"></path><path id="kity_path_420" fill="none" stroke="gray"></path></g><path id="node_outline43" fill="none" stroke="none" d="M1033.5,483.5h214a5,5,0,0,1,5,5v12a5,5,0,0,1,-5,5h-214a5,5,0,0,1,-5,-5v-12a5,5,0,0,1,5,-5z"></path><g id="node_text43" fill="black"><text id="kity_text_219" text-rendering="inherit" font-size="12" dy=".8em" y="488.5" x="1038.5">狗小四闻味找到庞春苗，帮蓝开放吃屎</text></g></g><g id="minder_node46"><g id="node_expander43" style="cursor: pointer;" display="none"><path id="kity_path_422" fill="white" stroke="gray" d="M1028.5,546.5A6,6,0,1,1,1016.5,546.5A6,6,0,1,1,1028.5,546.5"></path><path id="kity_path_423" fill="none" stroke="gray"></path></g><path id="node_outline44" fill="none" stroke="none" d="M1033.5,535.5h526a5,5,0,0,1,5,5v12a5,5,0,0,1,-5,5h-526a5,5,0,0,1,-5,-5v-12a5,5,0,0,1,5,-5z"></path><g id="node_text44" fill="black"><text id="kity_text_221" text-rendering="inherit" font-size="12" dy=".8em" y="540.5" x="1038.5">迎春死，黄合作死，蓝脸死，狗小四死，庞春苗，庞抗美，庞虎和王乐云均埋在那一亩六分地里。</text></g></g><g id="minder_node47"><g id="node_expander44" style="cursor: pointer;" display="none"><path id="kity_path_425" fill="white" stroke="gray" d="M1028.5,598.5A6,6,0,1,1,1016.5,598.5A6,6,0,1,1,1028.5,598.5"></path><path id="kity_path_426" fill="none" stroke="gray"></path></g><path id="node_outline45" fill="none" stroke="none" d="M1033.5,587.5h178a5,5,0,0,1,5,5v12a5,5,0,0,1,-5,5h-178a5,5,0,0,1,-5,-5v-12a5,5,0,0,1,5,-5z"></path><g id="node_text45" fill="black"><text id="kity_text_223" text-rendering="inherit" font-size="12" dy=".8em" y="592.5" x="1038.5">一切来自土地的都将回归土地。</text></g></g><g id="minder_node48"><g id="node_expander52" style="cursor: pointer;"><path id="kity_path_449" fill="white" stroke="gray" d="M988.5,650.5A6,6,0,1,1,976.5,650.5A6,6,0,1,1,988.5,650.5"></path><path id="kity_path_450" fill="none" stroke="gray" d="M978,650.5L987,650.5"></path></g><path id="node_outline53" fill="none" stroke="none" d="M993.5,639.5h41a5,5,0,0,1,5,5v12a5,5,0,0,1,-5,5h-41a5,5,0,0,1,-5,-5v-12a5,5,0,0,1,5,-5z"></path><g id="node_text53" fill="black"><text id="kity_text_239" text-rendering="inherit" font-size="12" dy=".8em" y="644.5" x="998.5">5猴戏</text></g></g><g id="minder_node49"><g id="node_expander46" style="cursor: pointer;" display="none"><path id="kity_path_431" fill="white" stroke="gray" d="M1028.5,702.5A6,6,0,1,1,1016.5,702.5A6,6,0,1,1,1028.5,702.5"></path><path id="kity_path_432" fill="none" stroke="gray"></path></g><path id="node_outline47" fill="none" stroke="none" d="M1033.5,691.5h154a5,5,0,0,1,5,5v12a5,5,0,0,1,-5,5h-154a5,5,0,0,1,-5,-5v-12a5,5,0,0,1,5,-5z"></path><g id="node_text47" fill="black"><text id="kity_text_227" text-rendering="inherit" font-size="12" dy=".8em" y="696.5" x="1038.5">庞春苗怀孕后被车撞死了。</text></g></g><g id="minder_node50"><g id="node_expander47" style="cursor: pointer;" display="none"><path id="kity_path_434" fill="white" stroke="gray" d="M1028.5,754.5A6,6,0,1,1,1016.5,754.5A6,6,0,1,1,1028.5,754.5"></path><path id="kity_path_435" fill="none" stroke="gray"></path></g><path id="node_outline48" fill="none" stroke="none" d="M1033.5,743.5h322a5,5,0,0,1,5,5v12a5,5,0,0,1,-5,5h-322a5,5,0,0,1,-5,-5v-12a5,5,0,0,1,5,-5z"></path><g id="node_text48" fill="black"><text id="kity_text_229" text-rendering="inherit" font-size="12" dy=".8em" y="748.5" x="1038.5">蓝开放撮合，蓝解放和黄互助在一起，宝凤和常天红在一起</text></g></g><g id="minder_node51"><g id="node_expander48" style="cursor: pointer;" display="none"><path id="kity_path_437" fill="white" stroke="gray" d="M1028.5,806.5A6,6,0,1,1,1016.5,806.5A6,6,0,1,1,1028.5,806.5"></path><path id="kity_path_438" fill="none" stroke="gray"></path></g><path id="node_outline49" fill="none" stroke="none" d="M1033.5,795.5h289a5,5,0,0,1,5,5v12a5,5,0,0,1,-5,5h-289a5,5,0,0,1,-5,-5v-12a5,5,0,0,1,5,-5z"></path><g id="node_text49" fill="black"><text id="kity_text_231" text-rendering="inherit" font-size="12" dy=".8em" y="800.5" x="1038.5">西门欢和庞凤凰在街上表演 猴杂技，西门欢被刀捅死</text></g></g><g id="minder_node52"><g id="node_expander49" style="cursor: pointer;" display="none"><path id="kity_path_440" fill="white" stroke="gray" d="M1028.5,858.5A6,6,0,1,1,1016.5,858.5A6,6,0,1,1,1028.5,858.5"></path><path id="kity_path_441" fill="none" stroke="gray"></path></g><path id="node_outline50" fill="none" stroke="none" d="M1033.5,847.5h142a5,5,0,0,1,5,5v12a5,5,0,0,1,-5,5h-142a5,5,0,0,1,-5,-5v-12a5,5,0,0,1,5,-5z" stroke-width="3"></path><g id="node_text50" fill="black"><text id="kity_text_233" text-rendering="inherit" font-size="12" dy=".8em" y="852.5" x="1038.5">蓝开放和庞凤凰在一起。</text></g></g><g id="minder_node53"><g id="node_expander50" style="cursor: pointer;" display="none"><path id="kity_path_443" fill="white" stroke="gray" d="M1028.5,962.5A6,6,0,1,1,1016.5,962.5A6,6,0,1,1,1028.5,962.5"></path><path id="kity_path_444" fill="none" stroke="gray"></path></g><path id="node_outline51" fill="none" stroke="none" d="M1033.5,951.5h228a5,5,0,0,1,5,5v12a5,5,0,0,1,-5,5h-228a5,5,0,0,1,-5,-5v-12a5,5,0,0,1,5,-5z" stroke-width="3"></path><g id="node_text51" fill="black"><text id="kity_text_235" text-rendering="inherit" font-size="12" dy=".8em" y="956.5" x="1038.5">6 庞凤凰生下大头婴儿-蓝千岁，凤凰死去</text></g></g><g id="minder_node54"><g id="node_expander51" style="cursor: pointer;" display="none"><path id="kity_path_446" fill="white" stroke="gray" d="M1028.5,1014.5A6,6,0,1,1,1016.5,1014.5A6,6,0,1,1,1028.5,1014.5"></path><path id="kity_path_447" fill="none" stroke="gray"></path></g><path id="node_outline52" fill="none" stroke="none" d="M1033.5,1003.5h202a5,5,0,0,1,5,5v12a5,5,0,0,1,-5,5h-202a5,5,0,0,1,-5,-5v-12a5,5,0,0,1,5,-5z"></path><g id="node_text52" fill="black"><text id="kity_text_237" text-rendering="inherit" font-size="12" dy=".8em" y="1008.5" x="1038.5">再大的仇恨，时间一到，烟消云散。</text></g></g><g id="minder_node55"><g id="node_expander54" style="cursor: pointer;" display="none"><path id="kity_path_460" fill="white" stroke="gray" d="M1028.5,910.5A6,6,0,1,1,1016.5,910.5A6,6,0,1,1,1028.5,910.5"></path><path id="kity_path_461" fill="none" stroke="gray"></path></g><path id="node_outline55" fill="none" stroke="none" d="M1033.5,899.5h310a5,5,0,0,1,5,5v12a5,5,0,0,1,-5,5h-310a5,5,0,0,1,-5,-5v-12a5,5,0,0,1,5,-5z" stroke-width="3"></path><g id="node_text55" fill="black"><text id="kity_text_457" text-rendering="inherit" font-size="12" dy=".8em" y="904.5" x="1038.5">近亲同祖母迎春，知道近亲后，枪杀西门猴，开枪自杀。</text></g></g></g></g></svg>