<svg id="kity_svg_6" xmlns="http://www.w3.org/2000/svg" xmlns:xlink="http://www.w3.org/1999/xlink" version="1.1" width="2426" height="1045" style="background: rgb(251, 251, 251); visibility: visible;" viewBox="0 0 2426 1045"><defs id="kity_defs_7"><linearGradient id="kity_linearGradient_17" x1="0" y1="0" x2="0" y2="1"><stop id="kity_stop_18" offset="0" stop-color="rgb(255, 255, 255)"></stop><stop id="kity_stop_19" offset="1" stop-color="rgb(204, 204, 204)"></stop></linearGradient><marker id="kity_marker_2" orient="auto" refX="6" refY="0" viewBox="-7 -7 14 14" markerWidth="7" markerHeight="7" markerUnits="userSpaceOnUse"><path id="kity_path_3" fill="rgb(115, 161, 191)" stroke="none" d="M6,0A6,6,0,1,1,-6,0A6,6,0,1,1,6,0"></path></marker><marker id="kity_marker_4" orient="auto" refX="6" refY="0" viewBox="-7 -7 14 14" markerWidth="7" markerHeight="7" markerUnits="userSpaceOnUse"><path id="kity_path_5" fill="rgb(115, 161, 191)" stroke="none" d="M6,0A6,6,0,1,1,-6,0A6,6,0,1,1,6,0"></path></marker></defs><g id="kity_g_8"><g id="minder1" text-rendering="optimize-speed"><g id="minder_connect_group1"><path id="kity_path_31" fill="none" stroke="rgb(115, 191, 118)" stroke-width="1" d="M1006.5,60.5v30h-937.5V110.5"></path><path id="kity_path_33" fill="none" stroke="rgb(115, 191, 118)" stroke-width="1" d="M40.5,136.5V182.5L60.5,182.5"></path><path id="kity_path_35" fill="none" stroke="rgb(115, 191, 118)" stroke-width="1" d="M40.5,136.5V234.5L60.5,234.5"></path><path id="kity_path_37" fill="none" stroke="rgb(115, 191, 118)" stroke-width="1" d="M80.5,245.5V286.5L100.5,286.5"></path><path id="kity_path_39" fill="none" stroke="rgb(115, 191, 118)" stroke-width="1" d="M80.5,245.5V338.5L100.5,338.5"></path><path id="kity_path_41" fill="none" stroke="rgb(115, 191, 118)" stroke-width="1" d="M80.5,245.5V390.5L100.5,390.5"></path><path id="kity_path_43" fill="none" stroke="rgb(115, 191, 118)" stroke-width="1" d="M120.5,401.5V442.5L140.5,442.5"></path><path id="kity_path_45" fill="none" stroke="rgb(115, 191, 118)" stroke-width="1" d="M120.5,401.5V494.5L140.5,494.5"></path><path id="kity_path_47" fill="none" stroke="rgb(115, 191, 118)" stroke-width="1" d="M120.5,401.5V546.5L140.5,546.5"></path><path id="kity_path_49" fill="none" stroke="rgb(115, 191, 118)" stroke-width="1" d="M160.5,557.5V598.5L180.5,598.5"></path><path id="kity_path_51" fill="none" stroke="rgb(115, 191, 118)" stroke-width="1" d="M160.5,557.5V650.5L180.5,650.5"></path><path id="kity_path_53" fill="none" stroke="rgb(115, 191, 118)" stroke-width="1" d="M160.5,557.5V702.5L180.5,702.5"></path><path id="kity_path_55" fill="none" stroke="rgb(115, 191, 118)" stroke-width="1" d="M160.5,557.5V754.5L180.5,754.5"></path><path id="kity_path_57" fill="none" stroke="rgb(115, 191, 118)" stroke-width="1" d="M120.5,401.5V806.5L140.5,806.5"></path><path id="kity_path_59" fill="none" stroke="rgb(115, 191, 118)" stroke-width="1" d="M40.5,136.5V858.5L60.5,858.5"></path><path id="kity_path_61" fill="none" stroke="rgb(115, 191, 118)" stroke-width="1" d="M1006.5,60.5v30h-166.5V110.5"></path><path id="kity_path_63" fill="none" stroke="rgb(115, 191, 118)" stroke-width="1" d="M776.5,136.5V182.5L796.5,182.5"></path><path id="kity_path_65" fill="none" stroke="rgb(115, 191, 118)" stroke-width="1" d="M816.5,193.5V234.5L836.5,234.5"></path><path id="kity_path_67" fill="none" stroke="rgb(115, 191, 118)" stroke-width="1" d="M816.5,193.5V286.5L836.5,286.5"></path><path id="kity_path_69" fill="none" stroke="rgb(115, 191, 118)" stroke-width="1" d="M816.5,193.5V338.5L836.5,338.5"></path><path id="kity_path_71" fill="none" stroke="rgb(115, 191, 118)" stroke-width="1" d="M776.5,136.5V390.5L796.5,390.5"></path><path id="kity_path_73" fill="none" stroke="rgb(115, 191, 118)" stroke-width="1" d="M816.5,401.5V442.5L836.5,442.5"></path><path id="kity_path_75" fill="none" stroke="rgb(115, 191, 118)" stroke-width="1" d="M816.5,401.5V494.5L836.5,494.5"></path><path id="kity_path_77" fill="none" stroke="rgb(115, 191, 118)" stroke-width="1" d="M816.5,401.5V546.5L836.5,546.5"></path><path id="kity_path_79" fill="none" stroke="rgb(115, 191, 118)" stroke-width="1" d="M776.5,136.5V598.5L796.5,598.5"></path><path id="kity_path_81" fill="none" stroke="rgb(115, 191, 118)" stroke-width="1" d="M816.5,609.5V650.5L836.5,650.5"></path><path id="kity_path_83" fill="none" stroke="rgb(115, 191, 118)" stroke-width="1" d="M816.5,609.5V702.5L836.5,702.5"></path><path id="kity_path_85" fill="none" stroke="rgb(115, 191, 118)" stroke-width="1" d="M816.5,609.5V754.5L836.5,754.5"></path><path id="kity_path_87" fill="none" stroke="rgb(115, 191, 118)" stroke-width="1" d="M776.5,136.5V806.5L796.5,806.5"></path><path id="kity_path_89" fill="none" stroke="rgb(115, 191, 118)" stroke-width="1" d="M816.5,817.5V858.5L836.5,858.5"></path><path id="kity_path_91" fill="none" stroke="rgb(115, 191, 118)" stroke-width="1" d="M816.5,817.5V910.5L836.5,910.5"></path><path id="kity_path_93" fill="none" stroke="rgb(115, 191, 118)" stroke-width="1" d="M816.5,817.5V962.5L836.5,962.5"></path><path id="kity_path_95" fill="none" stroke="rgb(115, 191, 118)" stroke-width="1" d="M816.5,817.5V1014.5L836.5,1014.5"></path><path id="kity_path_97" fill="none" stroke="rgb(115, 191, 118)" stroke-width="1" d="M1006.5,60.5v30h18.5V110.5"></path><path id="kity_path_99" fill="none" stroke="rgb(115, 191, 118)" stroke-width="1" d="M982.5,136.5V182.5L1002.5,182.5"></path><path id="kity_path_101" fill="none" stroke="rgb(115, 191, 118)" stroke-width="1" d="M982.5,136.5V234.5L1002.5,234.5"></path><path id="kity_path_103" fill="none" stroke="rgb(115, 191, 118)" stroke-width="1" d="M1022.5,245.5V286.5L1042.5,286.5"></path><path id="kity_path_105" fill="none" stroke="rgb(115, 191, 118)" stroke-width="1" d="M1022.5,245.5V338.5L1042.5,338.5"></path><path id="kity_path_107" fill="none" stroke="rgb(115, 191, 118)" stroke-width="1" d="M1022.5,245.5V390.5L1042.5,390.5"></path><path id="kity_path_109" fill="none" stroke="rgb(115, 191, 118)" stroke-width="1" d="M1022.5,245.5V442.5L1042.5,442.5"></path><path id="kity_path_111" fill="none" stroke="rgb(115, 191, 118)" stroke-width="1" d="M1022.5,245.5V494.5L1042.5,494.5"></path><path id="kity_path_113" fill="none" stroke="rgb(115, 191, 118)" stroke-width="1" d="M1022.5,245.5V546.5L1042.5,546.5"></path><path id="kity_path_115" fill="none" stroke="rgb(115, 191, 118)" stroke-width="1" d="M1022.5,245.5V598.5L1042.5,598.5"></path><path id="kity_path_117" fill="none" stroke="rgb(115, 191, 118)" stroke-width="1" d="M1022.5,245.5V650.5L1042.5,650.5"></path><path id="kity_path_119" fill="none" stroke="rgb(115, 191, 118)" stroke-width="1" d="M1022.5,245.5V702.5L1042.5,702.5"></path><path id="kity_path_121" fill="none" stroke="rgb(115, 191, 118)" stroke-width="1" d="M982.5,136.5V754.5L1002.5,754.5"></path><path id="kity_path_123" fill="none" stroke="rgb(115, 191, 118)" stroke-width="1" d="M1022.5,765.5V806.5L1042.5,806.5"></path><path id="kity_path_125" fill="none" stroke="rgb(115, 191, 118)" stroke-width="1" d="M1022.5,765.5V858.5L1042.5,858.5"></path><path id="kity_path_127" fill="none" stroke="rgb(115, 191, 118)" stroke-width="1" d="M1022.5,765.5V910.5L1042.5,910.5"></path><path id="kity_path_129" fill="none" stroke="rgb(115, 191, 118)" stroke-width="1" d="M1022.5,765.5V962.5L1042.5,962.5"></path><path id="kity_path_131" fill="none" stroke="rgb(115, 191, 118)" stroke-width="1" d="M1022.5,765.5V1014.5L1042.5,1014.5"></path><path id="kity_path_133" fill="none" stroke="rgb(115, 191, 118)" stroke-width="1" d="M1006.5,60.5v30h331.5V110.5"></path><path id="kity_path_135" fill="none" stroke="rgb(115, 191, 118)" stroke-width="1" d="M1302.5,136.5V182.5L1322.5,182.5"></path><path id="kity_path_137" fill="none" stroke="rgb(115, 191, 118)" stroke-width="1" d="M1006.5,60.5v30h903.5V110.5"></path><path id="kity_path_139" fill="none" stroke="rgb(115, 191, 118)" stroke-width="1" d="M1846.5,136.5V182.5L1866.5,182.5"></path><path id="kity_path_141" fill="none" stroke="rgb(115, 191, 118)" stroke-width="1" d="M1886.5,193.5V234.5L1906.5,234.5"></path><path id="kity_path_143" fill="none" stroke="rgb(115, 191, 118)" stroke-width="1" d="M1886.5,193.5V286.5L1906.5,286.5"></path><path id="kity_path_145" fill="none" stroke="rgb(115, 191, 118)" stroke-width="1" d="M1846.5,136.5V338.5L1866.5,338.5"></path><path id="kity_path_147" fill="none" stroke="rgb(115, 191, 118)" stroke-width="1" d="M1886.5,349.5V390.5L1906.5,390.5"></path><path id="kity_path_149" fill="none" stroke="rgb(115, 191, 118)" stroke-width="1" d="M1886.5,349.5V442.5L1906.5,442.5"></path><path id="kity_path_151" fill="none" stroke="rgb(115, 191, 118)" stroke-width="1" d="M1886.5,349.5V494.5L1906.5,494.5"></path><path id="kity_path_153" fill="none" stroke="rgb(115, 191, 118)" stroke-width="1" d="M1846.5,136.5V546.5L1866.5,546.5"></path><path id="kity_path_155" fill="none" stroke="rgb(115, 191, 118)" stroke-width="1" d="M1886.5,557.5V598.5L1906.5,598.5"></path></g><g id="minder_node1"><path id="node_outline1" fill="rgb(115, 191, 118)" stroke="rgb(115, 191, 118)" d="M920.5,20.5h171a5,5,0,0,1,5,5v30a5,5,0,0,1,-5,5h-171a5,5,0,0,1,-5,-5v-30a5,5,0,0,1,5,-5z" stroke-width="3"></path><g id="node_text1" fill="white"><text id="kity_text_22" text-rendering="inherit" font-size="16" dy=".8em" y="32.5" x="939.5">积极心理学-彭凯平 </text></g></g><g id="kity_g_12"><path id="kity_path_13" fill="none" stroke="none" d="M939.5,40.5h0v0h0z"></path></g><g id="kity_g_14"><path id="kity_path_15" fill="none" stroke="none" d="M939.5,40.5h0v0h0z"></path><path id="kity_path_16" fill="none" stroke="none"></path></g><g id="minder_node2"><g id="node_expander15" style="cursor: pointer;"><path id="kity_path_388" fill="white" stroke="gray" d="M74.5,103.5A6,6,0,1,1,62.5,103.5A6,6,0,1,1,74.5,103.5"></path><path id="kity_path_389" fill="none" stroke="gray" d="M64,103.5L73,103.5"></path></g><path id="node_outline16" fill="rgb(238, 246, 238)" stroke="rgb(115, 191, 118)" d="M23.5,110.5h90a3,3,0,0,1,3,3v20a3,3,0,0,1,-3,3h-90a3,3,0,0,1,-3,-3v-20a3,3,0,0,1,3,-3z" stroke-width="1"></path><g id="node_text16" fill="black"><text id="kity_text_185" text-rendering="inherit" font-size="14" dy=".8em" y="116.5" x="40.5">心理韧性</text></g></g><g id="minder_node3"><g id="node_expander1" style="cursor: pointer;" display="none"><path id="kity_path_346" fill="white" stroke="gray" d="M60.5,182.5A6,6,0,1,1,48.5,182.5A6,6,0,1,1,60.5,182.5"></path><path id="kity_path_347" fill="none" stroke="gray"></path></g><path id="node_outline2" fill="none" stroke="none" d="M65.5,171.5h58a5,5,0,0,1,5,5v12a5,5,0,0,1,-5,5h-58a5,5,0,0,1,-5,-5v-12a5,5,0,0,1,5,-5z"></path><g id="node_text2" fill="black"><text id="kity_text_157" text-rendering="inherit" font-size="12" dy=".8em" y="176.5" x="70.5">厚德载物</text></g></g><g id="minder_node4"><g id="node_expander13" style="cursor: pointer;"><path id="kity_path_382" fill="white" stroke="gray" d="M60.5,234.5A6,6,0,1,1,48.5,234.5A6,6,0,1,1,60.5,234.5"></path><path id="kity_path_383" fill="none" stroke="gray" d="M50,234.5L59,234.5"></path></g><path id="node_outline14" fill="none" stroke="none" d="M65.5,223.5h106a5,5,0,0,1,5,5v12a5,5,0,0,1,-5,5h-106a5,5,0,0,1,-5,-5v-12a5,5,0,0,1,5,-5z"></path><g id="node_text14" fill="black"><text id="kity_text_181" text-rendering="inherit" font-size="12" dy=".8em" y="228.5" x="70.5">对压力的应激反应</text></g></g><g id="minder_node5"><g id="node_expander2" style="cursor: pointer;" display="none"><path id="kity_path_349" fill="white" stroke="gray" d="M100.5,286.5A6,6,0,1,1,88.5,286.5A6,6,0,1,1,100.5,286.5"></path><path id="kity_path_350" fill="none" stroke="gray"></path></g><path id="node_outline3" fill="none" stroke="none" d="M105.5,275.5h169a5,5,0,0,1,5,5v12a5,5,0,0,1,-5,5h-169a5,5,0,0,1,-5,-5v-12a5,5,0,0,1,5,-5z"></path><g id="node_text3" fill="black"><text id="kity_text_159" text-rendering="inherit" font-size="12" dy=".8em" y="280.5" x="110.5">焦虑，抑郁，暴躁，丧，emo</text></g></g><g id="minder_node6"><g id="node_expander3" style="cursor: pointer;" display="none"><path id="kity_path_352" fill="white" stroke="gray" d="M100.5,338.5A6,6,0,1,1,88.5,338.5A6,6,0,1,1,100.5,338.5"></path><path id="kity_path_353" fill="none" stroke="gray"></path></g><path id="node_outline4" fill="none" stroke="none" d="M105.5,327.5h130a5,5,0,0,1,5,5v12a5,5,0,0,1,-5,5h-130a5,5,0,0,1,-5,-5v-12a5,5,0,0,1,5,-5z"></path><g id="node_text4" fill="black"><text id="kity_text_161" text-rendering="inherit" font-size="12" dy=".8em" y="332.5" x="110.5">腹泻，失眠，食欲变化</text></g></g><g id="minder_node7"><g id="node_expander12" style="cursor: pointer;"><path id="kity_path_379" fill="white" stroke="gray" d="M100.5,390.5A6,6,0,1,1,88.5,390.5A6,6,0,1,1,100.5,390.5"></path><path id="kity_path_380" fill="none" stroke="gray" d="M90,390.5L99,390.5"></path></g><path id="node_outline13" fill="none" stroke="none" d="M105.5,379.5h157a5,5,0,0,1,5,5v12a5,5,0,0,1,-5,5h-157a5,5,0,0,1,-5,-5v-12a5,5,0,0,1,5,-5z"></path><g id="node_text13" fill="black"><text id="kity_text_179" text-rendering="inherit" font-size="12" dy=".8em" y="384.5" x="110.5">如何解决： 白熊效应的启示</text></g></g><g id="minder_node8"><g id="node_expander4" style="cursor: pointer;" display="none"><path id="kity_path_355" fill="white" stroke="gray" d="M140.5,442.5A6,6,0,1,1,128.5,442.5A6,6,0,1,1,140.5,442.5"></path><path id="kity_path_356" fill="none" stroke="gray"></path></g><path id="node_outline5" fill="none" stroke="none" d="M145.5,431.5h238a5,5,0,0,1,5,5v12a5,5,0,0,1,-5,5h-238a5,5,0,0,1,-5,-5v-12a5,5,0,0,1,5,-5z"></path><g id="node_text5" fill="black"><text id="kity_text_163" text-rendering="inherit" font-size="12" dy=".8em" y="436.5" x="150.5">逃避会导致这些症状以更加负面的方式回归</text></g></g><g id="minder_node9"><g id="node_expander5" style="cursor: pointer;" display="none"><path id="kity_path_358" fill="white" stroke="gray" d="M140.5,494.5A6,6,0,1,1,128.5,494.5A6,6,0,1,1,140.5,494.5"></path><path id="kity_path_359" fill="none" stroke="gray"></path></g><path id="node_outline6" fill="none" stroke="none" d="M145.5,483.5h274a5,5,0,0,1,5,5v12a5,5,0,0,1,-5,5h-274a5,5,0,0,1,-5,-5v-12a5,5,0,0,1,5,-5z"></path><g id="node_text6" fill="black"><text id="kity_text_165" text-rendering="inherit" font-size="12" dy=".8em" y="488.5" x="150.5">越想忘掉越是忘不掉。想别的其他动物来转移注意</text></g></g><g id="minder_node10"><g id="node_expander10" style="cursor: pointer;"><path id="kity_path_373" fill="white" stroke="gray" d="M140.5,546.5A6,6,0,1,1,128.5,546.5A6,6,0,1,1,140.5,546.5"></path><path id="kity_path_374" fill="none" stroke="gray" d="M130,546.5L139,546.5"></path></g><path id="node_outline11" fill="none" stroke="none" d="M145.5,535.5h286a5,5,0,0,1,5,5v12a5,5,0,0,1,-5,5h-286a5,5,0,0,1,-5,-5v-12a5,5,0,0,1,5,-5z"></path><g id="node_text11" fill="black"><text id="kity_text_175" text-rendering="inherit" font-size="12" dy=".8em" y="540.5" x="150.5">忽略坏事的后果比忽视好事更严重，我们有负面偏差</text></g></g><g id="minder_node11"><g id="node_expander6" style="cursor: pointer;" display="none"><path id="kity_path_361" fill="white" stroke="gray" d="M180.5,598.5A6,6,0,1,1,168.5,598.5A6,6,0,1,1,180.5,598.5"></path><path id="kity_path_362" fill="none" stroke="gray"></path></g><path id="node_outline7" fill="none" stroke="none" d="M185.5,587.5h106a5,5,0,0,1,5,5v12a5,5,0,0,1,-5,5h-106a5,5,0,0,1,-5,-5v-12a5,5,0,0,1,5,-5z"></path><g id="node_text7" fill="black"><text id="kity_text_167" text-rendering="inherit" font-size="12" dy=".8em" y="592.5" x="190.5">负面信息加工优势</text></g></g><g id="minder_node12"><g id="node_expander7" style="cursor: pointer;" display="none"><path id="kity_path_364" fill="white" stroke="gray" d="M180.5,650.5A6,6,0,1,1,168.5,650.5A6,6,0,1,1,180.5,650.5"></path><path id="kity_path_365" fill="none" stroke="gray"></path></g><path id="node_outline8" fill="none" stroke="none" d="M185.5,639.5h154a5,5,0,0,1,5,5v12a5,5,0,0,1,-5,5h-154a5,5,0,0,1,-5,-5v-12a5,5,0,0,1,5,-5z"></path><g id="node_text8" fill="black"><text id="kity_text_169" text-rendering="inherit" font-size="12" dy=".8em" y="644.5" x="190.5">坏事比好事对人的影响更大</text></g></g><g id="minder_node13"><g id="node_expander8" style="cursor: pointer;" display="none"><path id="kity_path_367" fill="white" stroke="gray" d="M180.5,702.5A6,6,0,1,1,168.5,702.5A6,6,0,1,1,180.5,702.5"></path><path id="kity_path_368" fill="none" stroke="gray"></path></g><path id="node_outline9" fill="none" stroke="none" d="M185.5,691.5h250a5,5,0,0,1,5,5v12a5,5,0,0,1,-5,5h-250a5,5,0,0,1,-5,-5v-12a5,5,0,0,1,5,-5z"></path><g id="node_text9" fill="black"><text id="kity_text_171" text-rendering="inherit" font-size="12" dy=".8em" y="696.5" x="190.5">坏印象比好印象更加容易形成（晚节不保？）</text></g></g><g id="minder_node14"><g id="node_expander9" style="cursor: pointer;" display="none"><path id="kity_path_370" fill="white" stroke="gray" d="M180.5,754.5A6,6,0,1,1,168.5,754.5A6,6,0,1,1,180.5,754.5"></path><path id="kity_path_371" fill="none" stroke="gray"></path></g><path id="node_outline10" fill="none" stroke="none" d="M185.5,743.5h354a5,5,0,0,1,5,5v12a5,5,0,0,1,-5,5h-354a5,5,0,0,1,-5,-5v-12a5,5,0,0,1,5,-5z"></path><g id="node_text10" fill="black"><text id="kity_text_173" text-rendering="inherit" font-size="12" dy=".8em" y="748.5" x="190.5">幸福的家庭都是相似的，不幸的家庭各有各的不幸--列夫托尔斯泰</text></g></g><g id="minder_node15"><g id="node_expander11" style="cursor: pointer;" display="none"><path id="kity_path_376" fill="white" stroke="gray" d="M140.5,806.5A6,6,0,1,1,128.5,806.5A6,6,0,1,1,140.5,806.5"></path><path id="kity_path_377" fill="none" stroke="gray"></path></g><path id="node_outline12" fill="none" stroke="none" d="M145.5,795.5h262a5,5,0,0,1,5,5v12a5,5,0,0,1,-5,5h-262a5,5,0,0,1,-5,-5v-12a5,5,0,0,1,5,-5z"></path><g id="node_text12" fill="black"><text id="kity_text_177" text-rendering="inherit" font-size="12" dy=".8em" y="800.5" x="150.5">用积极的心理来转移，替代和升华反而更加有效</text></g></g><g id="minder_node16"><g id="node_expander14" style="cursor: pointer;" display="none"><path id="kity_path_385" fill="white" stroke="gray" d="M60.5,858.5A6,6,0,1,1,48.5,858.5A6,6,0,1,1,60.5,858.5"></path><path id="kity_path_386" fill="none" stroke="gray"></path></g><path id="node_outline15" fill="none" stroke="none" d="M65.5,847.5h646a5,5,0,0,1,5,5v12a5,5,0,0,1,-5,5h-646a5,5,0,0,1,-5,-5v-12a5,5,0,0,1,5,-5z"></path><g id="node_text15" fill="black"><text id="kity_text_183" text-rendering="inherit" font-size="12" dy=".8em" y="852.5" x="70.5">进化心理学发现：消极心态是我们进化选择出来的本能，能让我们活下去。积极心态是一种理性的选择，让我们活得更好</text></g></g><g id="minder_node17"><g id="node_expander33" style="cursor: pointer;"><path id="kity_path_442" fill="white" stroke="gray" d="M845.5,103.5A6,6,0,1,1,833.5,103.5A6,6,0,1,1,845.5,103.5"></path><path id="kity_path_443" fill="none" stroke="gray" d="M835,103.5L844,103.5"></path></g><path id="node_outline34" fill="rgb(238, 246, 238)" stroke="rgb(115, 191, 118)" d="M759.5,110.5h160a3,3,0,0,1,3,3v20a3,3,0,0,1,-3,3h-160a3,3,0,0,1,-3,-3v-20a3,3,0,0,1,3,-3z" stroke-width="1"></path><g id="node_text34" fill="black"><text id="kity_text_221" text-rendering="inherit" font-size="14" dy=".8em" y="116.5" x="776.5">积极心态的进化优势</text></g></g><g id="minder_node18"><g id="node_expander19" style="cursor: pointer;"><path id="kity_path_400" fill="white" stroke="gray" d="M796.5,182.5A6,6,0,1,1,784.5,182.5A6,6,0,1,1,796.5,182.5"></path><path id="kity_path_401" fill="none" stroke="gray" d="M786,182.5L795,182.5"></path></g><path id="node_outline20" fill="none" stroke="none" d="M801.5,171.5h34a5,5,0,0,1,5,5v12a5,5,0,0,1,-5,5h-34a5,5,0,0,1,-5,-5v-12a5,5,0,0,1,5,-5z"></path><g id="node_text20" fill="black"><text id="kity_text_193" text-rendering="inherit" font-size="12" dy=".8em" y="176.5" x="806.5">生理</text></g></g><g id="minder_node19"><g id="node_expander16" style="cursor: pointer;" display="none"><path id="kity_path_391" fill="white" stroke="gray" d="M836.5,234.5A6,6,0,1,1,824.5,234.5A6,6,0,1,1,836.5,234.5"></path><path id="kity_path_392" fill="none" stroke="gray"></path></g><path id="node_outline17" fill="none" stroke="none" d="M841.5,223.5h58a5,5,0,0,1,5,5v12a5,5,0,0,1,-5,5h-58a5,5,0,0,1,-5,-5v-12a5,5,0,0,1,5,-5z"></path><g id="node_text17" fill="black"><text id="kity_text_187" text-rendering="inherit" font-size="12" dy=".8em" y="228.5" x="846.5">身体健康</text></g></g><g id="minder_node20"><g id="node_expander17" style="cursor: pointer;" display="none"><path id="kity_path_394" fill="white" stroke="gray" d="M836.5,286.5A6,6,0,1,1,824.5,286.5A6,6,0,1,1,836.5,286.5"></path><path id="kity_path_395" fill="none" stroke="gray"></path></g><path id="node_outline18" fill="none" stroke="none" d="M841.5,275.5h58a5,5,0,0,1,5,5v12a5,5,0,0,1,-5,5h-58a5,5,0,0,1,-5,-5v-12a5,5,0,0,1,5,-5z"></path><g id="node_text18" fill="black"><text id="kity_text_189" text-rendering="inherit" font-size="12" dy=".8em" y="280.5" x="846.5">喜爱锻炼</text></g></g><g id="minder_node21"><g id="node_expander18" style="cursor: pointer;" display="none"><path id="kity_path_397" fill="white" stroke="gray" d="M836.5,338.5A6,6,0,1,1,824.5,338.5A6,6,0,1,1,836.5,338.5"></path><path id="kity_path_398" fill="none" stroke="gray"></path></g><path id="node_outline19" fill="none" stroke="none" d="M841.5,327.5h58a5,5,0,0,1,5,5v12a5,5,0,0,1,-5,5h-58a5,5,0,0,1,-5,-5v-12a5,5,0,0,1,5,-5z"></path><g id="node_text19" fill="black"><text id="kity_text_191" text-rendering="inherit" font-size="12" dy=".8em" y="332.5" x="846.5">充满活力</text></g></g><g id="minder_node22"><g id="node_expander23" style="cursor: pointer;"><path id="kity_path_412" fill="white" stroke="gray" d="M796.5,390.5A6,6,0,1,1,784.5,390.5A6,6,0,1,1,796.5,390.5"></path><path id="kity_path_413" fill="none" stroke="gray" d="M786,390.5L795,390.5"></path></g><path id="node_outline24" fill="none" stroke="none" d="M801.5,379.5h34a5,5,0,0,1,5,5v12a5,5,0,0,1,-5,5h-34a5,5,0,0,1,-5,-5v-12a5,5,0,0,1,5,-5z"></path><g id="node_text24" fill="black"><text id="kity_text_201" text-rendering="inherit" font-size="12" dy=".8em" y="384.5" x="806.5">智力</text></g></g><g id="minder_node23"><g id="node_expander20" style="cursor: pointer;" display="none"><path id="kity_path_403" fill="white" stroke="gray" d="M836.5,442.5A6,6,0,1,1,824.5,442.5A6,6,0,1,1,836.5,442.5"></path><path id="kity_path_404" fill="none" stroke="gray"></path></g><path id="node_outline21" fill="none" stroke="none" d="M841.5,431.5h58a5,5,0,0,1,5,5v12a5,5,0,0,1,-5,5h-58a5,5,0,0,1,-5,-5v-12a5,5,0,0,1,5,-5z"></path><g id="node_text21" fill="black"><text id="kity_text_195" text-rendering="inherit" font-size="12" dy=".8em" y="436.5" x="846.5">学习探索</text></g></g><g id="minder_node24"><g id="node_expander21" style="cursor: pointer;" display="none"><path id="kity_path_406" fill="white" stroke="gray" d="M836.5,494.5A6,6,0,1,1,824.5,494.5A6,6,0,1,1,836.5,494.5"></path><path id="kity_path_407" fill="none" stroke="gray"></path></g><path id="node_outline22" fill="none" stroke="none" d="M841.5,483.5h58a5,5,0,0,1,5,5v12a5,5,0,0,1,-5,5h-58a5,5,0,0,1,-5,-5v-12a5,5,0,0,1,5,-5z"></path><g id="node_text22" fill="black"><text id="kity_text_197" text-rendering="inherit" font-size="12" dy=".8em" y="488.5" x="846.5">解决问题</text></g></g><g id="minder_node25"><g id="node_expander22" style="cursor: pointer;" display="none"><path id="kity_path_409" fill="white" stroke="gray" d="M836.5,546.5A6,6,0,1,1,824.5,546.5A6,6,0,1,1,836.5,546.5"></path><path id="kity_path_410" fill="none" stroke="gray"></path></g><path id="node_outline23" fill="none" stroke="none" d="M841.5,535.5h58a5,5,0,0,1,5,5v12a5,5,0,0,1,-5,5h-58a5,5,0,0,1,-5,-5v-12a5,5,0,0,1,5,-5z"></path><g id="node_text23" fill="black"><text id="kity_text_199" text-rendering="inherit" font-size="12" dy=".8em" y="540.5" x="846.5">创造想象</text></g></g><g id="minder_node26"><g id="node_expander27" style="cursor: pointer;"><path id="kity_path_424" fill="white" stroke="gray" d="M796.5,598.5A6,6,0,1,1,784.5,598.5A6,6,0,1,1,796.5,598.5"></path><path id="kity_path_425" fill="none" stroke="gray" d="M786,598.5L795,598.5"></path></g><path id="node_outline28" fill="none" stroke="none" d="M801.5,587.5h34a5,5,0,0,1,5,5v12a5,5,0,0,1,-5,5h-34a5,5,0,0,1,-5,-5v-12a5,5,0,0,1,5,-5z"></path><g id="node_text28" fill="black"><text id="kity_text_209" text-rendering="inherit" font-size="12" dy=".8em" y="592.5" x="806.5">社会</text></g></g><g id="minder_node27"><g id="node_expander24" style="cursor: pointer;" display="none"><path id="kity_path_415" fill="white" stroke="gray" d="M836.5,650.5A6,6,0,1,1,824.5,650.5A6,6,0,1,1,836.5,650.5"></path><path id="kity_path_416" fill="none" stroke="gray"></path></g><path id="node_outline25" fill="none" stroke="none" d="M841.5,639.5h58a5,5,0,0,1,5,5v12a5,5,0,0,1,-5,5h-58a5,5,0,0,1,-5,-5v-12a5,5,0,0,1,5,-5z"></path><g id="node_text25" fill="black"><text id="kity_text_203" text-rendering="inherit" font-size="12" dy=".8em" y="644.5" x="846.5">人际关系</text></g></g><g id="minder_node28"><g id="node_expander25" style="cursor: pointer;" display="none"><path id="kity_path_418" fill="white" stroke="gray" d="M836.5,702.5A6,6,0,1,1,824.5,702.5A6,6,0,1,1,836.5,702.5"></path><path id="kity_path_419" fill="none" stroke="gray"></path></g><path id="node_outline26" fill="none" stroke="none" d="M841.5,691.5h58a5,5,0,0,1,5,5v12a5,5,0,0,1,-5,5h-58a5,5,0,0,1,-5,-5v-12a5,5,0,0,1,5,-5z"></path><g id="node_text26" fill="black"><text id="kity_text_205" text-rendering="inherit" font-size="12" dy=".8em" y="696.5" x="846.5">团队精神</text></g></g><g id="minder_node29"><g id="node_expander26" style="cursor: pointer;" display="none"><path id="kity_path_421" fill="white" stroke="gray" d="M836.5,754.5A6,6,0,1,1,824.5,754.5A6,6,0,1,1,836.5,754.5"></path><path id="kity_path_422" fill="none" stroke="gray"></path></g><path id="node_outline27" fill="none" stroke="none" d="M841.5,743.5h58a5,5,0,0,1,5,5v12a5,5,0,0,1,-5,5h-58a5,5,0,0,1,-5,-5v-12a5,5,0,0,1,5,-5z"></path><g id="node_text27" fill="black"><text id="kity_text_207" text-rendering="inherit" font-size="12" dy=".8em" y="748.5" x="846.5">道德意识</text></g></g><g id="minder_node30"><g id="node_expander32" style="cursor: pointer;"><path id="kity_path_439" fill="white" stroke="gray" d="M796.5,806.5A6,6,0,1,1,784.5,806.5A6,6,0,1,1,796.5,806.5"></path><path id="kity_path_440" fill="none" stroke="gray" d="M786,806.5L795,806.5"></path></g><path id="node_outline33" fill="none" stroke="none" d="M801.5,795.5h34a5,5,0,0,1,5,5v12a5,5,0,0,1,-5,5h-34a5,5,0,0,1,-5,-5v-12a5,5,0,0,1,5,-5z"></path><g id="node_text33" fill="black"><text id="kity_text_219" text-rendering="inherit" font-size="12" dy=".8em" y="800.5" x="806.5">心理</text></g></g><g id="minder_node31"><g id="node_expander28" style="cursor: pointer;" display="none"><path id="kity_path_427" fill="white" stroke="gray" d="M836.5,858.5A6,6,0,1,1,824.5,858.5A6,6,0,1,1,836.5,858.5"></path><path id="kity_path_428" fill="none" stroke="gray"></path></g><path id="node_outline29" fill="none" stroke="none" d="M841.5,847.5h58a5,5,0,0,1,5,5v12a5,5,0,0,1,-5,5h-58a5,5,0,0,1,-5,-5v-12a5,5,0,0,1,5,-5z"></path><g id="node_text29" fill="black"><text id="kity_text_211" text-rendering="inherit" font-size="12" dy=".8em" y="852.5" x="846.5">坚韧不拔</text></g></g><g id="minder_node32"><g id="node_expander29" style="cursor: pointer;" display="none"><path id="kity_path_430" fill="white" stroke="gray" d="M836.5,910.5A6,6,0,1,1,824.5,910.5A6,6,0,1,1,836.5,910.5"></path><path id="kity_path_431" fill="none" stroke="gray"></path></g><path id="node_outline30" fill="none" stroke="none" d="M841.5,899.5h58a5,5,0,0,1,5,5v12a5,5,0,0,1,-5,5h-58a5,5,0,0,1,-5,-5v-12a5,5,0,0,1,5,-5z"></path><g id="node_text30" fill="black"><text id="kity_text_213" text-rendering="inherit" font-size="12" dy=".8em" y="904.5" x="846.5">乐观主义</text></g></g><g id="minder_node33"><g id="node_expander30" style="cursor: pointer;" display="none"><path id="kity_path_433" fill="white" stroke="gray" d="M836.5,962.5A6,6,0,1,1,824.5,962.5A6,6,0,1,1,836.5,962.5"></path><path id="kity_path_434" fill="none" stroke="gray"></path></g><path id="node_outline31" fill="none" stroke="none" d="M841.5,951.5h58a5,5,0,0,1,5,5v12a5,5,0,0,1,-5,5h-58a5,5,0,0,1,-5,-5v-12a5,5,0,0,1,5,-5z"></path><g id="node_text31" fill="black"><text id="kity_text_215" text-rendering="inherit" font-size="12" dy=".8em" y="956.5" x="846.5">自我认同</text></g></g><g id="minder_node34"><g id="node_expander31" style="cursor: pointer;" display="none"><path id="kity_path_436" fill="white" stroke="gray" d="M836.5,1014.5A6,6,0,1,1,824.5,1014.5A6,6,0,1,1,836.5,1014.5"></path><path id="kity_path_437" fill="none" stroke="gray"></path></g><path id="node_outline32" fill="none" stroke="none" d="M841.5,1003.5h58a5,5,0,0,1,5,5v12a5,5,0,0,1,-5,5h-58a5,5,0,0,1,-5,-5v-12a5,5,0,0,1,5,-5z"></path><g id="node_text32" fill="black"><text id="kity_text_217" text-rendering="inherit" font-size="12" dy=".8em" y="1008.5" x="846.5">人生目标</text></g></g><g id="minder_node35"><g id="node_expander51" style="cursor: pointer;"><path id="kity_path_496" fill="white" stroke="gray" d="M1030.5,103.5A6,6,0,1,1,1018.5,103.5A6,6,0,1,1,1030.5,103.5"></path><path id="kity_path_497" fill="none" stroke="gray" d="M1020,103.5L1029,103.5"></path></g><path id="node_outline52" fill="rgb(238, 246, 238)" stroke="rgb(115, 191, 118)" d="M965.5,110.5h118a3,3,0,0,1,3,3v20a3,3,0,0,1,-3,3h-118a3,3,0,0,1,-3,-3v-20a3,3,0,0,1,3,-3z" stroke-width="1"></path><g id="node_text52" fill="black"><text id="kity_text_257" text-rendering="inherit" font-size="14" dy=".8em" y="116.5" x="982.5">提升心理韧性</text></g></g><g id="minder_node36"><g id="node_expander34" style="cursor: pointer;" display="none"><path id="kity_path_445" fill="white" stroke="gray" d="M1002.5,182.5A6,6,0,1,1,990.5,182.5A6,6,0,1,1,1002.5,182.5"></path><path id="kity_path_446" fill="none" stroke="gray"></path></g><path id="node_outline35" fill="none" stroke="none" d="M1007.5,171.5h58a5,5,0,0,1,5,5v12a5,5,0,0,1,-5,5h-58a5,5,0,0,1,-5,-5v-12a5,5,0,0,1,5,-5z"></path><g id="node_text35" fill="black"><text id="kity_text_223" text-rendering="inherit" font-size="12" dy=".8em" y="176.5" x="1012.5">自强不息</text></g></g><g id="minder_node37"><g id="node_expander44" style="cursor: pointer;"><path id="kity_path_475" fill="white" stroke="gray" d="M1002.5,234.5A6,6,0,1,1,990.5,234.5A6,6,0,1,1,1002.5,234.5"></path><path id="kity_path_476" fill="none" stroke="gray" d="M992,234.5L1001,234.5"></path></g><path id="node_outline45" fill="none" stroke="none" d="M1007.5,223.5h94a5,5,0,0,1,5,5v12a5,5,0,0,1,-5,5h-94a5,5,0,0,1,-5,-5v-12a5,5,0,0,1,5,-5z"></path><g id="node_text45" fill="black"><text id="kity_text_243" text-rendering="inherit" font-size="12" dy=".8em" y="228.5" x="1012.5">如何提升复原力</text></g></g><g id="minder_node38"><g id="node_expander35" style="cursor: pointer;" display="none"><path id="kity_path_448" fill="white" stroke="gray" d="M1042.5,286.5A6,6,0,1,1,1030.5,286.5A6,6,0,1,1,1042.5,286.5"></path><path id="kity_path_449" fill="none" stroke="gray"></path></g><path id="node_outline36" fill="none" stroke="none" d="M1047.5,275.5h154a5,5,0,0,1,5,5v12a5,5,0,0,1,-5,5h-154a5,5,0,0,1,-5,-5v-12a5,5,0,0,1,5,-5z"></path><g id="node_text36" fill="black"><text id="kity_text_225" text-rendering="inherit" font-size="12" dy=".8em" y="280.5" x="1052.5">控制负面情绪的“八正法”</text></g></g><g id="minder_node39"><g id="node_expander36" style="cursor: pointer;" display="none"><path id="kity_path_451" fill="white" stroke="gray" d="M1042.5,338.5A6,6,0,1,1,1030.5,338.5A6,6,0,1,1,1042.5,338.5"></path><path id="kity_path_452" fill="none" stroke="gray"></path></g><path id="node_outline37" fill="none" stroke="none" d="M1047.5,327.5h46a5,5,0,0,1,5,5v12a5,5,0,0,1,-5,5h-46a5,5,0,0,1,-5,-5v-12a5,5,0,0,1,5,-5z"></path><g id="node_text37" fill="black"><text id="kity_text_227" text-rendering="inherit" font-size="12" dy=".8em" y="332.5" x="1052.5">深呼吸</text></g></g><g id="minder_node40"><g id="node_expander37" style="cursor: pointer;" display="none"><path id="kity_path_454" fill="white" stroke="gray" d="M1042.5,390.5A6,6,0,1,1,1030.5,390.5A6,6,0,1,1,1042.5,390.5"></path><path id="kity_path_455" fill="none" stroke="gray"></path></g><path id="node_outline38" fill="none" stroke="none" d="M1047.5,379.5h34a5,5,0,0,1,5,5v12a5,5,0,0,1,-5,5h-34a5,5,0,0,1,-5,-5v-12a5,5,0,0,1,5,-5z"></path><g id="node_text38" fill="black"><text id="kity_text_229" text-rendering="inherit" font-size="12" dy=".8em" y="384.5" x="1052.5">闻香</text></g></g><g id="minder_node41"><g id="node_expander38" style="cursor: pointer;" display="none"><path id="kity_path_457" fill="white" stroke="gray" d="M1042.5,442.5A6,6,0,1,1,1030.5,442.5A6,6,0,1,1,1042.5,442.5"></path><path id="kity_path_458" fill="none" stroke="gray"></path></g><path id="node_outline39" fill="none" stroke="none" d="M1047.5,431.5h142a5,5,0,0,1,5,5v12a5,5,0,0,1,-5,5h-142a5,5,0,0,1,-5,-5v-12a5,5,0,0,1,5,-5z"></path><g id="node_text39" fill="black"><text id="kity_text_231" text-rendering="inherit" font-size="12" dy=".8em" y="436.5" x="1052.5">抚摸身体（抚摸三宗穴）</text></g></g><g id="minder_node42"><g id="node_expander39" style="cursor: pointer;" display="none"><path id="kity_path_460" fill="white" stroke="gray" d="M1042.5,494.5A6,6,0,1,1,1030.5,494.5A6,6,0,1,1,1042.5,494.5"></path><path id="kity_path_461" fill="none" stroke="gray"></path></g><path id="node_outline40" fill="none" stroke="none" d="M1047.5,483.5h34a5,5,0,0,1,5,5v12a5,5,0,0,1,-5,5h-34a5,5,0,0,1,-5,-5v-12a5,5,0,0,1,5,-5z"></path><g id="node_text40" fill="black"><text id="kity_text_233" text-rendering="inherit" font-size="12" dy=".8em" y="488.5" x="1052.5">幽默</text></g></g><g id="minder_node43"><g id="node_expander40" style="cursor: pointer;" display="none"><path id="kity_path_463" fill="white" stroke="gray" d="M1042.5,546.5A6,6,0,1,1,1030.5,546.5A6,6,0,1,1,1042.5,546.5"></path><path id="kity_path_464" fill="none" stroke="gray"></path></g><path id="node_outline41" fill="none" stroke="none" d="M1047.5,535.5h34a5,5,0,0,1,5,5v12a5,5,0,0,1,-5,5h-34a5,5,0,0,1,-5,-5v-12a5,5,0,0,1,5,-5z"></path><g id="node_text41" fill="black"><text id="kity_text_235" text-rendering="inherit" font-size="12" dy=".8em" y="540.5" x="1052.5">倾诉</text></g></g><g id="minder_node44"><g id="node_expander41" style="cursor: pointer;" display="none"><path id="kity_path_466" fill="white" stroke="gray" d="M1042.5,598.5A6,6,0,1,1,1030.5,598.5A6,6,0,1,1,1042.5,598.5"></path><path id="kity_path_467" fill="none" stroke="gray"></path></g><path id="node_outline42" fill="none" stroke="none" d="M1047.5,587.5h34a5,5,0,0,1,5,5v12a5,5,0,0,1,-5,5h-34a5,5,0,0,1,-5,-5v-12a5,5,0,0,1,5,-5z"></path><g id="node_text42" fill="black"><text id="kity_text_237" text-rendering="inherit" font-size="12" dy=".8em" y="592.5" x="1052.5">运动</text></g></g><g id="minder_node45"><g id="node_expander42" style="cursor: pointer;" display="none"><path id="kity_path_469" fill="white" stroke="gray" d="M1042.5,650.5A6,6,0,1,1,1030.5,650.5A6,6,0,1,1,1042.5,650.5"></path><path id="kity_path_470" fill="none" stroke="gray"></path></g><path id="node_outline43" fill="none" stroke="none" d="M1047.5,639.5h58a5,5,0,0,1,5,5v12a5,5,0,0,1,-5,5h-58a5,5,0,0,1,-5,-5v-12a5,5,0,0,1,5,-5z"></path><g id="node_text43" fill="black"><text id="kity_text_239" text-rendering="inherit" font-size="12" dy=".8em" y="644.5" x="1052.5">专念状态</text></g></g><g id="minder_node46"><g id="node_expander43" style="cursor: pointer;" display="none"><path id="kity_path_472" fill="white" stroke="gray" d="M1042.5,702.5A6,6,0,1,1,1030.5,702.5A6,6,0,1,1,1042.5,702.5"></path><path id="kity_path_473" fill="none" stroke="gray"></path></g><path id="node_outline44" fill="none" stroke="none" d="M1047.5,691.5h58a5,5,0,0,1,5,5v12a5,5,0,0,1,-5,5h-58a5,5,0,0,1,-5,-5v-12a5,5,0,0,1,5,-5z"></path><g id="node_text44" fill="black"><text id="kity_text_241" text-rendering="inherit" font-size="12" dy=".8em" y="696.5" x="1052.5">动笔写作</text></g></g><g id="minder_node47"><g id="node_expander50" style="cursor: pointer;"><path id="kity_path_493" fill="white" stroke="gray" d="M1002.5,754.5A6,6,0,1,1,990.5,754.5A6,6,0,1,1,1002.5,754.5"></path><path id="kity_path_494" fill="none" stroke="gray" d="M992,754.5L1001,754.5"></path></g><path id="node_outline51" fill="none" stroke="none" d="M1007.5,743.5h94a5,5,0,0,1,5,5v12a5,5,0,0,1,-5,5h-94a5,5,0,0,1,-5,-5v-12a5,5,0,0,1,5,-5z"></path><g id="node_text51" fill="black"><text id="kity_text_255" text-rendering="inherit" font-size="12" dy=".8em" y="748.5" x="1012.5">如何提升幸福力</text></g></g><g id="minder_node48"><g id="node_expander45" style="cursor: pointer;" display="none"><path id="kity_path_478" fill="white" stroke="gray" d="M1042.5,806.5A6,6,0,1,1,1030.5,806.5A6,6,0,1,1,1042.5,806.5"></path><path id="kity_path_479" fill="none" stroke="gray"></path></g><path id="node_outline46" fill="none" stroke="none" d="M1047.5,795.5h190a5,5,0,0,1,5,5v12a5,5,0,0,1,-5,5h-190a5,5,0,0,1,-5,-5v-12a5,5,0,0,1,5,-5z"></path><g id="node_text46" fill="black"><text id="kity_text_245" text-rendering="inherit" font-size="12" dy=".8em" y="800.5" x="1052.5">第一要笑（不要板着脸，要微笑）</text></g></g><g id="minder_node49"><g id="node_expander46" style="cursor: pointer;" display="none"><path id="kity_path_481" fill="white" stroke="gray" d="M1042.5,858.5A6,6,0,1,1,1030.5,858.5A6,6,0,1,1,1042.5,858.5"></path><path id="kity_path_482" fill="none" stroke="gray"></path></g><path id="node_outline47" fill="none" stroke="none" d="M1047.5,847.5h58a5,5,0,0,1,5,5v12a5,5,0,0,1,-5,5h-58a5,5,0,0,1,-5,-5v-12a5,5,0,0,1,5,-5z"></path><g id="node_text47" fill="black"><text id="kity_text_247" text-rendering="inherit" font-size="12" dy=".8em" y="852.5" x="1052.5">第二要动</text></g></g><g id="minder_node50"><g id="node_expander47" style="cursor: pointer;" display="none"><path id="kity_path_484" fill="white" stroke="gray" d="M1042.5,910.5A6,6,0,1,1,1030.5,910.5A6,6,0,1,1,1042.5,910.5"></path><path id="kity_path_485" fill="none" stroke="gray"></path></g><path id="node_outline48" fill="none" stroke="none" d="M1047.5,899.5h130a5,5,0,0,1,5,5v12a5,5,0,0,1,-5,5h-130a5,5,0,0,1,-5,-5v-12a5,5,0,0,1,5,-5z"></path><g id="node_text48" fill="black"><text id="kity_text_249" text-rendering="inherit" font-size="12" dy=".8em" y="904.5" x="1052.5">第三要说（说话开心）</text></g></g><g id="minder_node51"><g id="node_expander48" style="cursor: pointer;" display="none"><path id="kity_path_487" fill="white" stroke="gray" d="M1042.5,962.5A6,6,0,1,1,1030.5,962.5A6,6,0,1,1,1042.5,962.5"></path><path id="kity_path_488" fill="none" stroke="gray"></path></g><path id="node_outline49" fill="none" stroke="none" d="M1047.5,951.5h118a5,5,0,0,1,5,5v12a5,5,0,0,1,-5,5h-118a5,5,0,0,1,-5,-5v-12a5,5,0,0,1,5,-5z"></path><g id="node_text49" fill="black"><text id="kity_text_251" text-rendering="inherit" font-size="12" dy=".8em" y="956.5" x="1052.5">第四要悟（用心思）</text></g></g><g id="minder_node52"><g id="node_expander49" style="cursor: pointer;" display="none"><path id="kity_path_490" fill="white" stroke="gray" d="M1042.5,1014.5A6,6,0,1,1,1030.5,1014.5A6,6,0,1,1,1042.5,1014.5"></path><path id="kity_path_491" fill="none" stroke="gray"></path></g><path id="node_outline50" fill="none" stroke="none" d="M1047.5,1003.5h130a5,5,0,0,1,5,5v12a5,5,0,0,1,-5,5h-130a5,5,0,0,1,-5,-5v-12a5,5,0,0,1,5,-5z"></path><g id="node_text50" fill="black"><text id="kity_text_253" text-rendering="inherit" font-size="12" dy=".8em" y="1008.5" x="1052.5">第五要观（用心去看）</text></g></g><g id="minder_node53"><g id="node_expander53" style="cursor: pointer;"><path id="kity_path_502" fill="white" stroke="gray" d="M1343.5,103.5A6,6,0,1,1,1331.5,103.5A6,6,0,1,1,1343.5,103.5"></path><path id="kity_path_503" fill="none" stroke="gray" d="M1333,103.5L1342,103.5"></path></g><path id="node_outline54" fill="rgb(238, 246, 238)" stroke="rgb(115, 191, 118)" d="M1285.5,110.5h104a3,3,0,0,1,3,3v20a3,3,0,0,1,-3,3h-104a3,3,0,0,1,-3,-3v-20a3,3,0,0,1,3,-3z" stroke-width="1"></path><g id="node_text54" fill="black"><text id="kity_text_261" text-rendering="inherit" font-size="14" dy=".8em" y="116.5" x="1302.5">积极的力量</text></g></g><g id="minder_node54"><g id="node_expander52" style="cursor: pointer;" display="none"><path id="kity_path_499" fill="white" stroke="gray" d="M1322.5,182.5A6,6,0,1,1,1310.5,182.5A6,6,0,1,1,1322.5,182.5"></path><path id="kity_path_500" fill="none" stroke="gray"></path></g><path id="node_outline53" fill="none" stroke="none" d="M1327.5,171.5h454a5,5,0,0,1,5,5v12a5,5,0,0,1,-5,5h-454a5,5,0,0,1,-5,-5v-12a5,5,0,0,1,5,-5z"></path><g id="node_text53" fill="black"><text id="kity_text_259" text-rendering="inherit" font-size="12" dy=".8em" y="176.5" x="1332.5">人生是一场马拉松而非短跑，在社会竞争中，前期靠体力，中期靠脑力，后期靠韧力</text></g></g><g id="minder_node55"><g id="node_expander63" style="cursor: pointer;"><path id="kity_path_532" fill="white" stroke="gray" d="M1915.5,103.5A6,6,0,1,1,1903.5,103.5A6,6,0,1,1,1915.5,103.5"></path><path id="kity_path_533" fill="none" stroke="gray" d="M1905,103.5L1914,103.5"></path></g><path id="node_outline64" fill="rgb(238, 246, 238)" stroke="rgb(115, 191, 118)" d="M1829.5,110.5h160a3,3,0,0,1,3,3v20a3,3,0,0,1,-3,3h-160a3,3,0,0,1,-3,-3v-20a3,3,0,0,1,3,-3z" stroke-width="1"></path><g id="node_text64" fill="black"><text id="kity_text_281" text-rendering="inherit" font-size="14" dy=".8em" y="116.5" x="1846.5">心理韧性的三层境界</text></g></g><g id="minder_node56"><g id="node_expander56" style="cursor: pointer;"><path id="kity_path_511" fill="white" stroke="gray" d="M1866.5,182.5A6,6,0,1,1,1854.5,182.5A6,6,0,1,1,1866.5,182.5"></path><path id="kity_path_512" fill="none" stroke="gray" d="M1856,182.5L1865,182.5"></path></g><path id="node_outline57" fill="none" stroke="none" d="M1871.5,171.5h46a5,5,0,0,1,5,5v12a5,5,0,0,1,-5,5h-46a5,5,0,0,1,-5,-5v-12a5,5,0,0,1,5,-5z"></path><g id="node_text57" fill="black"><text id="kity_text_267" text-rendering="inherit" font-size="12" dy=".8em" y="176.5" x="1876.5">复原力</text></g></g><g id="minder_node57"><g id="node_expander54" style="cursor: pointer;" display="none"><path id="kity_path_505" fill="white" stroke="gray" d="M1906.5,234.5A6,6,0,1,1,1894.5,234.5A6,6,0,1,1,1906.5,234.5"></path><path id="kity_path_506" fill="none" stroke="gray"></path></g><path id="node_outline55" fill="none" stroke="none" d="M1911.5,223.5h322a5,5,0,0,1,5,5v12a5,5,0,0,1,-5,5h-322a5,5,0,0,1,-5,-5v-12a5,5,0,0,1,5,-5z"></path><g id="node_text55" fill="black"><text id="kity_text_263" text-rendering="inherit" font-size="12" dy=".8em" y="228.5" x="1916.5">人从逆境，冲突，痛苦，失败，压力中迅速恢复的心理能力</text></g></g><g id="minder_node58"><g id="node_expander55" style="cursor: pointer;" display="none"><path id="kity_path_508" fill="white" stroke="gray" d="M1906.5,286.5A6,6,0,1,1,1894.5,286.5A6,6,0,1,1,1906.5,286.5"></path><path id="kity_path_509" fill="none" stroke="gray"></path></g><path id="node_outline56" fill="none" stroke="none" d="M1911.5,275.5h394a5,5,0,0,1,5,5v12a5,5,0,0,1,-5,5h-394a5,5,0,0,1,-5,-5v-12a5,5,0,0,1,5,-5z"></path><g id="node_text56" fill="black"><text id="kity_text_265" text-rendering="inherit" font-size="12" dy=".8em" y="280.5" x="1916.5">曼德拉：生命最大的荣耀不是从来没有失败，而是每次失败后的不断奋起</text></g></g><g id="minder_node59"><g id="node_expander60" style="cursor: pointer;"><path id="kity_path_523" fill="white" stroke="gray" d="M1866.5,338.5A6,6,0,1,1,1854.5,338.5A6,6,0,1,1,1866.5,338.5"></path><path id="kity_path_524" fill="none" stroke="gray" d="M1856,338.5L1865,338.5"></path></g><path id="node_outline61" fill="none" stroke="none" d="M1871.5,327.5h46a5,5,0,0,1,5,5v12a5,5,0,0,1,-5,5h-46a5,5,0,0,1,-5,-5v-12a5,5,0,0,1,5,-5z"></path><g id="node_text61" fill="black"><text id="kity_text_275" text-rendering="inherit" font-size="12" dy=".8em" y="332.5" x="1876.5">抗压力</text></g></g><g id="minder_node60"><g id="node_expander57" style="cursor: pointer;" display="none"><path id="kity_path_514" fill="white" stroke="gray" d="M1906.5,390.5A6,6,0,1,1,1894.5,390.5A6,6,0,1,1,1906.5,390.5"></path><path id="kity_path_515" fill="none" stroke="gray"></path></g><path id="node_outline58" fill="none" stroke="none" d="M1911.5,379.5h166a5,5,0,0,1,5,5v12a5,5,0,0,1,-5,5h-166a5,5,0,0,1,-5,-5v-12a5,5,0,0,1,5,-5z"></path><g id="node_text58" fill="black"><text id="kity_text_269" text-rendering="inherit" font-size="12" dy=".8em" y="384.5" x="1916.5">面对长远目标时的努力和耐力</text></g></g><g id="minder_node61"><g id="node_expander58" style="cursor: pointer;" display="none"><path id="kity_path_517" fill="white" stroke="gray" d="M1906.5,442.5A6,6,0,1,1,1894.5,442.5A6,6,0,1,1,1906.5,442.5"></path><path id="kity_path_518" fill="none" stroke="gray"></path></g><path id="node_outline59" fill="none" stroke="none" d="M1911.5,431.5h178a5,5,0,0,1,5,5v12a5,5,0,0,1,-5,5h-178a5,5,0,0,1,-5,-5v-12a5,5,0,0,1,5,-5z"></path><g id="node_text59" fill="black"><text id="kity_text_271" text-rendering="inherit" font-size="12" dy=".8em" y="436.5" x="1916.5">通俗：意志力，自控力，耐磨力</text></g></g><g id="minder_node62"><g id="node_expander59" style="cursor: pointer;" display="none"><path id="kity_path_520" fill="white" stroke="gray" d="M1906.5,494.5A6,6,0,1,1,1894.5,494.5A6,6,0,1,1,1906.5,494.5"></path><path id="kity_path_521" fill="none" stroke="gray"></path></g><path id="node_outline60" fill="none" stroke="none" d="M1911.5,483.5h490a5,5,0,0,1,5,5v12a5,5,0,0,1,-5,5h-490a5,5,0,0,1,-5,-5v-12a5,5,0,0,1,5,-5z"></path><g id="node_text60" fill="black"><text id="kity_text_273" text-rendering="inherit" font-size="12" dy=".8em" y="488.5" x="1916.5">达尔文：生存下来的不是最强大的生物，也不是最聪明的生物，而是最能够适应变化的生物</text></g></g><g id="minder_node63"><g id="node_expander62" style="cursor: pointer;"><path id="kity_path_529" fill="white" stroke="gray" d="M1866.5,546.5A6,6,0,1,1,1854.5,546.5A6,6,0,1,1,1866.5,546.5"></path><path id="kity_path_530" fill="none" stroke="gray" d="M1856,546.5L1865,546.5"></path></g><path id="node_outline63" fill="none" stroke="none" d="M1871.5,535.5h70a5,5,0,0,1,5,5v12a5,5,0,0,1,-5,5h-70a5,5,0,0,1,-5,-5v-12a5,5,0,0,1,5,-5z"></path><g id="node_text63" fill="black"><text id="kity_text_279" text-rendering="inherit" font-size="12" dy=".8em" y="540.5" x="1876.5">创伤后成长</text></g></g><g id="minder_node64"><g id="node_expander61" style="cursor: pointer;" display="none"><path id="kity_path_526" fill="white" stroke="gray" d="M1906.5,598.5A6,6,0,1,1,1894.5,598.5A6,6,0,1,1,1906.5,598.5"></path><path id="kity_path_527" fill="none" stroke="gray"></path></g><path id="node_outline62" fill="none" stroke="none" d="M1911.5,587.5h310a5,5,0,0,1,5,5v12a5,5,0,0,1,-5,5h-310a5,5,0,0,1,-5,-5v-12a5,5,0,0,1,5,-5z"></path><g id="node_text62" fill="black"><text id="kity_text_277" text-rendering="inherit" font-size="12" dy=".8em" y="592.5" x="1916.5">由于逆境和经历困难后的积极心理变化和心理功能的提升</text></g></g></g></g></svg>