<svg id="kity_svg_6" xmlns="http://www.w3.org/2000/svg" xmlns:xlink="http://www.w3.org/1999/xlink" version="1.1" width="1176" height="1201" style="background: rgb(251, 251, 251); visibility: visible;" viewBox="0 0 1176 1201"><defs id="kity_defs_7"><linearGradient id="kity_linearGradient_17" x1="0" y1="0" x2="0" y2="1"><stop id="kity_stop_18" offset="0" stop-color="rgb(255, 255, 255)"></stop><stop id="kity_stop_19" offset="1" stop-color="rgb(204, 204, 204)"></stop></linearGradient><marker id="kity_marker_2" orient="auto" refX="6" refY="0" viewBox="-7 -7 14 14" markerWidth="7" markerHeight="7" markerUnits="userSpaceOnUse"><path id="kity_path_3" fill="rgb(115, 161, 191)" stroke="none" d="M6,0A6,6,0,1,1,-6,0A6,6,0,1,1,6,0"></path></marker></defs><g id="kity_g_8"><g id="minder1" text-rendering="optimize-speed"><g id="minder_connect_group1"><path id="kity_path_31" fill="none" stroke="rgb(115, 161, 191)" stroke-width="1" d="M483.5,60.5v30h-422V110.5"></path><path id="kity_path_33" fill="none" stroke="rgb(115, 161, 191)" stroke-width="1" d="M40.5,136.5V182.5L60.5,182.5"></path><path id="kity_path_35" fill="none" stroke="rgb(115, 161, 191)" stroke-width="1" d="M40.5,136.5V234.5L60.5,234.5"></path><path id="kity_path_37" fill="none" stroke="rgb(115, 161, 191)" stroke-width="1" d="M80.5,245.5V286.5L100.5,286.5"></path><path id="kity_path_39" fill="none" stroke="rgb(115, 161, 191)" stroke-width="1" d="M80.5,245.5V338.5L100.5,338.5"></path><path id="kity_path_41" fill="none" stroke="rgb(115, 161, 191)" stroke-width="1" d="M40.5,136.5V390.5L60.5,390.5"></path><path id="kity_path_43" fill="none" stroke="rgb(115, 161, 191)" stroke-width="1" d="M80.5,401.5V442.5L100.5,442.5"></path><path id="kity_path_45" fill="none" stroke="rgb(115, 161, 191)" stroke-width="1" d="M80.5,401.5V494.5L100.5,494.5"></path><path id="kity_path_47" fill="none" stroke="rgb(115, 161, 191)" stroke-width="1" d="M80.5,401.5V546.5L100.5,546.5"></path><path id="kity_path_49" fill="none" stroke="rgb(115, 161, 191)" stroke-width="1" d="M80.5,401.5V598.5L100.5,598.5"></path><path id="kity_path_51" fill="none" stroke="rgb(115, 161, 191)" stroke-width="1" d="M40.5,136.5V650.5L60.5,650.5"></path><path id="kity_path_53" fill="none" stroke="rgb(115, 161, 191)" stroke-width="1" d="M80.5,661.5V702.5L100.5,702.5"></path><path id="kity_path_55" fill="none" stroke="rgb(115, 161, 191)" stroke-width="1" d="M80.5,661.5V754.5L100.5,754.5"></path><path id="kity_path_57" fill="none" stroke="rgb(115, 161, 191)" stroke-width="1" d="M40.5,136.5V806.5L60.5,806.5"></path><path id="kity_path_59" fill="none" stroke="rgb(115, 161, 191)" stroke-width="1" d="M80.5,817.5V858.5L100.5,858.5"></path><path id="kity_path_61" fill="none" stroke="rgb(115, 161, 191)" stroke-width="1" d="M80.5,817.5V910.5L100.5,910.5"></path><path id="kity_path_63" fill="none" stroke="rgb(115, 161, 191)" stroke-width="1" d="M120.5,921.5V962.5L140.5,962.5"></path><path id="kity_path_65" fill="none" stroke="rgb(115, 161, 191)" stroke-width="1" d="M120.5,921.5V1014.5L140.5,1014.5"></path><path id="kity_path_67" fill="none" stroke="rgb(115, 161, 191)" stroke-width="1" d="M120.5,921.5V1066.5L140.5,1066.5"></path><path id="kity_path_69" fill="none" stroke="rgb(115, 161, 191)" stroke-width="1" d="M80.5,817.5V1118.5L100.5,1118.5"></path><path id="kity_path_71" fill="none" stroke="rgb(115, 161, 191)" stroke-width="1" d="M80.5,817.5V1170.5L100.5,1170.5"></path><path id="kity_path_73" fill="none" stroke="rgb(115, 161, 191)" stroke-width="1" d="M483.5,60.5v30h-16V111.5"></path><path id="kity_path_75" fill="none" stroke="rgb(115, 161, 191)" stroke-width="1" d="M432.5,137.5V183.5L452.5,183.5"></path><path id="kity_path_77" fill="none" stroke="rgb(115, 161, 191)" stroke-width="1" d="M432.5,137.5V235.5L452.5,235.5"></path><path id="kity_path_79" fill="none" stroke="rgb(115, 161, 191)" stroke-width="1" d="M472.5,246.5V287.5L492.5,287.5"></path><path id="kity_path_81" fill="none" stroke="rgb(115, 161, 191)" stroke-width="1" d="M472.5,246.5V339.5L492.5,339.5"></path><path id="kity_path_83" fill="none" stroke="rgb(115, 161, 191)" stroke-width="1" d="M432.5,137.5V391.5L452.5,391.5"></path><path id="kity_path_85" fill="none" stroke="rgb(115, 161, 191)" stroke-width="1" d="M432.5,137.5V443.5L452.5,443.5"></path><path id="kity_path_87" fill="none" stroke="rgb(115, 161, 191)" stroke-width="1" d="M472.5,454.5V495.5L492.5,495.5"></path><path id="kity_path_89" fill="none" stroke="rgb(115, 161, 191)" stroke-width="1" d="M432.5,137.5V547.5L452.5,547.5"></path><path id="kity_path_91" fill="none" stroke="rgb(115, 161, 191)" stroke-width="1" d="M472.5,558.5V599.5L492.5,599.5"></path><path id="kity_path_93" fill="none" stroke="rgb(115, 161, 191)" stroke-width="1" d="M432.5,137.5V651.5L452.5,651.5"></path><path id="kity_path_95" fill="none" stroke="rgb(115, 161, 191)" stroke-width="1" d="M472.5,662.5V703.5L492.5,703.5"></path><path id="kity_path_97" fill="none" stroke="rgb(115, 161, 191)" stroke-width="1" d="M472.5,662.5V755.5L492.5,755.5"></path><path id="kity_path_99" fill="none" stroke="rgb(115, 161, 191)" stroke-width="1" d="M432.5,137.5V807.5L452.5,807.5"></path><path id="kity_path_101" fill="none" stroke="rgb(115, 161, 191)" stroke-width="1" d="M472.5,818.5V859.5L492.5,859.5"></path><path id="kity_path_103" fill="none" stroke="rgb(115, 161, 191)" stroke-width="1" d="M472.5,818.5V911.5L492.5,911.5"></path><path id="kity_path_105" fill="none" stroke="rgb(115, 161, 191)" stroke-width="1" d="M472.5,818.5V963.5L492.5,963.5"></path><path id="kity_path_107" fill="none" stroke="rgb(115, 161, 191)" stroke-width="1" d="M483.5,60.5v30h422V110.5"></path><path id="kity_path_109" fill="none" stroke="rgb(115, 161, 191)" stroke-width="1" d="M884.5,136.5V182.5L904.5,182.5"></path><path id="kity_path_111" fill="none" stroke="rgb(115, 161, 191)" stroke-width="1" d="M884.5,136.5V234.5L904.5,234.5"></path><path id="kity_path_113" fill="none" stroke="rgb(115, 161, 191)" stroke-width="1" d="M924.5,245.5V286.5L944.5,286.5"></path><path id="kity_path_115" fill="none" stroke="rgb(115, 161, 191)" stroke-width="1" d="M884.5,136.5V338.5L904.5,338.5"></path><path id="kity_path_117" fill="none" stroke="rgb(115, 161, 191)" stroke-width="1" d="M884.5,136.5V390.5L904.5,390.5"></path><path id="kity_path_119" fill="none" stroke="rgb(115, 161, 191)" stroke-width="1" d="M884.5,136.5V442.5L904.5,442.5"></path><path id="kity_path_121" fill="none" stroke="rgb(115, 161, 191)" stroke-width="1" d="M884.5,136.5V494.5L904.5,494.5"></path></g><g id="minder_node1"><path id="node_outline1" fill="rgb(115, 161, 191)" stroke="rgb(115, 161, 191)" d="M432.5,20.5h102a5,5,0,0,1,5,5v30a5,5,0,0,1,-5,5h-102a5,5,0,0,1,-5,-5v-30a5,5,0,0,1,5,-5z" stroke-width="3"></path><g id="node_text1" fill="white"><text id="kity_text_22" text-rendering="inherit" font-size="16" dy=".8em" y="32.5" x="451.5">血色浪漫</text></g></g><g id="kity_g_12"><path id="kity_path_13" fill="none" stroke="none" d="M451.5,40.5h0v0h0z"></path></g><g id="kity_g_14"><path id="kity_path_15" fill="none" stroke="none" d="M451.5,40.5h0v0h0z"></path><path id="kity_path_16" fill="none" stroke="none"></path></g><g id="minder_node2"><g id="node_expander21" style="cursor: pointer;"><path id="kity_path_321" fill="white" stroke="gray" d="M67.5,103.5A6,6,0,1,1,55.5,103.5A6,6,0,1,1,67.5,103.5"></path><path id="kity_path_322" fill="none" stroke="gray" d="M57,103.5L66,103.5"></path></g><path id="node_outline22" fill="rgb(238, 243, 246)" stroke="rgb(115, 161, 191)" d="M23.5,110.5h76a3,3,0,0,1,3,3v20a3,3,0,0,1,-3,3h-76a3,3,0,0,1,-3,-3v-20a3,3,0,0,1,3,-3z" stroke-width="1"></path><g id="node_text22" fill="black"><text id="kity_text_163" text-rendering="inherit" font-size="14" dy=".8em" y="116.5" x="40.5">钟跃民</text></g></g><g id="minder_node3"><g id="node_expander1" style="cursor: pointer;" display="none"><path id="kity_path_261" fill="white" stroke="gray" d="M60.5,182.5A6,6,0,1,1,48.5,182.5A6,6,0,1,1,60.5,182.5"></path><path id="kity_path_262" fill="none" stroke="gray"></path></g><path id="node_outline2" fill="none" stroke="none" d="M65.5,171.5h121a5,5,0,0,1,5,5v12a5,5,0,0,1,-5,5h-121a5,5,0,0,1,-5,-5v-12a5,5,0,0,1,5,-5z"></path><g id="node_text2" fill="black"><text id="kity_text_123" text-rendering="inherit" font-size="12" dy=".8em" y="176.5" x="70.5">父：钟山岳 母：姚萍</text></g></g><g id="minder_node4"><g id="node_expander4" style="cursor: pointer;"><path id="kity_path_270" fill="white" stroke="gray" d="M60.5,234.5A6,6,0,1,1,48.5,234.5A6,6,0,1,1,60.5,234.5"></path><path id="kity_path_271" fill="none" stroke="gray" d="M50,234.5L59,234.5"></path></g><path id="node_outline5" fill="none" stroke="none" d="M65.5,223.5h126a5,5,0,0,1,5,5v12a5,5,0,0,1,-5,5h-126a5,5,0,0,1,-5,-5v-12a5,5,0,0,1,5,-5z"></path><g id="node_text5" fill="black"><text id="kity_text_129" text-rendering="inherit" font-size="12" dy=".8em" y="228.5" x="70.5">1. 1968年-街头小流氓</text></g></g><g id="minder_node5"><g id="node_expander2" style="cursor: pointer;" display="none"><path id="kity_path_264" fill="white" stroke="gray" d="M100.5,286.5A6,6,0,1,1,88.5,286.5A6,6,0,1,1,100.5,286.5"></path><path id="kity_path_265" fill="none" stroke="gray"></path></g><path id="node_outline3" fill="none" stroke="none" d="M105.5,275.5h166a5,5,0,0,1,5,5v12a5,5,0,0,1,-5,5h-166a5,5,0,0,1,-5,-5v-12a5,5,0,0,1,5,-5z"></path><g id="node_text3" fill="black"><text id="kity_text_125" text-rendering="inherit" font-size="12" dy=".8em" y="280.5" x="110.5">拿着菜刀的诗人，周晓白崇拜</text></g></g><g id="minder_node6"><g id="node_expander3" style="cursor: pointer;" display="none"><path id="kity_path_267" fill="white" stroke="gray" d="M100.5,338.5A6,6,0,1,1,88.5,338.5A6,6,0,1,1,100.5,338.5"></path><path id="kity_path_268" fill="none" stroke="gray"></path></g><path id="node_outline4" fill="none" stroke="none" d="M105.5,327.5h172a5,5,0,0,1,5,5v12a5,5,0,0,1,-5,5h-172a5,5,0,0,1,-5,-5v-12a5,5,0,0,1,5,-5z"></path><g id="node_text4" fill="black"><text id="kity_text_127" text-rendering="inherit" font-size="12" dy=".8em" y="332.5" x="110.5">思想：自由, 在意过程，在路上</text></g></g><g id="minder_node7"><g id="node_expander9" style="cursor: pointer;"><path id="kity_path_285" fill="white" stroke="gray" d="M60.5,390.5A6,6,0,1,1,48.5,390.5A6,6,0,1,1,60.5,390.5"></path><path id="kity_path_286" fill="none" stroke="gray" d="M50,390.5L59,390.5"></path></g><path id="node_outline10" fill="none" stroke="none" d="M65.5,379.5h71a5,5,0,0,1,5,5v12a5,5,0,0,1,-5,5h-71a5,5,0,0,1,-5,-5v-12a5,5,0,0,1,5,-5z"></path><g id="node_text10" fill="black"><text id="kity_text_139" text-rendering="inherit" font-size="12" dy=".8em" y="384.5" x="70.5">2. 陕北插队</text></g></g><g id="minder_node8"><g id="node_expander5" style="cursor: pointer;" display="none"><path id="kity_path_273" fill="white" stroke="gray" d="M100.5,442.5A6,6,0,1,1,88.5,442.5A6,6,0,1,1,100.5,442.5"></path><path id="kity_path_274" fill="none" stroke="gray"></path></g><path id="node_outline6" fill="none" stroke="none" d="M105.5,431.5h130a5,5,0,0,1,5,5v12a5,5,0,0,1,-5,5h-130a5,5,0,0,1,-5,-5v-12a5,5,0,0,1,5,-5z"></path><g id="node_text6" fill="black"><text id="kity_text_131" text-rendering="inherit" font-size="12" dy=".8em" y="436.5" x="110.5">与郑桐挨饿，要饭经历</text></g></g><g id="minder_node9"><g id="node_expander6" style="cursor: pointer;" display="none"><path id="kity_path_276" fill="white" stroke="gray" d="M100.5,494.5A6,6,0,1,1,88.5,494.5A6,6,0,1,1,100.5,494.5"></path><path id="kity_path_277" fill="none" stroke="gray"></path></g><path id="node_outline7" fill="none" stroke="none" d="M105.5,483.5h188a5,5,0,0,1,5,5v12a5,5,0,0,1,-5,5h-188a5,5,0,0,1,-5,-5v-12a5,5,0,0,1,5,-5z"></path><g id="node_text7" fill="black"><text id="kity_text_133" text-rendering="inherit" font-size="12" dy=".8em" y="488.5" x="110.5">马叔-父亲战友 马桂平 推荐去当兵</text></g></g><g id="minder_node10"><g id="node_expander7" style="cursor: pointer;" display="none"><path id="kity_path_279" fill="white" stroke="gray" d="M100.5,546.5A6,6,0,1,1,88.5,546.5A6,6,0,1,1,100.5,546.5"></path><path id="kity_path_280" fill="none" stroke="gray"></path></g><path id="node_outline8" fill="none" stroke="none" d="M105.5,535.5h269a5,5,0,0,1,5,5v12a5,5,0,0,1,-5,5h-269a5,5,0,0,1,-5,-5v-12a5,5,0,0,1,5,-5z"></path><g id="node_text8" fill="black"><text id="kity_text_135" text-rendering="inherit" font-size="12" dy=".8em" y="540.5" x="110.5">与周晓白2封信，一封介绍陕北情况，一封分手信</text></g></g><g id="minder_node11"><g id="node_expander8" style="cursor: pointer;" display="none"><path id="kity_path_282" fill="white" stroke="gray" d="M100.5,598.5A6,6,0,1,1,88.5,598.5A6,6,0,1,1,100.5,598.5"></path><path id="kity_path_283" fill="none" stroke="gray"></path></g><path id="node_outline9" fill="none" stroke="none" d="M105.5,587.5h242a5,5,0,0,1,5,5v12a5,5,0,0,1,-5,5h-242a5,5,0,0,1,-5,-5v-12a5,5,0,0,1,5,-5z"></path><g id="node_text9" fill="black"><text id="kity_text_137" text-rendering="inherit" font-size="12" dy=".8em" y="592.5" x="110.5">喜欢陕北信天游，女知青-秦岭，走不到一起</text></g></g><g id="minder_node12"><g id="node_expander12" style="cursor: pointer;"><path id="kity_path_294" fill="white" stroke="gray" d="M60.5,650.5A6,6,0,1,1,48.5,650.5A6,6,0,1,1,60.5,650.5"></path><path id="kity_path_295" fill="none" stroke="gray" d="M50,650.5L59,650.5"></path></g><path id="node_outline13" fill="none" stroke="none" d="M65.5,639.5h47a5,5,0,0,1,5,5v12a5,5,0,0,1,-5,5h-47a5,5,0,0,1,-5,-5v-12a5,5,0,0,1,5,-5z"></path><g id="node_text13" fill="black"><text id="kity_text_145" text-rendering="inherit" font-size="12" dy=".8em" y="644.5" x="70.5">3. 当兵</text></g></g><g id="minder_node13"><g id="node_expander10" style="cursor: pointer;" display="none"><path id="kity_path_288" fill="white" stroke="gray" d="M100.5,702.5A6,6,0,1,1,88.5,702.5A6,6,0,1,1,100.5,702.5"></path><path id="kity_path_289" fill="none" stroke="gray"></path></g><path id="node_outline11" fill="none" stroke="none" d="M105.5,691.5h140a5,5,0,0,1,5,5v12a5,5,0,0,1,-5,5h-140a5,5,0,0,1,-5,-5v-12a5,5,0,0,1,5,-5z"></path><g id="node_text11" fill="black"><text id="kity_text_141" text-rendering="inherit" font-size="12" dy=".8em" y="696.5" x="110.5">C军侦察兵，遇到张海洋</text></g></g><g id="minder_node14"><g id="node_expander11" style="cursor: pointer;" display="none"><path id="kity_path_291" fill="white" stroke="gray" d="M100.5,754.5A6,6,0,1,1,88.5,754.5A6,6,0,1,1,100.5,754.5"></path><path id="kity_path_292" fill="none" stroke="gray"></path></g><path id="node_outline12" fill="none" stroke="none" d="M105.5,743.5h268a5,5,0,0,1,5,5v12a5,5,0,0,1,-5,5h-268a5,5,0,0,1,-5,-5v-12a5,5,0,0,1,5,-5z"></path><g id="node_text12" fill="black"><text id="kity_text_143" text-rendering="inherit" font-size="12" dy=".8em" y="748.5" x="110.5">1984 裁军，和张海洋一起回北京，复员认识高玥</text></g></g><g id="minder_node15"><g id="node_expander20" style="cursor: pointer;"><path id="kity_path_318" fill="white" stroke="gray" d="M60.5,806.5A6,6,0,1,1,48.5,806.5A6,6,0,1,1,60.5,806.5"></path><path id="kity_path_319" fill="none" stroke="gray" d="M50,806.5L59,806.5"></path></g><path id="node_outline21" fill="none" stroke="none" d="M65.5,795.5h59a5,5,0,0,1,5,5v12a5,5,0,0,1,-5,5h-59a5,5,0,0,1,-5,-5v-12a5,5,0,0,1,5,-5z"></path><g id="node_text21" fill="black"><text id="kity_text_161" text-rendering="inherit" font-size="12" dy=".8em" y="800.5" x="70.5">4. 个体户</text></g></g><g id="minder_node16"><g id="node_expander13" style="cursor: pointer;" display="none"><path id="kity_path_297" fill="white" stroke="gray" d="M100.5,858.5A6,6,0,1,1,88.5,858.5A6,6,0,1,1,100.5,858.5"></path><path id="kity_path_298" fill="none" stroke="gray"></path></g><path id="node_outline14" fill="none" stroke="none" d="M105.5,847.5h151a5,5,0,0,1,5,5v12a5,5,0,0,1,-5,5h-151a5,5,0,0,1,-5,-5v-12a5,5,0,0,1,5,-5z"></path><g id="node_text14" fill="black"><text id="kity_text_147" text-rendering="inherit" font-size="12" dy=".8em" y="852.5" x="110.5">摆地摊被查抄(与高玥合伙)</text></g></g><g id="minder_node17"><g id="node_expander17" style="cursor: pointer;"><path id="kity_path_309" fill="white" stroke="gray" d="M100.5,910.5A6,6,0,1,1,88.5,910.5A6,6,0,1,1,100.5,910.5"></path><path id="kity_path_310" fill="none" stroke="gray" d="M90,910.5L99,910.5"></path></g><path id="node_outline18" fill="none" stroke="none" d="M105.5,899.5h286a5,5,0,0,1,5,5v12a5,5,0,0,1,-5,5h-286a5,5,0,0,1,-5,-5v-12a5,5,0,0,1,5,-5z"></path><g id="node_text18" fill="black"><text id="kity_text_155" text-rendering="inherit" font-size="12" dy=".8em" y="904.5" x="110.5">找李源潮帮忙在公司当了经理，挪用钱给宁伟而入狱</text></g></g><g id="minder_node18"><g id="node_expander14" style="cursor: pointer;" display="none"><path id="kity_path_300" fill="white" stroke="gray" d="M140.5,962.5A6,6,0,1,1,128.5,962.5A6,6,0,1,1,140.5,962.5"></path><path id="kity_path_301" fill="none" stroke="gray"></path></g><path id="node_outline15" fill="none" stroke="none" d="M145.5,951.5h182a5,5,0,0,1,5,5v12a5,5,0,0,1,-5,5h-182a5,5,0,0,1,-5,-5v-12a5,5,0,0,1,5,-5z"></path><g id="node_text15" fill="black"><text id="kity_text_149" text-rendering="inherit" font-size="12" dy=".8em" y="956.5" x="150.5">高玥出差，与下属-何梅勾搭上了</text></g></g><g id="minder_node19"><g id="node_expander15" style="cursor: pointer;" display="none"><path id="kity_path_303" fill="white" stroke="gray" d="M140.5,1014.5A6,6,0,1,1,128.5,1014.5A6,6,0,1,1,140.5,1014.5"></path><path id="kity_path_304" fill="none" stroke="gray"></path></g><path id="node_outline16" fill="none" stroke="none" d="M145.5,1003.5h130a5,5,0,0,1,5,5v12a5,5,0,0,1,-5,5h-130a5,5,0,0,1,-5,-5v-12a5,5,0,0,1,5,-5z"></path><g id="node_text16" fill="black"><text id="kity_text_151" text-rendering="inherit" font-size="12" dy=".8em" y="1008.5" x="150.5">再遇见秦岭，旧情复燃</text></g></g><g id="minder_node20"><g id="node_expander16" style="cursor: pointer;" display="none"><path id="kity_path_306" fill="white" stroke="gray" d="M140.5,1066.5A6,6,0,1,1,128.5,1066.5A6,6,0,1,1,140.5,1066.5"></path><path id="kity_path_307" fill="none" stroke="gray"></path></g><path id="node_outline17" fill="none" stroke="none" d="M145.5,1055.5h165a5,5,0,0,1,5,5v12a5,5,0,0,1,-5,5h-165a5,5,0,0,1,-5,-5v-12a5,5,0,0,1,5,-5z"></path><g id="node_text17" fill="black"><text id="kity_text_153" text-rendering="inherit" font-size="12" dy=".8em" y="1060.5" x="150.5">秦岭帮出50w，嫁他人去美国</text></g></g><g id="minder_node21"><g id="node_expander18" style="cursor: pointer;" display="none"><path id="kity_path_312" fill="white" stroke="gray" d="M100.5,1118.5A6,6,0,1,1,88.5,1118.5A6,6,0,1,1,100.5,1118.5"></path><path id="kity_path_313" fill="none" stroke="gray"></path></g><path id="node_outline19" fill="none" stroke="none" d="M105.5,1107.5h151a5,5,0,0,1,5,5v12a5,5,0,0,1,-5,5h-151a5,5,0,0,1,-5,-5v-12a5,5,0,0,1,5,-5z"></path><g id="node_text19" fill="black"><text id="kity_text_157" text-rendering="inherit" font-size="12" dy=".8em" y="1112.5" x="110.5">开出租车，开饭馆(与高玥)</text></g></g><g id="minder_node22"><g id="node_expander19" style="cursor: pointer;" display="none"><path id="kity_path_315" fill="white" stroke="gray" d="M100.5,1170.5A6,6,0,1,1,88.5,1170.5A6,6,0,1,1,100.5,1170.5"></path><path id="kity_path_316" fill="none" stroke="gray"></path></g><path id="node_outline20" fill="none" stroke="none" d="M105.5,1159.5h118a5,5,0,0,1,5,5v12a5,5,0,0,1,-5,5h-118a5,5,0,0,1,-5,-5v-12a5,5,0,0,1,5,-5z"></path><g id="node_text20" fill="black"><text id="kity_text_159" text-rendering="inherit" font-size="12" dy=".8em" y="1164.5" x="110.5">去青海加入反偷猎队</text></g></g><g id="minder_node23"><g id="node_expander38" style="cursor: pointer;"><path id="kity_path_372" fill="white" stroke="gray" d="M473.5,104.5A6,6,0,1,1,461.5,104.5A6,6,0,1,1,473.5,104.5"></path><path id="kity_path_373" fill="none" stroke="gray" d="M463,104.5L472,104.5"></path></g><path id="node_outline39" fill="rgb(238, 243, 246)" stroke="rgb(115, 161, 191)" d="M415.5,111.5h104a3,3,0,0,1,3,3v20a3,3,0,0,1,-3,3h-104a3,3,0,0,1,-3,-3v-20a3,3,0,0,1,3,-3z" stroke-width="1"></path><g id="node_text39" fill="black"><text id="kity_text_197" text-rendering="inherit" font-size="14" dy=".8em" y="117.5" x="432.5">战友：宁伟</text></g></g><g id="minder_node24"><g id="node_expander22" style="cursor: pointer;" display="none"><path id="kity_path_324" fill="white" stroke="gray" d="M452.5,183.5A6,6,0,1,1,440.5,183.5A6,6,0,1,1,452.5,183.5"></path><path id="kity_path_325" fill="none" stroke="gray"></path></g><path id="node_outline23" fill="none" stroke="none" d="M457.5,172.5h238a5,5,0,0,1,5,5v12a5,5,0,0,1,-5,5h-238a5,5,0,0,1,-5,-5v-12a5,5,0,0,1,5,-5z"></path><g id="node_text23" fill="black"><text id="kity_text_165" text-rendering="inherit" font-size="12" dy=".8em" y="177.5" x="462.5">破罐子破摔，天生杀手，亡命之徒，被击毙</text></g></g><g id="minder_node25"><g id="node_expander25" style="cursor: pointer;"><path id="kity_path_333" fill="white" stroke="gray" d="M452.5,235.5A6,6,0,1,1,440.5,235.5A6,6,0,1,1,452.5,235.5"></path><path id="kity_path_334" fill="none" stroke="gray" d="M442,235.5L451,235.5"></path></g><path id="node_outline26" fill="none" stroke="none" d="M457.5,224.5h82a5,5,0,0,1,5,5v12a5,5,0,0,1,-5,5h-82a5,5,0,0,1,-5,-5v-12a5,5,0,0,1,5,-5z"></path><g id="node_text26" fill="black"><text id="kity_text_171" text-rendering="inherit" font-size="12" dy=".8em" y="229.5" x="462.5">战友：吴满囤</text></g></g><g id="minder_node26"><g id="node_expander23" style="cursor: pointer;" display="none"><path id="kity_path_327" fill="white" stroke="gray" d="M492.5,287.5A6,6,0,1,1,480.5,287.5A6,6,0,1,1,492.5,287.5"></path><path id="kity_path_328" fill="none" stroke="gray"></path></g><path id="node_outline24" fill="none" stroke="none" d="M497.5,276.5h154a5,5,0,0,1,5,5v12a5,5,0,0,1,-5,5h-154a5,5,0,0,1,-5,-5v-12a5,5,0,0,1,5,-5z"></path><g id="node_text24" fill="black"><text id="kity_text_167" text-rendering="inherit" font-size="12" dy=".8em" y="281.5" x="502.5">家里穷困，升到连级指导员</text></g></g><g id="minder_node27"><g id="node_expander24" style="cursor: pointer;" display="none"><path id="kity_path_330" fill="white" stroke="gray" d="M492.5,339.5A6,6,0,1,1,480.5,339.5A6,6,0,1,1,492.5,339.5"></path><path id="kity_path_331" fill="none" stroke="gray"></path></g><path id="node_outline25" fill="none" stroke="none" d="M497.5,328.5h166a5,5,0,0,1,5,5v12a5,5,0,0,1,-5,5h-166a5,5,0,0,1,-5,-5v-12a5,5,0,0,1,5,-5z"></path><g id="node_text25" fill="black"><text id="kity_text_169" text-rendering="inherit" font-size="12" dy=".8em" y="333.5" x="502.5">丛林找机密公文包，扫雷牺牲</text></g></g><g id="minder_node28"><g id="node_expander26" style="cursor: pointer;" display="none"><path id="kity_path_336" fill="white" stroke="gray" d="M452.5,391.5A6,6,0,1,1,440.5,391.5A6,6,0,1,1,452.5,391.5"></path><path id="kity_path_337" fill="none" stroke="gray"></path></g><path id="node_outline27" fill="none" stroke="none" d="M457.5,380.5h181a5,5,0,0,1,5,5v12a5,5,0,0,1,-5,5h-181a5,5,0,0,1,-5,-5v-12a5,5,0,0,1,5,-5z"></path><g id="node_text27" fill="black"><text id="kity_text_173" text-rendering="inherit" font-size="12" dy=".8em" y="385.5" x="462.5">战友：张海洋， 转业后去公安局</text></g></g><g id="minder_node29"><g id="node_expander28" style="cursor: pointer;"><path id="kity_path_342" fill="white" stroke="gray" d="M452.5,443.5A6,6,0,1,1,440.5,443.5A6,6,0,1,1,452.5,443.5"></path><path id="kity_path_343" fill="none" stroke="gray" d="M442,443.5L451,443.5"></path></g><path id="node_outline29" fill="none" stroke="none" d="M457.5,432.5h178a5,5,0,0,1,5,5v12a5,5,0,0,1,-5,5h-178a5,5,0,0,1,-5,-5v-12a5,5,0,0,1,5,-5z"></path><g id="node_text29" fill="black"><text id="kity_text_177" text-rendering="inherit" font-size="12" dy=".8em" y="437.5" x="462.5">朋：李源朝，小混蛋（被砍死）</text></g></g><g id="minder_node30"><g id="node_expander27" style="cursor: pointer;" display="none"><path id="kity_path_339" fill="white" stroke="gray" d="M492.5,495.5A6,6,0,1,1,480.5,495.5A6,6,0,1,1,492.5,495.5"></path><path id="kity_path_340" fill="none" stroke="gray"></path></g><path id="node_outline28" fill="none" stroke="none" d="M497.5,484.5h118a5,5,0,0,1,5,5v12a5,5,0,0,1,-5,5h-118a5,5,0,0,1,-5,-5v-12a5,5,0,0,1,5,-5z"></path><g id="node_text28" fill="black"><text id="kity_text_175" text-rendering="inherit" font-size="12" dy=".8em" y="489.5" x="502.5">公司领导，后去美国</text></g></g><g id="minder_node31"><g id="node_expander30" style="cursor: pointer;"><path id="kity_path_348" fill="white" stroke="gray" d="M452.5,547.5A6,6,0,1,1,440.5,547.5A6,6,0,1,1,452.5,547.5"></path><path id="kity_path_349" fill="none" stroke="gray" d="M442,547.5L451,547.5"></path></g><path id="node_outline31" fill="none" stroke="none" d="M457.5,536.5h106a5,5,0,0,1,5,5v12a5,5,0,0,1,-5,5h-106a5,5,0,0,1,-5,-5v-12a5,5,0,0,1,5,-5z"></path><g id="node_text31" fill="black"><text id="kity_text_181" text-rendering="inherit" font-size="12" dy=".8em" y="541.5" x="462.5">朋：李奎勇（猛）</text></g></g><g id="minder_node32"><g id="node_expander29" style="cursor: pointer;" display="none"><path id="kity_path_345" fill="white" stroke="gray" d="M492.5,599.5A6,6,0,1,1,480.5,599.5A6,6,0,1,1,492.5,599.5"></path><path id="kity_path_346" fill="none" stroke="gray"></path></g><path id="node_outline30" fill="none" stroke="none" d="M497.5,588.5h298a5,5,0,0,1,5,5v12a5,5,0,0,1,-5,5h-298a5,5,0,0,1,-5,-5v-12a5,5,0,0,1,5,-5z"></path><g id="node_text30" fill="black"><text id="kity_text_179" text-rendering="inherit" font-size="12" dy=".8em" y="593.5" x="502.5">大杂院出身，仗义，开出租车，劳累一生，得癌症而死</text></g></g><g id="minder_node33"><g id="node_expander33" style="cursor: pointer;"><path id="kity_path_357" fill="white" stroke="gray" d="M452.5,651.5A6,6,0,1,1,440.5,651.5A6,6,0,1,1,452.5,651.5"></path><path id="kity_path_358" fill="none" stroke="gray" d="M442,651.5L451,651.5"></path></g><path id="node_outline34" fill="none" stroke="none" d="M457.5,640.5h58a5,5,0,0,1,5,5v12a5,5,0,0,1,-5,5h-58a5,5,0,0,1,-5,-5v-12a5,5,0,0,1,5,-5z"></path><g id="node_text34" fill="black"><text id="kity_text_187" text-rendering="inherit" font-size="12" dy=".8em" y="645.5" x="462.5">朋：袁军</text></g></g><g id="minder_node34"><g id="node_expander31" style="cursor: pointer;" display="none"><path id="kity_path_351" fill="white" stroke="gray" d="M492.5,703.5A6,6,0,1,1,480.5,703.5A6,6,0,1,1,492.5,703.5"></path><path id="kity_path_352" fill="none" stroke="gray"></path></g><path id="node_outline32" fill="none" stroke="none" d="M497.5,692.5h136a5,5,0,0,1,5,5v12a5,5,0,0,1,-5,5h-136a5,5,0,0,1,-5,-5v-12a5,5,0,0,1,5,-5z"></path><g id="node_text32" fill="black"><text id="kity_text_183" text-rendering="inherit" font-size="12" dy=".8em" y="697.5" x="502.5">父：袁北光&#xa0; 母：王咏琴</text></g></g><g id="minder_node35"><g id="node_expander32" style="cursor: pointer;" display="none"><path id="kity_path_354" fill="white" stroke="gray" d="M492.5,755.5A6,6,0,1,1,480.5,755.5A6,6,0,1,1,492.5,755.5"></path><path id="kity_path_355" fill="none" stroke="gray"></path></g><path id="node_outline33" fill="none" stroke="none" d="M497.5,744.5h106a5,5,0,0,1,5,5v12a5,5,0,0,1,-5,5h-106a5,5,0,0,1,-5,-5v-12a5,5,0,0,1,5,-5z" stroke-width="3"></path><g id="node_text33" fill="black"><text id="kity_text_185" text-rendering="inherit" font-size="12" dy=".8em" y="749.5" x="502.5">最后与周晓白结婚</text></g></g><g id="minder_node36"><g id="node_expander37" style="cursor: pointer;"><path id="kity_path_369" fill="white" stroke="gray" d="M452.5,807.5A6,6,0,1,1,440.5,807.5A6,6,0,1,1,452.5,807.5"></path><path id="kity_path_370" fill="none" stroke="gray" d="M442,807.5L451,807.5"></path></g><path id="node_outline38" fill="none" stroke="none" d="M457.5,796.5h58a5,5,0,0,1,5,5v12a5,5,0,0,1,-5,5h-58a5,5,0,0,1,-5,-5v-12a5,5,0,0,1,5,-5z"></path><g id="node_text38" fill="black"><text id="kity_text_195" text-rendering="inherit" font-size="12" dy=".8em" y="801.5" x="462.5">朋：郑桐</text></g></g><g id="minder_node37"><g id="node_expander34" style="cursor: pointer;" display="none"><path id="kity_path_360" fill="white" stroke="gray" d="M492.5,859.5A6,6,0,1,1,480.5,859.5A6,6,0,1,1,492.5,859.5"></path><path id="kity_path_361" fill="none" stroke="gray"></path></g><path id="node_outline35" fill="none" stroke="none" d="M497.5,848.5h133a5,5,0,0,1,5,5v12a5,5,0,0,1,-5,5h-133a5,5,0,0,1,-5,-5v-12a5,5,0,0,1,5,-5z"></path><g id="node_text35" fill="black"><text id="kity_text_189" text-rendering="inherit" font-size="12" dy=".8em" y="853.5" x="502.5">父：郑天宇 母：孙逸群</text></g></g><g id="minder_node38"><g id="node_expander35" style="cursor: pointer;" display="none"><path id="kity_path_363" fill="white" stroke="gray" d="M492.5,911.5A6,6,0,1,1,480.5,911.5A6,6,0,1,1,492.5,911.5"></path><path id="kity_path_364" fill="none" stroke="gray"></path></g><path id="node_outline36" fill="none" stroke="none" d="M497.5,900.5h181a5,5,0,0,1,5,5v12a5,5,0,0,1,-5,5h-181a5,5,0,0,1,-5,-5v-12a5,5,0,0,1,5,-5z"></path><g id="node_text36" fill="black"><text id="kity_text_191" text-rendering="inherit" font-size="12" dy=".8em" y="905.5" x="502.5">1981考上北京大学，做了学者。</text></g></g><g id="minder_node39"><g id="node_expander36" style="cursor: pointer;" display="none"><path id="kity_path_366" fill="white" stroke="gray" d="M492.5,963.5A6,6,0,1,1,480.5,963.5A6,6,0,1,1,492.5,963.5"></path><path id="kity_path_367" fill="none" stroke="gray"></path></g><path id="node_outline37" fill="none" stroke="none" d="M497.5,952.5h286a5,5,0,0,1,5,5v12a5,5,0,0,1,-5,5h-286a5,5,0,0,1,-5,-5v-12a5,5,0,0,1,5,-5z"></path><g id="node_text37" fill="black"><text id="kity_text_193" text-rendering="inherit" font-size="12" dy=".8em" y="957.5" x="502.5">插队时认识蒋碧云，考上大学，中学老师，结婚生子</text></g></g><g id="minder_node40"><g id="node_expander46" style="cursor: pointer;"><path id="kity_path_396" fill="white" stroke="gray" d="M911.5,103.5A6,6,0,1,1,899.5,103.5A6,6,0,1,1,911.5,103.5"></path><path id="kity_path_397" fill="none" stroke="gray" d="M901,103.5L910,103.5"></path></g><path id="node_outline47" fill="rgb(238, 243, 246)" stroke="rgb(115, 161, 191)" d="M867.5,110.5h76a3,3,0,0,1,3,3v20a3,3,0,0,1,-3,3h-76a3,3,0,0,1,-3,-3v-20a3,3,0,0,1,3,-3z" stroke-width="1"></path><g id="node_text47" fill="black"><text id="kity_text_213" text-rendering="inherit" font-size="14" dy=".8em" y="116.5" x="884.5">周晓白</text></g></g><g id="minder_node41"><g id="node_expander39" style="cursor: pointer;" display="none"><path id="kity_path_375" fill="white" stroke="gray" d="M904.5,182.5A6,6,0,1,1,892.5,182.5A6,6,0,1,1,904.5,182.5"></path><path id="kity_path_376" fill="none" stroke="gray"></path></g><path id="node_outline40" fill="none" stroke="none" d="M909.5,171.5h157a5,5,0,0,1,5,5v12a5,5,0,0,1,-5,5h-157a5,5,0,0,1,-5,-5v-12a5,5,0,0,1,5,-5z"></path><g id="node_text40" fill="black"><text id="kity_text_199" text-rendering="inherit" font-size="12" dy=".8em" y="176.5" x="914.5">父：中将周镇南 母：陈亦君</text></g></g><g id="minder_node42"><g id="node_expander41" style="cursor: pointer;"><path id="kity_path_381" fill="white" stroke="gray" d="M904.5,234.5A6,6,0,1,1,892.5,234.5A6,6,0,1,1,904.5,234.5"></path><path id="kity_path_382" fill="none" stroke="gray" d="M894,234.5L903,234.5"></path></g><path id="node_outline42" fill="none" stroke="none" d="M909.5,223.5h58a5,5,0,0,1,5,5v12a5,5,0,0,1,-5,5h-58a5,5,0,0,1,-5,-5v-12a5,5,0,0,1,5,-5z"></path><g id="node_text42" fill="black"><text id="kity_text_203" text-rendering="inherit" font-size="12" dy=".8em" y="228.5" x="914.5">朋；罗芸</text></g></g><g id="minder_node43"><g id="node_expander40" style="cursor: pointer;" display="none"><path id="kity_path_378" fill="white" stroke="gray" d="M944.5,286.5A6,6,0,1,1,932.5,286.5A6,6,0,1,1,944.5,286.5"></path><path id="kity_path_379" fill="none" stroke="gray"></path></g><path id="node_outline41" fill="none" stroke="none" d="M949.5,275.5h202a5,5,0,0,1,5,5v12a5,5,0,0,1,-5,5h-202a5,5,0,0,1,-5,-5v-12a5,5,0,0,1,5,-5z"></path><g id="node_text41" fill="black"><text id="kity_text_201" text-rendering="inherit" font-size="12" dy=".8em" y="280.5" x="954.5">追求个人前途，入党，被推荐去军校</text></g></g><g id="minder_node44"><g id="node_expander42" style="cursor: pointer;" display="none"><path id="kity_path_384" fill="white" stroke="gray" d="M904.5,338.5A6,6,0,1,1,892.5,338.5A6,6,0,1,1,904.5,338.5"></path><path id="kity_path_385" fill="none" stroke="gray"></path></g><path id="node_outline43" fill="none" stroke="none" d="M909.5,327.5h94a5,5,0,0,1,5,5v12a5,5,0,0,1,-5,5h-94a5,5,0,0,1,-5,-5v-12a5,5,0,0,1,5,-5z"></path><g id="node_text43" fill="black"><text id="kity_text_205" text-rendering="inherit" font-size="12" dy=".8em" y="332.5" x="914.5">云南入伍当医生</text></g></g><g id="minder_node45"><g id="node_expander43" style="cursor: pointer;" display="none"><path id="kity_path_387" fill="white" stroke="gray" d="M904.5,390.5A6,6,0,1,1,892.5,390.5A6,6,0,1,1,904.5,390.5"></path><path id="kity_path_388" fill="none" stroke="gray"></path></g><path id="node_outline44" fill="none" stroke="none" d="M909.5,379.5h118a5,5,0,0,1,5,5v12a5,5,0,0,1,-5,5h-118a5,5,0,0,1,-5,-5v-12a5,5,0,0,1,5,-5z"></path><g id="node_text44" fill="black"><text id="kity_text_207" text-rendering="inherit" font-size="12" dy=".8em" y="384.5" x="914.5">袁军在云南当坦克兵</text></g></g><g id="minder_node46"><g id="node_expander44" style="cursor: pointer;" display="none"><path id="kity_path_390" fill="white" stroke="gray" d="M904.5,442.5A6,6,0,1,1,892.5,442.5A6,6,0,1,1,904.5,442.5"></path><path id="kity_path_391" fill="none" stroke="gray"></path></g><path id="node_outline45" fill="none" stroke="none" d="M909.5,431.5h190a5,5,0,0,1,5,5v12a5,5,0,0,1,-5,5h-190a5,5,0,0,1,-5,-5v-12a5,5,0,0,1,5,-5z"></path><g id="node_text45" fill="black"><text id="kity_text_209" text-rendering="inherit" font-size="12" dy=".8em" y="436.5" x="914.5">袁军负伤，医院照顾，最后与结婚</text></g></g><g id="minder_node47"><g id="node_expander45" style="cursor: pointer;" display="none"><path id="kity_path_393" fill="white" stroke="gray" d="M904.5,494.5A6,6,0,1,1,892.5,494.5A6,6,0,1,1,904.5,494.5"></path><path id="kity_path_394" fill="none" stroke="gray"></path></g><path id="node_outline46" fill="none" stroke="none" d="M909.5,483.5h142a5,5,0,0,1,5,5v12a5,5,0,0,1,-5,5h-142a5,5,0,0,1,-5,-5v-12a5,5,0,0,1,5,-5z"></path><g id="node_text46" fill="black"><text id="kity_text_211" text-rendering="inherit" font-size="12" dy=".8em" y="488.5" x="914.5">想办法给钟跃民筹钱出狱</text></g></g></g></g></svg>