<svg id="kity_svg_6" xmlns="http://www.w3.org/2000/svg" xmlns:xlink="http://www.w3.org/1999/xlink" version="1.1" width="1343" height="733" style="background: rgb(251, 251, 251); visibility: visible;" viewBox="0 0 1343 733"><defs id="kity_defs_7"><linearGradient id="kity_linearGradient_17" x1="0" y1="0" x2="0" y2="1"><stop id="kity_stop_18" offset="0" stop-color="rgb(255, 255, 255)"></stop><stop id="kity_stop_19" offset="1" stop-color="rgb(204, 204, 204)"></stop></linearGradient><marker id="kity_marker_2" orient="auto" refX="6" refY="0" viewBox="-7 -7 14 14" markerWidth="7" markerHeight="7" markerUnits="userSpaceOnUse"><path id="kity_path_3" fill="rgb(115, 161, 191)" stroke="none" d="M6,0A6,6,0,1,1,-6,0A6,6,0,1,1,6,0"></path></marker></defs><g id="kity_g_8"><g id="minder1" text-rendering="optimize-speed"><g id="minder_connect_group1"><path id="kity_path_31" fill="none" stroke="rgb(115, 191, 118)" stroke-width="1" d="M517.5,60.5v30h-414V110.5"></path><path id="kity_path_33" fill="none" stroke="rgb(115, 191, 118)" stroke-width="1" d="M40.5,136.5V182.5L60.5,182.5"></path><path id="kity_path_35" fill="none" stroke="rgb(115, 191, 118)" stroke-width="1" d="M40.5,136.5V234.5L60.5,234.5"></path><path id="kity_path_37" fill="none" stroke="rgb(115, 191, 118)" stroke-width="1" d="M40.5,136.5V286.5L60.5,286.5"></path><path id="kity_path_39" fill="none" stroke="rgb(115, 191, 118)" stroke-width="1" d="M517.5,60.5v30h149V110.5"></path><path id="kity_path_41" fill="none" stroke="rgb(115, 191, 118)" stroke-width="1" d="M617.5,136.5V182.5L637.5,182.5"></path><path id="kity_path_43" fill="none" stroke="rgb(115, 191, 118)" stroke-width="1" d="M617.5,136.5V234.5L637.5,234.5"></path><path id="kity_path_45" fill="none" stroke="rgb(115, 191, 118)" stroke-width="1" d="M617.5,136.5V286.5L637.5,286.5"></path><path id="kity_path_47" fill="none" stroke="rgb(115, 191, 118)" stroke-width="1" d="M657.5,297.5V338.5L677.5,338.5"></path><path id="kity_path_49" fill="none" stroke="rgb(115, 191, 118)" stroke-width="1" d="M657.5,297.5V390.5L677.5,390.5"></path><path id="kity_path_51" fill="none" stroke="rgb(115, 191, 118)" stroke-width="1" d="M657.5,297.5V442.5L677.5,442.5"></path><path id="kity_path_53" fill="none" stroke="rgb(115, 191, 118)" stroke-width="1" d="M657.5,297.5V494.5L677.5,494.5"></path><path id="kity_path_55" fill="none" stroke="rgb(115, 191, 118)" stroke-width="1" d="M657.5,297.5V546.5L677.5,546.5"></path><path id="kity_path_57" fill="none" stroke="rgb(115, 191, 118)" stroke-width="1" d="M657.5,297.5V598.5L677.5,598.5"></path><path id="kity_path_59" fill="none" stroke="rgb(115, 191, 118)" stroke-width="1" d="M657.5,297.5V650.5L677.5,650.5"></path><path id="kity_path_61" fill="none" stroke="rgb(115, 191, 118)" stroke-width="1" d="M617.5,136.5V702.5L637.5,702.5"></path><path id="kity_path_63" fill="none" stroke="rgb(115, 191, 118)" stroke-width="1" d="M517.5,60.5v30h621V109.5"></path><path id="kity_path_65" fill="none" stroke="rgb(115, 191, 118)" stroke-width="1" d="M1103.5,135.5V181.5L1123.5,181.5"></path><path id="kity_path_67" fill="none" stroke="rgb(115, 191, 118)" stroke-width="1" d="M1103.5,135.5V233.5L1123.5,233.5"></path><path id="kity_path_69" fill="none" stroke="rgb(115, 191, 118)" stroke-width="1" d="M1103.5,135.5V285.5L1123.5,285.5"></path><path id="kity_path_71" fill="none" stroke="rgb(115, 191, 118)" stroke-width="1" d="M1103.5,135.5V337.5L1123.5,337.5"></path><path id="kity_path_73" fill="none" stroke="rgb(115, 191, 118)" stroke-width="1" d="M1103.5,135.5V389.5L1123.5,389.5"></path></g><g id="minder_node1"><path id="node_outline1" fill="rgb(115, 191, 118)" stroke="rgb(57, 96, 58)" d="M426.5,20.5h182a5,5,0,0,1,5,5v30a5,5,0,0,1,-5,5h-182a5,5,0,0,1,-5,-5v-30a5,5,0,0,1,5,-5z" stroke-width="3"></path><g id="node_text1" fill="white"><text id="kity_text_22" text-rendering="inherit" font-size="16" dy=".8em" y="32.5" x="445.5">重要的事情只有一件</text></g></g><g id="kity_g_12"><path id="kity_path_13" fill="none" stroke="none" d="M445.5,40.5h0v0h0z"></path></g><g id="kity_g_14"><path id="kity_path_15" fill="none" stroke="none" d="M445.5,40.5h0v0h0z"></path><path id="kity_path_16" fill="none" stroke="none"></path></g><g id="minder_node2"><g id="node_expander4" style="cursor: pointer;"><path id="kity_path_150" fill="white" stroke="gray" d="M109.5,103.5A6,6,0,1,1,97.5,103.5A6,6,0,1,1,109.5,103.5"></path><path id="kity_path_151" fill="none" stroke="gray" d="M99,103.5L108,103.5"></path></g><path id="node_outline5" fill="rgb(238, 246, 238)" stroke="rgb(115, 191, 118)" d="M23.5,110.5h160a3,3,0,0,1,3,3v20a3,3,0,0,1,-3,3h-160a3,3,0,0,1,-3,-3v-20a3,3,0,0,1,3,-3z" stroke-width="1"></path><g id="node_text5" fill="black"><text id="kity_text_81" text-rendering="inherit" font-size="14" dy=".8em" y="116.5" x="40.5">一段时间只做一件事</text></g></g><g id="minder_node3"><g id="node_expander1" display="none" style="cursor: pointer;"><path id="kity_path_141" fill="white" stroke="gray" d="M60.5,182.5A6,6,0,1,1,48.5,182.5A6,6,0,1,1,60.5,182.5"></path><path id="kity_path_142" fill="none" stroke="gray"></path></g><path id="node_outline2" fill="none" stroke="none" d="M65.5,171.5h202a5,5,0,0,1,5,5v12a5,5,0,0,1,-5,5h-202a5,5,0,0,1,-5,-5v-12a5,5,0,0,1,5,-5z"></path><g id="node_text2" fill="black"><text id="kity_text_75" text-rendering="inherit" font-size="12" dy=".8em" y="176.5" x="70.5">若同时追两只兔子，你一只也抓不到</text></g></g><g id="minder_node4"><g id="node_expander2" display="none" style="cursor: pointer;"><path id="kity_path_144" fill="white" stroke="gray" d="M60.5,234.5A6,6,0,1,1,48.5,234.5A6,6,0,1,1,60.5,234.5"></path><path id="kity_path_145" fill="none" stroke="gray"></path></g><path id="node_outline3" fill="none" stroke="none" d="M65.5,223.5h346a5,5,0,0,1,5,5v12a5,5,0,0,1,-5,5h-346a5,5,0,0,1,-5,-5v-12a5,5,0,0,1,5,-5z"></path><g id="node_text3" fill="black"><text id="kity_text_77" text-rendering="inherit" font-size="12" dy=".8em" y="228.5" x="70.5">最重要的事只有一件。重要的事有很多，但最重要的事只有一件</text></g></g><g id="minder_node5"><g id="node_expander3" display="none" style="cursor: pointer;"><path id="kity_path_147" fill="white" stroke="gray" d="M60.5,286.5A6,6,0,1,1,48.5,286.5A6,6,0,1,1,60.5,286.5"></path><path id="kity_path_148" fill="none" stroke="gray"></path></g><path id="node_outline4" fill="none" stroke="none" d="M65.5,275.5h298a5,5,0,0,1,5,5v12a5,5,0,0,1,-5,5h-298a5,5,0,0,1,-5,-5v-12a5,5,0,0,1,5,-5z"></path><g id="node_text4" fill="black"><text id="kity_text_79" text-rendering="inherit" font-size="12" dy=".8em" y="280.5" x="70.5">所有成功故事的背后都有成功者对目标始终如一的坚守</text></g></g><g id="minder_node6"><g id="node_expander16" style="cursor: pointer;"><path id="kity_path_186" fill="white" stroke="gray" d="M672.5,103.5A6,6,0,1,1,660.5,103.5A6,6,0,1,1,672.5,103.5"></path><path id="kity_path_187" fill="none" stroke="gray" d="M662,103.5L671,103.5"></path></g><path id="node_outline17" fill="rgb(238, 246, 238)" stroke="rgb(115, 191, 118)" d="M600.5,110.5h132a3,3,0,0,1,3,3v20a3,3,0,0,1,-3,3h-132a3,3,0,0,1,-3,-3v-20a3,3,0,0,1,3,-3z" stroke-width="1"></path><g id="node_text17" fill="black"><text id="kity_text_105" text-rendering="inherit" font-size="14" dy=".8em" y="116.5" x="617.5">如何确定优先级</text></g></g><g id="minder_node7"><g id="node_expander5" display="none" style="cursor: pointer;"><path id="kity_path_153" fill="white" stroke="gray" d="M637.5,182.5A6,6,0,1,1,625.5,182.5A6,6,0,1,1,637.5,182.5"></path><path id="kity_path_154" fill="none" stroke="gray"></path></g><path id="node_outline6" fill="none" stroke="none" d="M642.5,171.5h262a5,5,0,0,1,5,5v12a5,5,0,0,1,-5,5h-262a5,5,0,0,1,-5,-5v-12a5,5,0,0,1,5,-5z"></path><g id="node_text6" fill="black"><text id="kity_text_83" text-rendering="inherit" font-size="12" dy=".8em" y="176.5" x="647.5">你的现在和将来正被你当下事物的优先级所左右</text></g></g><g id="minder_node8"><g id="node_expander6" display="none" style="cursor: pointer;"><path id="kity_path_156" fill="white" stroke="gray" d="M637.5,234.5A6,6,0,1,1,625.5,234.5A6,6,0,1,1,637.5,234.5"></path><path id="kity_path_157" fill="none" stroke="gray"></path></g><path id="node_outline7" fill="none" stroke="none" d="M642.5,223.5h334a5,5,0,0,1,5,5v12a5,5,0,0,1,-5,5h-334a5,5,0,0,1,-5,-5v-12a5,5,0,0,1,5,-5z"></path><g id="node_text7" fill="black"><text id="kity_text_85" text-rendering="inherit" font-size="12" dy=".8em" y="228.5" x="647.5">现实发现：人们更看重眼前的利益，尽管长期利益要丰厚得多</text></g></g><g id="minder_node9"><g id="node_expander14" style="cursor: pointer;"><path id="kity_path_180" fill="white" stroke="gray" d="M637.5,286.5A6,6,0,1,1,625.5,286.5A6,6,0,1,1,637.5,286.5"></path><path id="kity_path_181" fill="none" stroke="gray" d="M627,286.5L636,286.5"></path></g><path id="node_outline15" fill="none" stroke="none" d="M642.5,275.5h358a5,5,0,0,1,5,5v12a5,5,0,0,1,-5,5h-358a5,5,0,0,1,-5,-5v-12a5,5,0,0,1,5,-5z"></path><g id="node_text15" fill="black"><text id="kity_text_101" text-rendering="inherit" font-size="12" dy=".8em" y="280.5" x="647.5">需要一种简洁的思维方式来解放自我，确定优先级，从而接近目标</text></g></g><g id="minder_node10"><g id="node_expander7" display="none" style="cursor: pointer;"><path id="kity_path_159" fill="white" stroke="gray" d="M677.5,338.5A6,6,0,1,1,665.5,338.5A6,6,0,1,1,677.5,338.5"></path><path id="kity_path_160" fill="none" stroke="gray"></path></g><path id="node_outline8" fill="none" stroke="none" d="M682.5,327.5h94a5,5,0,0,1,5,5v12a5,5,0,0,1,-5,5h-94a5,5,0,0,1,-5,-5v-12a5,5,0,0,1,5,-5z"></path><g id="node_text8" fill="black"><text id="kity_text_87" text-rendering="inherit" font-size="12" dy=".8em" y="332.5" x="687.5">倒推法设立目标</text></g></g><g id="minder_node11"><g id="node_expander8" display="none" style="cursor: pointer;"><path id="kity_path_162" fill="white" stroke="gray" d="M677.5,390.5A6,6,0,1,1,665.5,390.5A6,6,0,1,1,677.5,390.5"></path><path id="kity_path_163" fill="none" stroke="gray"></path></g><path id="node_outline9" fill="none" stroke="none" d="M682.5,379.5h94a5,5,0,0,1,5,5v12a5,5,0,0,1,-5,5h-94a5,5,0,0,1,-5,-5v-12a5,5,0,0,1,5,-5z"></path><g id="node_text9" fill="black"><text id="kity_text_89" text-rendering="inherit" font-size="12" dy=".8em" y="384.5" x="687.5">长期目标是什么</text></g></g><g id="minder_node12"><g id="node_expander9" display="none" style="cursor: pointer;"><path id="kity_path_165" fill="white" stroke="gray" d="M677.5,442.5A6,6,0,1,1,665.5,442.5A6,6,0,1,1,677.5,442.5"></path><path id="kity_path_166" fill="none" stroke="gray"></path></g><path id="node_outline10" fill="none" stroke="none" d="M682.5,431.5h257a5,5,0,0,1,5,5v12a5,5,0,0,1,-5,5h-257a5,5,0,0,1,-5,-5v-12a5,5,0,0,1,5,-5z"></path><g id="node_text10" fill="black"><text id="kity_text_91" text-rendering="inherit" font-size="12" dy=".8em" y="436.5" x="687.5">基于长期目标，未来5年最重要的一件事是什么</text></g></g><g id="minder_node13"><g id="node_expander10" display="none" style="cursor: pointer;"><path id="kity_path_168" fill="white" stroke="gray" d="M677.5,494.5A6,6,0,1,1,665.5,494.5A6,6,0,1,1,677.5,494.5"></path><path id="kity_path_169" fill="none" stroke="gray"></path></g><path id="node_outline11" fill="none" stroke="none" d="M682.5,483.5h233a5,5,0,0,1,5,5v12a5,5,0,0,1,-5,5h-233a5,5,0,0,1,-5,-5v-12a5,5,0,0,1,5,-5z"></path><g id="node_text11" fill="black"><text id="kity_text_93" text-rendering="inherit" font-size="12" dy=".8em" y="488.5" x="687.5">基于5年目标，今年最重要的一件事是什么</text></g></g><g id="minder_node14"><g id="node_expander11" display="none" style="cursor: pointer;"><path id="kity_path_171" fill="white" stroke="gray" d="M677.5,546.5A6,6,0,1,1,665.5,546.5A6,6,0,1,1,677.5,546.5"></path><path id="kity_path_172" fill="none" stroke="gray"></path></g><path id="node_outline12" fill="none" stroke="none" d="M682.5,535.5h238a5,5,0,0,1,5,5v12a5,5,0,0,1,-5,5h-238a5,5,0,0,1,-5,-5v-12a5,5,0,0,1,5,-5z"></path><g id="node_text12" fill="black"><text id="kity_text_95" text-rendering="inherit" font-size="12" dy=".8em" y="540.5" x="687.5">基于今年目标，本月最重要的一件事是什么</text></g></g><g id="minder_node15"><g id="node_expander12" display="none" style="cursor: pointer;"><path id="kity_path_174" fill="white" stroke="gray" d="M677.5,598.5A6,6,0,1,1,665.5,598.5A6,6,0,1,1,677.5,598.5"></path><path id="kity_path_175" fill="none" stroke="gray"></path></g><path id="node_outline13" fill="none" stroke="none" d="M682.5,587.5h226a5,5,0,0,1,5,5v12a5,5,0,0,1,-5,5h-226a5,5,0,0,1,-5,-5v-12a5,5,0,0,1,5,-5z"></path><g id="node_text13" fill="black"><text id="kity_text_97" text-rendering="inherit" font-size="12" dy=".8em" y="592.5" x="687.5">基于月目标，本周最重要的一件事是什么</text></g></g><g id="minder_node16"><g id="node_expander13" display="none" style="cursor: pointer;"><path id="kity_path_177" fill="white" stroke="gray" d="M677.5,650.5A6,6,0,1,1,665.5,650.5A6,6,0,1,1,677.5,650.5"></path><path id="kity_path_178" fill="none" stroke="gray"></path></g><path id="node_outline14" fill="none" stroke="none" d="M682.5,639.5h250a5,5,0,0,1,5,5v12a5,5,0,0,1,-5,5h-250a5,5,0,0,1,-5,-5v-12a5,5,0,0,1,5,-5z"></path><g id="node_text14" fill="black"><text id="kity_text_99" text-rendering="inherit" font-size="12" dy=".8em" y="644.5" x="687.5">基于周目标，今天现在最重要的一件事是什么</text></g></g><g id="minder_node17"><g id="node_expander15" display="none" style="cursor: pointer;"><path id="kity_path_183" fill="white" stroke="gray" d="M637.5,702.5A6,6,0,1,1,625.5,702.5A6,6,0,1,1,637.5,702.5"></path><path id="kity_path_184" fill="none" stroke="gray"></path></g><path id="node_outline16" fill="none" stroke="none" d="M642.5,691.5h178a5,5,0,0,1,5,5v12a5,5,0,0,1,-5,5h-178a5,5,0,0,1,-5,-5v-12a5,5,0,0,1,5,-5z"></path><g id="node_text16" fill="black"><text id="kity_text_103" text-rendering="inherit" font-size="12" dy=".8em" y="696.5" x="647.5">落于笔头，把每一步目标写下来</text></g></g><g id="minder_node18"><g id="node_expander22" style="cursor: pointer;"><path id="kity_path_204" fill="white" stroke="gray" d="M1144.5,102.5A6,6,0,1,1,1132.5,102.5A6,6,0,1,1,1144.5,102.5"></path><path id="kity_path_205" fill="none" stroke="gray" d="M1134,102.5L1143,102.5"></path></g><path id="node_outline23" fill="rgb(238, 246, 238)" stroke="rgb(115, 191, 118)" d="M1086.5,109.5h104a3,3,0,0,1,3,3v20a3,3,0,0,1,-3,3h-104a3,3,0,0,1,-3,-3v-20a3,3,0,0,1,3,-3z" stroke-width="1"></path><g id="node_text23" fill="black"><text id="kity_text_117" text-rendering="inherit" font-size="14" dy=".8em" y="115.5" x="1103.5">高效的生活</text></g></g><g id="minder_node19"><g id="node_expander17" display="none" style="cursor: pointer;"><path id="kity_path_189" fill="white" stroke="gray" d="M1123.5,181.5A6,6,0,1,1,1111.5,181.5A6,6,0,1,1,1123.5,181.5"></path><path id="kity_path_190" fill="none" stroke="gray"></path></g><path id="node_outline18" fill="none" stroke="none" d="M1128.5,170.5h82a5,5,0,0,1,5,5v12a5,5,0,0,1,-5,5h-82a5,5,0,0,1,-5,-5v-12a5,5,0,0,1,5,-5z"></path><g id="node_text18" fill="black"><text id="kity_text_107" text-rendering="inherit" font-size="12" dy=".8em" y="175.5" x="1133.5">留出空闲时间</text></g></g><g id="minder_node20"><g id="node_expander18" display="none" style="cursor: pointer;"><path id="kity_path_192" fill="white" stroke="gray" d="M1123.5,233.5A6,6,0,1,1,1111.5,233.5A6,6,0,1,1,1123.5,233.5"></path><path id="kity_path_193" fill="none" stroke="gray"></path></g><path id="node_outline19" fill="none" stroke="none" d="M1128.5,222.5h130a5,5,0,0,1,5,5v12a5,5,0,0,1,-5,5h-130a5,5,0,0,1,-5,-5v-12a5,5,0,0,1,5,-5z"></path><g id="node_text19" fill="black"><text id="kity_text_109" text-rendering="inherit" font-size="12" dy=".8em" y="227.5" x="1133.5">留出做优先事物的时间</text></g></g><g id="minder_node21"><g id="node_expander19" display="none" style="cursor: pointer;"><path id="kity_path_195" fill="white" stroke="gray" d="M1123.5,285.5A6,6,0,1,1,1111.5,285.5A6,6,0,1,1,1123.5,285.5"></path><path id="kity_path_196" fill="none" stroke="gray"></path></g><path id="node_outline20" fill="none" stroke="none" d="M1128.5,274.5h106a5,5,0,0,1,5,5v12a5,5,0,0,1,-5,5h-106a5,5,0,0,1,-5,-5v-12a5,5,0,0,1,5,-5z"></path><g id="node_text20" fill="black"><text id="kity_text_111" text-rendering="inherit" font-size="12" dy=".8em" y="279.5" x="1133.5">留出做计划的时间</text></g></g><g id="minder_node22"><g id="node_expander20" display="none" style="cursor: pointer;"><path id="kity_path_198" fill="white" stroke="gray" d="M1123.5,337.5A6,6,0,1,1,1111.5,337.5A6,6,0,1,1,1123.5,337.5"></path><path id="kity_path_199" fill="none" stroke="gray"></path></g><path id="node_outline21" fill="none" stroke="none" d="M1128.5,326.5h190a5,5,0,0,1,5,5v12a5,5,0,0,1,-5,5h-190a5,5,0,0,1,-5,-5v-12a5,5,0,0,1,5,-5z"></path><g id="node_text21" fill="black"><text id="kity_text_113" text-rendering="inherit" font-size="12" dy=".8em" y="331.5" x="1133.5">一顿营养丰富的早餐能为一天供能</text></g></g><g id="minder_node23"><g id="node_expander21" display="none" style="cursor: pointer;"><path id="kity_path_201" fill="white" stroke="gray" d="M1123.5,389.5A6,6,0,1,1,1111.5,389.5A6,6,0,1,1,1123.5,389.5"></path><path id="kity_path_202" fill="none" stroke="gray"></path></g><path id="node_outline22" fill="none" stroke="none" d="M1128.5,378.5h70a5,5,0,0,1,5,5v12a5,5,0,0,1,-5,5h-70a5,5,0,0,1,-5,-5v-12a5,5,0,0,1,5,-5z"></path><g id="node_text22" fill="black"><text id="kity_text_115" text-rendering="inherit" font-size="12" dy=".8em" y="383.5" x="1133.5">运动很重要</text></g></g></g></g></svg>