<svg id="kity_svg_6" xmlns="http://www.w3.org/2000/svg" xmlns:xlink="http://www.w3.org/1999/xlink" version="1.1" width="1145" height="689" style="background: rgb(251, 251, 251); visibility: visible;" viewBox="0 0 1145 689"><defs id="kity_defs_7"><linearGradient id="kity_linearGradient_17" x1="0" y1="0" x2="0" y2="1"><stop id="kity_stop_18" offset="0" stop-color="rgb(255, 255, 255)"></stop><stop id="kity_stop_19" offset="1" stop-color="rgb(204, 204, 204)"></stop></linearGradient><marker id="kity_marker_2" orient="auto" refX="6" refY="0" viewBox="-7 -7 14 14" markerWidth="7" markerHeight="7" markerUnits="userSpaceOnUse"><path id="kity_path_3" fill="rgb(115, 191, 118)" stroke="none" d="M6,0A6,6,0,1,1,-6,0A6,6,0,1,1,6,0"></path></marker></defs><g id="kity_g_8"><g id="minder1" text-rendering="geometricPrecision"><g id="minder_connect_group1"><path id="kity_path_31" fill="none" stroke="rgb(115, 191, 118)" stroke-width="1" d="M507,343.5A180.5,0,0,0,1,687.5,343.5"></path><path id="kity_path_33" fill="none" stroke="rgb(115, 191, 118)" stroke-width="1" d="M824.5,343.5C839.5,343.5,839.5,71.5,854.5,71.5L914.5,71.5"></path><path id="kity_path_35" fill="none" stroke="rgb(115, 191, 118)" stroke-width="1" d="M824.5,343.5C839.5,343.5,839.5,123.5,854.5,123.5L914.5,123.5"></path><path id="kity_path_37" fill="none" stroke="rgb(115, 191, 118)" stroke-width="1" d="M824.5,343.5C839.5,343.5,839.5,175.5,854.5,175.5L935.5,175.5"></path><path id="kity_path_39" fill="none" stroke="rgb(115, 191, 118)" stroke-width="1" d="M824.5,343.5C839.5,343.5,839.5,227.5,854.5,227.5L947.5,227.5"></path><path id="kity_path_41" fill="none" stroke="rgb(115, 191, 118)" stroke-width="1" d="M824.5,343.5C839.5,343.5,839.5,279.5,854.5,279.5L915.5,279.5"></path><path id="kity_path_43" fill="none" stroke="rgb(115, 191, 118)" stroke-width="1" d="M824.5,343.5C839.5,343.5,839.5,331.5,854.5,331.5L922.5,331.5"></path><path id="kity_path_45" fill="none" stroke="rgb(115, 191, 118)" stroke-width="1" d="M824.5,343.5C839.5,343.5,839.5,383.5,854.5,383.5L915.5,383.5"></path><path id="kity_path_47" fill="none" stroke="rgb(115, 191, 118)" stroke-width="1" d="M824.5,343.5C839.5,343.5,839.5,435.5,854.5,435.5L911.5,435.5"></path><path id="kity_path_49" fill="none" stroke="rgb(115, 191, 118)" stroke-width="1" d="M824.5,343.5C839.5,343.5,839.5,539.5,854.5,539.5L960.5,539.5"></path><path id="kity_path_51" fill="none" stroke="rgb(115, 191, 118)" stroke-width="1" d="M960.5,539.5C975.5,539.5,975.5,487.5,990.5,487.5L1082.5,487.5"></path><path id="kity_path_53" fill="none" stroke="rgb(115, 191, 118)" stroke-width="1" d="M960.5,539.5C975.5,539.5,975.5,539.5,990.5,539.5L1125.5,539.5"></path><path id="kity_path_55" fill="none" stroke="rgb(115, 191, 118)" stroke-width="1" d="M960.5,539.5C975.5,539.5,975.5,591.5,990.5,591.5L1038.5,591.5"></path><path id="kity_path_57" fill="none" stroke="rgb(115, 191, 118)" stroke-width="1" d="M824.5,343.5C839.5,343.5,839.5,643.5,854.5,643.5L973.5,643.5"></path><path id="kity_path_59" fill="none" stroke="rgb(115, 191, 118)" stroke-width="1" d="M507,343.5A180.5,0,0,0,1,326.5,343.5"></path><path id="kity_path_61" fill="none" stroke="rgb(115, 191, 118)" stroke-width="1" d="M214.5,343.5C199.5,343.5,199.5,45.5,184.5,45.5L115.5,45.5"></path><path id="kity_path_63" fill="none" stroke="rgb(115, 191, 118)" stroke-width="1" d="M214.5,343.5C199.5,343.5,199.5,97.5,184.5,97.5L116.5,97.5"></path><path id="kity_path_65" fill="none" stroke="rgb(115, 191, 118)" stroke-width="1" d="M214.5,343.5C199.5,343.5,199.5,149.5,184.5,149.5L39.5,149.5"></path><path id="kity_path_67" fill="none" stroke="rgb(115, 191, 118)" stroke-width="1" d="M214.5,343.5C199.5,343.5,199.5,201.5,184.5,201.5L112.5,201.5"></path><path id="kity_path_69" fill="none" stroke="rgb(115, 191, 118)" stroke-width="1" d="M214.5,343.5C199.5,343.5,199.5,253.5,184.5,253.5L102.5,253.5"></path><path id="kity_path_71" fill="none" stroke="rgb(115, 191, 118)" stroke-width="1" d="M214.5,343.5C199.5,343.5,199.5,305.5,184.5,305.5L76.5,305.5"></path><path id="kity_path_73" fill="none" stroke="rgb(115, 191, 118)" stroke-width="1" d="M214.5,343.5C199.5,343.5,199.5,357.5,184.5,357.5L20.5,357.5"></path><path id="kity_path_75" fill="none" stroke="rgb(115, 191, 118)" stroke-width="1" d="M214.5,343.5C199.5,343.5,199.5,409.5,184.5,409.5L68.5,409.5"></path><path id="kity_path_77" fill="none" stroke="rgb(115, 191, 118)" stroke-width="1" d="M214.5,343.5C199.5,343.5,199.5,461.5,184.5,461.5L123.5,461.5"></path><path id="kity_path_79" fill="none" stroke="rgb(115, 191, 118)" stroke-width="1" d="M214.5,343.5C199.5,343.5,199.5,513.5,184.5,513.5L90.5,513.5"></path><path id="kity_path_81" fill="none" stroke="rgb(115, 191, 118)" stroke-width="1" d="M214.5,343.5C199.5,343.5,199.5,565.5,184.5,565.5L115.5,565.5"></path><path id="kity_path_83" fill="none" stroke="rgb(115, 191, 118)" stroke-width="1" d="M214.5,343.5C199.5,343.5,199.5,617.5,184.5,617.5L84.5,617.5"></path><path id="kity_path_85" fill="none" stroke="rgb(115, 191, 118)" stroke-width="1" d="M214.5,343.5C199.5,343.5,199.5,669.5,184.5,669.5L43.5,669.5"></path></g><g id="minder_node1"><path id="kity_path_256" fill="rgba(0, 0, 0, .25)" stroke="none" d="M469.5,326.5h122a22,22,0,0,1,22,22v0a22,22,0,0,1,-22,22h-122a22,22,0,0,1,-22,-22v0a22,22,0,0,1,22,-22z" display="none"></path><path id="node_outline1" fill="rgb(115, 191, 118)" stroke="rgb(115, 191, 118)" d="M449.5,323.5h115a5,5,0,0,1,5,5v30a5,5,0,0,1,-5,5h-115a5,5,0,0,1,-5,-5v-30a5,5,0,0,1,5,-5z" stroke-width="3"></path><g id="node_text1" fill="white"><text id="kity_text_22" text-rendering="inherit" font-size="16" dy=".8em" y="335.5" x="468.5">ds &amp; algm</text></g></g><g id="kity_g_12"><path id="kity_path_13" fill="none" stroke="none" d="M468.5,343.5h0v0h0z"></path></g><g id="kity_g_14"><path id="kity_path_15" fill="none" stroke="none" d="M468.5,343.5h0v0h0z"></path><path id="kity_path_16" fill="none" stroke="none"></path></g><g id="minder_node2"><path id="kity_path_254" fill="rgba(0, 0, 0, .25)" stroke="none" d="M708.5,335.5h119a10,10,0,0,1,10,10v6a10,10,0,0,1,-10,10h-119a10,10,0,0,1,-10,-10v-6a10,10,0,0,1,10,-10z" display="none"></path><g id="node_expander14" style="cursor: pointer;"><path id="kity_path_210" fill="white" stroke="gray" d="M688.5,343.5A6,6,0,1,1,676.5,343.5A6,6,0,1,1,688.5,343.5"></path><path id="kity_path_211" fill="none" stroke="gray" d="M678,343.5L687,343.5"></path></g><path id="node_outline15" fill="rgb(238, 246, 238)" stroke="rgb(115, 191, 118)" d="M692.5,330.5h129a3,3,0,0,1,3,3v20a3,3,0,0,1,-3,3h-129a3,3,0,0,1,-3,-3v-20a3,3,0,0,1,3,-3z" stroke-width="1"></path><g id="node_text15" fill="black"><text id="kity_text_113" text-rendering="inherit" font-size="14" dy=".8em" y="336.5" x="709.5">data structure</text></g></g><g id="minder_node3"><g id="node_expander1" style="cursor: pointer;" display="none"><path id="kity_path_171" fill="white" stroke="gray" d="M864.5,57.5A6,6,0,1,1,852.5,57.5A6,6,0,1,1,864.5,57.5"></path><path id="kity_path_172" fill="none" stroke="gray"></path></g><path id="node_outline2" fill="none" stroke="none" d="M869.5,46.5h40a5,5,0,0,1,5,5v12a5,5,0,0,1,-5,5h-40a5,5,0,0,1,-5,-5v-12a5,5,0,0,1,5,-5z"></path><g id="node_text2" fill="black"><text id="kity_text_87" text-rendering="inherit" font-size="12" dy=".8em" y="51.5" x="874.5">array</text></g></g><g id="minder_node4"><g id="node_expander2" style="cursor: pointer;" display="none"><path id="kity_path_174" fill="white" stroke="gray" d="M864.5,109.5A6,6,0,1,1,852.5,109.5A6,6,0,1,1,864.5,109.5"></path><path id="kity_path_175" fill="none" stroke="gray"></path></g><path id="node_outline3" fill="none" stroke="none" d="M869.5,98.5h40a5,5,0,0,1,5,5v12a5,5,0,0,1,-5,5h-40a5,5,0,0,1,-5,-5v-12a5,5,0,0,1,5,-5z"></path><g id="node_text3" fill="black"><text id="kity_text_89" text-rendering="inherit" font-size="12" dy=".8em" y="103.5" x="874.5">string</text></g></g><g id="minder_node5"><g id="node_expander3" style="cursor: pointer;" display="none"><path id="kity_path_177" fill="white" stroke="gray" d="M864.5,161.5A6,6,0,1,1,852.5,161.5A6,6,0,1,1,864.5,161.5"></path><path id="kity_path_178" fill="none" stroke="gray"></path></g><path id="node_outline4" fill="none" stroke="none" d="M869.5,150.5h61a5,5,0,0,1,5,5v12a5,5,0,0,1,-5,5h-61a5,5,0,0,1,-5,-5v-12a5,5,0,0,1,5,-5z"></path><g id="node_text4" fill="black"><text id="kity_text_91" text-rendering="inherit" font-size="12" dy=".8em" y="155.5" x="874.5">linked list</text></g></g><g id="minder_node6"><g id="node_expander4" style="cursor: pointer;" display="none"><path id="kity_path_180" fill="white" stroke="gray" d="M864.5,213.5A6,6,0,1,1,852.5,213.5A6,6,0,1,1,864.5,213.5"></path><path id="kity_path_181" fill="none" stroke="gray"></path></g><path id="node_outline5" fill="none" stroke="none" d="M869.5,202.5h73a5,5,0,0,1,5,5v12a5,5,0,0,1,-5,5h-73a5,5,0,0,1,-5,-5v-12a5,5,0,0,1,5,-5z"></path><g id="node_text5" fill="black"><text id="kity_text_93" text-rendering="inherit" font-size="12" dy=".8em" y="207.5" x="874.5">matrix/grid</text></g></g><g id="minder_node7"><g id="node_expander5" style="cursor: pointer;" display="none"><path id="kity_path_183" fill="white" stroke="gray" d="M864.5,265.5A6,6,0,1,1,852.5,265.5A6,6,0,1,1,864.5,265.5"></path><path id="kity_path_184" fill="none" stroke="gray"></path></g><path id="node_outline6" fill="none" stroke="none" d="M869.5,254.5h41a5,5,0,0,1,5,5v12a5,5,0,0,1,-5,5h-41a5,5,0,0,1,-5,-5v-12a5,5,0,0,1,5,-5z"></path><g id="node_text6" fill="black"><text id="kity_text_95" text-rendering="inherit" font-size="12" dy=".8em" y="259.5" x="874.5">stack</text></g></g><g id="minder_node8"><g id="node_expander6" style="cursor: pointer;" display="none"><path id="kity_path_186" fill="white" stroke="gray" d="M864.5,317.5A6,6,0,1,1,852.5,317.5A6,6,0,1,1,864.5,317.5"></path><path id="kity_path_187" fill="none" stroke="gray"></path></g><path id="node_outline7" fill="none" stroke="none" d="M869.5,306.5h48a5,5,0,0,1,5,5v12a5,5,0,0,1,-5,5h-48a5,5,0,0,1,-5,-5v-12a5,5,0,0,1,5,-5z"></path><g id="node_text7" fill="black"><text id="kity_text_97" text-rendering="inherit" font-size="12" dy=".8em" y="311.5" x="874.5">queue</text></g></g><g id="minder_node9"><g id="node_expander7" style="cursor: pointer;" display="none"><path id="kity_path_189" fill="white" stroke="gray" d="M864.5,369.5A6,6,0,1,1,852.5,369.5A6,6,0,1,1,864.5,369.5"></path><path id="kity_path_190" fill="none" stroke="gray"></path></g><path id="node_outline8" fill="none" stroke="none" d="M869.5,358.5h41a5,5,0,0,1,5,5v12a5,5,0,0,1,-5,5h-41a5,5,0,0,1,-5,-5v-12a5,5,0,0,1,5,-5z"></path><g id="node_text8" fill="black"><text id="kity_text_99" text-rendering="inherit" font-size="12" dy=".8em" y="363.5" x="874.5">heap</text></g></g><g id="minder_node10"><g id="node_expander8" style="cursor: pointer;" display="none"><path id="kity_path_192" fill="white" stroke="gray" d="M864.5,421.5A6,6,0,1,1,852.5,421.5A6,6,0,1,1,864.5,421.5"></path><path id="kity_path_193" fill="none" stroke="gray"></path></g><path id="node_outline9" fill="none" stroke="none" d="M869.5,410.5h37a5,5,0,0,1,5,5v12a5,5,0,0,1,-5,5h-37a5,5,0,0,1,-5,-5v-12a5,5,0,0,1,5,-5z"></path><g id="node_text9" fill="black"><text id="kity_text_101" text-rendering="inherit" font-size="12" dy=".8em" y="415.5" x="874.5">hash</text></g></g><g id="minder_node11"><g id="node_expander12" style="cursor: pointer;"><path id="kity_path_204" fill="white" stroke="gray" d="M864.5,525.5A6,6,0,1,1,852.5,525.5A6,6,0,1,1,864.5,525.5"></path><path id="kity_path_205" fill="none" stroke="gray" d="M854,525.5L863,525.5"></path></g><path id="node_outline13" fill="none" stroke="none" d="M869.5,514.5h86a5,5,0,0,1,5,5v12a5,5,0,0,1,-5,5h-86a5,5,0,0,1,-5,-5v-12a5,5,0,0,1,5,-5z"></path><g id="node_text13" fill="black"><text id="kity_text_109" text-rendering="inherit" font-size="12" dy=".8em" y="519.5" x="874.5">tree structure</text></g></g><g id="minder_node12"><g id="node_expander9" style="cursor: pointer;" display="none"><path id="kity_path_195" fill="white" stroke="gray" d="M1000.5,473.5A6,6,0,1,1,988.5,473.5A6,6,0,1,1,1000.5,473.5"></path><path id="kity_path_196" fill="none" stroke="gray"></path></g><path id="node_outline10" fill="none" stroke="none" d="M1005.5,462.5h72a5,5,0,0,1,5,5v12a5,5,0,0,1,-5,5h-72a5,5,0,0,1,-5,-5v-12a5,5,0,0,1,5,-5z"></path><g id="node_text10" fill="black"><text id="kity_text_103" text-rendering="inherit" font-size="12" dy=".8em" y="467.5" x="1010.5">binary tree</text></g></g><g id="minder_node13"><g id="node_expander10" style="cursor: pointer;" display="none"><path id="kity_path_198" fill="white" stroke="gray" d="M1000.5,525.5A6,6,0,1,1,988.5,525.5A6,6,0,1,1,1000.5,525.5"></path><path id="kity_path_199" fill="none" stroke="gray"></path></g><path id="node_outline11" fill="none" stroke="none" d="M1005.5,514.5h115a5,5,0,0,1,5,5v12a5,5,0,0,1,-5,5h-115a5,5,0,0,1,-5,-5v-12a5,5,0,0,1,5,-5z"></path><g id="node_text11" fill="black"><text id="kity_text_105" text-rendering="inherit" font-size="12" dy=".8em" y="519.5" x="1010.5">binary search tree</text></g></g><g id="minder_node14"><g id="node_expander11" style="cursor: pointer;" display="none"><path id="kity_path_201" fill="white" stroke="gray" d="M1000.5,577.5A6,6,0,1,1,988.5,577.5A6,6,0,1,1,1000.5,577.5"></path><path id="kity_path_202" fill="none" stroke="gray"></path></g><path id="node_outline12" fill="none" stroke="none" d="M1005.5,566.5h28a5,5,0,0,1,5,5v12a5,5,0,0,1,-5,5h-28a5,5,0,0,1,-5,-5v-12a5,5,0,0,1,5,-5z"></path><g id="node_text12" fill="black"><text id="kity_text_107" text-rendering="inherit" font-size="12" dy=".8em" y="571.5" x="1010.5">trie</text></g></g><g id="minder_node15"><g id="node_expander13" style="cursor: pointer;" display="none"><path id="kity_path_207" fill="white" stroke="gray" d="M864.5,629.5A6,6,0,1,1,852.5,629.5A6,6,0,1,1,864.5,629.5"></path><path id="kity_path_208" fill="none" stroke="gray"></path></g><path id="node_outline14" fill="none" stroke="none" d="M869.5,618.5h99a5,5,0,0,1,5,5v12a5,5,0,0,1,-5,5h-99a5,5,0,0,1,-5,-5v-12a5,5,0,0,1,5,-5z"></path><g id="node_text14" fill="black"><text id="kity_text_111" text-rendering="inherit" font-size="12" dy=".8em" y="623.5" x="874.5">graph structure</text></g></g><g id="minder_node16"><path id="kity_path_255" fill="rgba(0, 0, 0, .25)" stroke="none" d="M233.5,335.5h90a10,10,0,0,1,10,10v6a10,10,0,0,1,-10,10h-90a10,10,0,0,1,-10,-10v-6a10,10,0,0,1,10,-10z" display="none"></path><g id="node_expander28" style="cursor: pointer;"><path id="kity_path_252" fill="white" stroke="gray" d="M337.5,343.5A6,6,0,1,1,325.5,343.5A6,6,0,1,1,337.5,343.5"></path><path id="kity_path_253" fill="none" stroke="gray" d="M327,343.5L336,343.5"></path></g><path id="node_outline29" fill="rgb(238, 246, 238)" stroke="rgb(115, 191, 118)" d="M217.5,330.5h104a3,3,0,0,1,3,3v20a3,3,0,0,1,-3,3h-104a3,3,0,0,1,-3,-3v-20a3,3,0,0,1,3,-3z" stroke-width="1"></path><g id="node_text29" fill="black"><text id="kity_text_141" text-rendering="inherit" font-size="14" dy=".8em" y="336.5" x="234.5">algorithms</text></g></g><g id="minder_node17"><g id="node_expander15" style="cursor: pointer;" display="none"><path id="kity_path_213" fill="white" stroke="gray" d="M186.5,31.5A6,6,0,1,1,174.5,31.5A6,6,0,1,1,186.5,31.5"></path><path id="kity_path_214" fill="none" stroke="gray"></path></g><path id="node_outline16" fill="none" stroke="none" d="M120.5,20.5h49a5,5,0,0,1,5,5v12a5,5,0,0,1,-5,5h-49a5,5,0,0,1,-5,-5v-12a5,5,0,0,1,5,-5z"></path><g id="node_text16" fill="black"><text id="kity_text_115" text-rendering="inherit" font-size="12" dy=".8em" y="25.5" x="125.5">search</text></g></g><g id="minder_node18"><g id="node_expander16" style="cursor: pointer;" display="none"><path id="kity_path_216" fill="white" stroke="gray" d="M186.5,83.5A6,6,0,1,1,174.5,83.5A6,6,0,1,1,186.5,83.5"></path><path id="kity_path_217" fill="none" stroke="gray"></path></g><path id="node_outline17" fill="none" stroke="none" d="M121.5,72.5h48a5,5,0,0,1,5,5v12a5,5,0,0,1,-5,5h-48a5,5,0,0,1,-5,-5v-12a5,5,0,0,1,5,-5z"></path><g id="node_text17" fill="black"><text id="kity_text_117" text-rendering="inherit" font-size="12" dy=".8em" y="77.5" x="126.5">sorting</text></g></g><g id="minder_node19"><g id="node_expander17" style="cursor: pointer;" display="none"><path id="kity_path_219" fill="white" stroke="gray" d="M186.5,135.5A6,6,0,1,1,174.5,135.5A6,6,0,1,1,186.5,135.5"></path><path id="kity_path_220" fill="none" stroke="gray"></path></g><path id="node_outline18" fill="none" stroke="none" d="M44.5,124.5h125a5,5,0,0,1,5,5v12a5,5,0,0,1,-5,5h-125a5,5,0,0,1,-5,-5v-12a5,5,0,0,1,5,-5z"></path><g id="node_text18" fill="black"><text id="kity_text_119" text-rendering="inherit" font-size="12" dy=".8em" y="129.5" x="49.5">divide and conquer</text></g></g><g id="minder_node20"><g id="node_expander18" style="cursor: pointer;" display="none"><path id="kity_path_222" fill="white" stroke="gray" d="M186.5,187.5A6,6,0,1,1,174.5,187.5A6,6,0,1,1,186.5,187.5"></path><path id="kity_path_223" fill="none" stroke="gray"></path></g><path id="node_outline19" fill="none" stroke="none" d="M117.5,176.5h52a5,5,0,0,1,5,5v12a5,5,0,0,1,-5,5h-52a5,5,0,0,1,-5,-5v-12a5,5,0,0,1,5,-5z"></path><g id="node_text19" fill="black"><text id="kity_text_121" text-rendering="inherit" font-size="12" dy=".8em" y="181.5" x="122.5">greedy</text></g></g><g id="minder_node21"><g id="node_expander19" style="cursor: pointer;" display="none"><path id="kity_path_225" fill="white" stroke="gray" d="M186.5,239.5A6,6,0,1,1,174.5,239.5A6,6,0,1,1,186.5,239.5"></path><path id="kity_path_226" fill="none" stroke="gray"></path></g><path id="node_outline20" fill="none" stroke="none" d="M107.5,228.5h62a5,5,0,0,1,5,5v12a5,5,0,0,1,-5,5h-62a5,5,0,0,1,-5,-5v-12a5,5,0,0,1,5,-5z"></path><g id="node_text20" fill="black"><text id="kity_text_123" text-rendering="inherit" font-size="12" dy=".8em" y="233.5" x="112.5">recursion</text></g></g><g id="minder_node22"><g id="node_expander20" style="cursor: pointer;" display="none"><path id="kity_path_228" fill="white" stroke="gray" d="M186.5,291.5A6,6,0,1,1,174.5,291.5A6,6,0,1,1,186.5,291.5"></path><path id="kity_path_229" fill="none" stroke="gray"></path></g><path id="node_outline21" fill="none" stroke="none" d="M81.5,280.5h88a5,5,0,0,1,5,5v12a5,5,0,0,1,-5,5h-88a5,5,0,0,1,-5,-5v-12a5,5,0,0,1,5,-5z"></path><g id="node_text21" fill="black"><text id="kity_text_125" text-rendering="inherit" font-size="12" dy=".8em" y="285.5" x="86.5">backtracking</text></g></g><g id="minder_node23"><g id="node_expander21" style="cursor: pointer;" display="none"><path id="kity_path_231" fill="white" stroke="gray" d="M186.5,343.5A6,6,0,1,1,174.5,343.5A6,6,0,1,1,186.5,343.5"></path><path id="kity_path_232" fill="none" stroke="gray"></path></g><path id="node_outline22" fill="none" stroke="none" d="M25.5,332.5h144a5,5,0,0,1,5,5v12a5,5,0,0,1,-5,5h-144a5,5,0,0,1,-5,-5v-12a5,5,0,0,1,5,-5z"></path><g id="node_text22" fill="black"><text id="kity_text_127" text-rendering="inherit" font-size="12" dy=".8em" y="337.5" x="30.5">dynamic programming</text></g></g><g id="minder_node24"><g id="node_expander22" style="cursor: pointer;" display="none"><path id="kity_path_234" fill="white" stroke="gray" d="M186.5,395.5A6,6,0,1,1,174.5,395.5A6,6,0,1,1,186.5,395.5"></path><path id="kity_path_235" fill="none" stroke="gray"></path></g><path id="node_outline23" fill="none" stroke="none" d="M73.5,384.5h96a5,5,0,0,1,5,5v12a5,5,0,0,1,-5,5h-96a5,5,0,0,1,-5,-5v-12a5,5,0,0,1,5,-5z"></path><g id="node_text23" fill="black"><text id="kity_text_129" text-rendering="inherit" font-size="12" dy=".8em" y="389.5" x="78.5">pattern serach</text></g></g><g id="minder_node25"><g id="node_expander23" style="cursor: pointer;" display="none"><path id="kity_path_237" fill="white" stroke="gray" d="M186.5,447.5A6,6,0,1,1,174.5,447.5A6,6,0,1,1,186.5,447.5"></path><path id="kity_path_238" fill="none" stroke="gray"></path></g><path id="node_outline24" fill="none" stroke="none" d="M128.5,436.5h41a5,5,0,0,1,5,5v12a5,5,0,0,1,-5,5h-41a5,5,0,0,1,-5,-5v-12a5,5,0,0,1,5,-5z"></path><g id="node_text24" fill="black"><text id="kity_text_131" text-rendering="inherit" font-size="12" dy=".8em" y="441.5" x="133.5">math</text></g></g><g id="minder_node26"><g id="node_expander24" style="cursor: pointer;" display="none"><path id="kity_path_240" fill="white" stroke="gray" d="M186.5,499.5A6,6,0,1,1,174.5,499.5A6,6,0,1,1,186.5,499.5"></path><path id="kity_path_241" fill="none" stroke="gray"></path></g><path id="node_outline25" fill="none" stroke="none" d="M95.5,488.5h74a5,5,0,0,1,5,5v12a5,5,0,0,1,-5,5h-74a5,5,0,0,1,-5,-5v-12a5,5,0,0,1,5,-5z"></path><g id="node_text25" fill="black"><text id="kity_text_133" text-rendering="inherit" font-size="12" dy=".8em" y="493.5" x="100.5">geometric&#xa0;</text></g></g><g id="minder_node27"><g id="node_expander25" style="cursor: pointer;" display="none"><path id="kity_path_243" fill="white" stroke="gray" d="M186.5,551.5A6,6,0,1,1,174.5,551.5A6,6,0,1,1,186.5,551.5"></path><path id="kity_path_244" fill="none" stroke="gray"></path></g><path id="node_outline26" fill="none" stroke="none" d="M120.5,540.5h49a5,5,0,0,1,5,5v12a5,5,0,0,1,-5,5h-49a5,5,0,0,1,-5,-5v-12a5,5,0,0,1,5,-5z"></path><g id="node_text26" fill="black"><text id="kity_text_135" text-rendering="inherit" font-size="12" dy=".8em" y="545.5" x="125.5">bitwise</text></g></g><g id="minder_node28"><g id="node_expander26" style="cursor: pointer;" display="none"><path id="kity_path_246" fill="white" stroke="gray" d="M186.5,603.5A6,6,0,1,1,174.5,603.5A6,6,0,1,1,186.5,603.5"></path><path id="kity_path_247" fill="none" stroke="gray"></path></g><path id="node_outline27" fill="none" stroke="none" d="M89.5,592.5h80a5,5,0,0,1,5,5v12a5,5,0,0,1,-5,5h-80a5,5,0,0,1,-5,-5v-12a5,5,0,0,1,5,-5z"></path><g id="node_text27" fill="black"><text id="kity_text_137" text-rendering="inherit" font-size="12" dy=".8em" y="597.5" x="94.5">randomized</text></g></g><g id="minder_node29"><g id="node_expander27" style="cursor: pointer;" display="none"><path id="kity_path_249" fill="white" stroke="gray" d="M186.5,655.5A6,6,0,1,1,174.5,655.5A6,6,0,1,1,186.5,655.5"></path><path id="kity_path_250" fill="none" stroke="gray"></path></g><path id="node_outline28" fill="none" stroke="none" d="M48.5,644.5h121a5,5,0,0,1,5,5v12a5,5,0,0,1,-5,5h-121a5,5,0,0,1,-5,-5v-12a5,5,0,0,1,5,-5z"></path><g id="node_text28" fill="black"><text id="kity_text_139" text-rendering="inherit" font-size="12" dy=".8em" y="649.5" x="53.5">branch and bound</text></g></g></g></g></svg>