<svg version="1.1" xmlns="http://www.w3.org/2000/svg" viewBox="0 0 905.9375 497.390625" width="1811.875" height="994.78125">
  <!-- svg-source:excalidraw -->
  
  <defs>
    <style>
      @font-face {
        font-family: "Virgil";
        src: url("https://excalidraw.com/Virgil.woff2");
      }
      @font-face {
        font-family: "Cascadia";
        src: url("https://excalidraw.com/Cascadia.woff2");
      }
    </style>
  </defs>
  <rect x="0" y="0" width="905.9375" height="497.390625" fill="#ffffff"></rect><g stroke-linecap="round" transform="translate(99.80859375 213.62109375) rotate(0 45.021484375 136.884765625)"><path d="M-0.56 1.71 C18.5 0.99, 35.87 -0.18, 91.41 -0.33 M0 -0.47 C18.53 -0.2, 36.9 -0.34, 90.48 -0.24 M90.59 1.13 C88.31 77.5, 89.44 153.41, 88.8 275.27 M89.47 -0.09 C91.99 88.91, 91.49 177.39, 90.05 273.07 M90.52 275.43 C56.71 272.71, 18.35 273.14, -1.29 272.5 M89.79 273.81 C56.79 273.5, 23.42 272.95, 0.05 273.52 M-1.39 273.94 C1.11 188.17, 2.52 99.65, -0.81 -0.85 M0.54 273.39 C1.63 188.57, 1.73 102.56, 0.72 -0.7" stroke="#000000" stroke-width="1" fill="none"></path></g><g transform="translate(125 254.7421875) rotate(0 17.5 13.5)"><text x="0" y="21" font-family="Chinese, Segoe UI Emoji" font-size="20px" fill="#000000" text-anchor="start" style="white-space: pre;" direction="ltr">clang</text></g><g transform="translate(129.2578125 328.7578125) rotate(0 13.5 13.5)"><text x="0" y="21" font-family="Chinese, Segoe UI Emoji" font-size="20px" fill="#000000" text-anchor="start" style="white-space: pre;" direction="ltr">rust</text></g><g transform="translate(122.94140625 411.703125) rotate(0 21 13.5)"><text x="0" y="21" font-family="Chinese, Segoe UI Emoji" font-size="20px" fill="#000000" text-anchor="start" style="white-space: pre;" direction="ltr">gollvm</text></g><g transform="translate(10 252.2421875) rotate(0 20.5 13.5)"><text x="0" y="21" font-family="Chinese, Segoe UI Emoji" font-size="20px" fill="#000000" text-anchor="start" style="white-space: pre;" direction="ltr">c/c++</text></g><g transform="translate(19.84375 332.2421875) rotate(0 13.5 13.5)"><text x="0" y="21" font-family="Chinese, Segoe UI Emoji" font-size="20px" fill="#000000" text-anchor="start" style="white-space: pre;" direction="ltr">rust</text></g><g transform="translate(15 416.2421875) rotate(0 21.5 13.5)"><text x="0" y="21" font-family="Chinese, Segoe UI Emoji" font-size="20px" fill="#000000" text-anchor="start" style="white-space: pre;" direction="ltr">golang</text></g><g stroke-linecap="round" transform="translate(307.70703125 312.61328125) rotate(0 40.138671875 28.06640625)"><path d="M0.52 1.27 C32.04 -1.68, 61.74 -1.41, 80.72 -0.94 M-0.38 -0.6 C32.32 -0.25, 63.11 -1.18, 80.14 -0.72 M81.52 -1.95 C78.61 19.15, 81.64 41.31, 80.77 54.4 M80.08 -0.91 C79.65 22.11, 80.6 43.9, 80.48 56.8 M81.7 56.58 C49.96 55.54, 19.57 55.38, 0.82 56.49 M80.29 55.39 C50.62 55.94, 21.39 56.88, -0.84 55.3 M-1.4 57.15 C1.31 35.87, 1.65 13.4, -1.87 0.59 M0.89 55.35 C0.41 42.98, -1.27 29.51, -0.89 0.46" stroke="#000000" stroke-width="1" fill="none"></path></g><g transform="translate(312.70703125 327.1796875) rotate(0 35 13.5)"><text x="35" y="21" font-family="Chinese, Segoe UI Emoji" font-size="20px" fill="#000000" text-anchor="middle" style="white-space: pre;" direction="ltr">LLVM IR</text></g><g stroke-linecap="round"><g transform="translate(188.67578125 344.59765625) rotate(0 58.875 -0.37965545909520415)"><path d="M0 0 C19.63 -0.13, 98.13 -0.63, 117.75 -0.76 M0 0 C19.63 -0.13, 98.13 -0.63, 117.75 -0.76" stroke="#000000" stroke-width="1" fill="none"></path></g><g transform="translate(188.67578125 344.59765625) rotate(0 58.875 -0.37965545909520415)"><path d="M89.63 9.68 C97.28 6.84, 104.93 4, 117.75 -0.76 M89.63 9.68 C96.1 7.28, 102.57 4.88, 117.75 -0.76" stroke="#000000" stroke-width="1" fill="none"></path></g><g transform="translate(188.67578125 344.59765625) rotate(0 58.875 -0.37965545909520415)"><path d="M89.49 -10.84 C97.18 -8.1, 104.87 -5.35, 117.75 -0.76 M89.49 -10.84 C96 -8.52, 102.5 -6.2, 117.75 -0.76" stroke="#000000" stroke-width="1" fill="none"></path></g></g><g stroke-linecap="round" transform="translate(420.2734375 311.984375) rotate(0 80.34765625 29.3125)"><path d="M-1.8 -0.18 C40 1.02, 83.95 1.72, 159.2 -0.98 M0.49 -0.47 C53.08 0.92, 104.38 0.51, 161.52 -0.66 M162.55 0.94 C159.38 20.59, 159.55 39.94, 162.4 57.78 M160.29 -0.02 C159.99 15.38, 161.03 30.57, 159.89 58.64 M161.8 57.95 C123.79 59.29, 86.15 59.91, 0.44 57.72 M160.44 58.68 C127.18 57.54, 93.78 57.25, -0.78 58.29 M2 59.51 C1.56 47.02, 0.04 32.97, 0.2 1.43 M0.32 59.46 C-0.48 45.32, -0.12 31.42, 0.27 0.35" stroke="#000000" stroke-width="1" fill="none"></path></g><g transform="translate(448 322.2421875) rotate(0 36 13.5)"><text x="0" y="21" font-family="Chinese, Segoe UI Emoji" font-size="20px" fill="#000000" text-anchor="start" style="white-space: pre;" direction="ltr">LLVM Pass</text></g><g stroke-linecap="round" transform="translate(607.97265625 311.71484375) rotate(0 44 29.5)"><path d="M0.1 0.02 C33.85 0.49, 67.4 -1.33, 87.32 -1.56 M0.44 0.86 C29.44 -0.78, 57.66 -0.78, 88.72 -0.74 M89.67 -1.26 C88.34 15.56, 86.99 32.78, 88.69 59.17 M87.5 0.6 C87.63 22.83, 87.34 47.8, 88.5 59.01 M88.98 57.2 C54.64 60.1, 25.14 59.07, 1.66 60.79 M88.67 58.45 C62.48 59.08, 38.73 59.37, -0.2 58.17 M1.75 60.16 C-0.85 43.6, 0.53 30.36, -1.63 1.73 M0.26 59.32 C0.04 39.02, 1 20.31, 0.41 -0.87" stroke="#000000" stroke-width="1" fill="none"></path></g><g stroke-linecap="round" transform="translate(805.9375 220.32421875) rotate(0 45 129.5)"><path d="M-1.58 1.96 C28.73 0.81, 56.99 -1.43, 89.4 0.79 M0.16 0.24 C28.97 -0.37, 57.7 -0.41, 90.72 0.19 M89.43 0.12 C88.28 90.3, 88.58 178.79, 90.63 260.11 M90.68 -0.54 C90.41 63.57, 90.27 127.66, 89.23 258.65 M89.77 260.57 C55.21 257.86, 22.5 258.18, 0.05 257.92 M89.37 258.86 C67.73 258.66, 46.79 259.18, 0.89 258.92 M-1.22 259.85 C1.59 205.48, -0.01 151.08, -1.37 1.51 M-0.76 259.21 C-0.54 156.53, 0.23 54.06, 0.05 0.11" stroke="#000000" stroke-width="1" fill="none"></path></g><g transform="translate(840.1328125 239.8359375) rotate(0 12 13.5)"><text x="0" y="21" font-family="Chinese, Segoe UI Emoji" font-size="20px" fill="#000000" text-anchor="start" style="white-space: pre;" direction="ltr">x86</text></g><g transform="translate(810.9375 336.32421875) rotate(0 40 13.5)"><text x="40" y="21" font-family="Chinese, Segoe UI Emoji" font-size="20px" fill="#000000" text-anchor="middle" style="white-space: pre;" direction="ltr">arm</text></g><g transform="translate(829.1328125 433.7421875) rotate(0 19.5 13.5)"><text x="0" y="21" font-family="Chinese, Segoe UI Emoji" font-size="20px" fill="#000000" text-anchor="start" style="white-space: pre;" direction="ltr">risc-v</text></g><g stroke-linecap="round"><g transform="translate(699.1901202847944 340.11027444029116) rotate(0 48.638293403939315 0.800732443332663)"><path d="M0 0 C16.21 0.27, 81.06 1.33, 97.28 1.6 M0 0 C16.21 0.27, 81.06 1.33, 97.28 1.6" stroke="#000000" stroke-width="1" fill="none"></path></g><g transform="translate(699.1901202847944 340.11027444029116) rotate(0 48.638293403939315 0.800732443332663)"><path d="M68.92 11.4 C76.35 8.83, 83.78 6.26, 97.28 1.6 M68.92 11.4 C78.55 8.07, 88.18 4.74, 97.28 1.6" stroke="#000000" stroke-width="1" fill="none"></path></g><g transform="translate(699.1901202847944 340.11027444029116) rotate(0 48.638293403939315 0.800732443332663)"><path d="M69.26 -9.12 C76.6 -6.31, 83.94 -3.5, 97.28 1.6 M69.26 -9.12 C78.77 -5.48, 88.29 -1.84, 97.28 1.6" stroke="#000000" stroke-width="1" fill="none"></path></g></g><g transform="translate(612.97265625 327.71484375) rotate(0 39 13.5)"><text x="39" y="21" font-family="Chinese, Segoe UI Emoji" font-size="20px" fill="#000000" text-anchor="middle" style="white-space: pre;" direction="ltr">backend</text></g><g stroke-linecap="round" transform="translate(83.18359375 41.0859375) rotate(0 39.740234375 19.49609375)"><path d="M0 0 C19.08 0, 38.15 0, 79.48 0 M0 0 C17.04 0, 34.07 0, 79.48 0 M79.48 0 C79.48 11.59, 79.48 23.19, 79.48 38.99 M79.48 0 C79.48 12.54, 79.48 25.09, 79.48 38.99 M79.48 38.99 C50.19 38.99, 20.9 38.99, 0 38.99 M79.48 38.99 C47.86 38.99, 16.23 38.99, 0 38.99 M0 38.99 C0 30.87, 0 22.74, 0 0 M0 38.99 C0 25.61, 0 12.23, 0 0" stroke="#000000" stroke-width="1" fill="none"></path></g><g transform="translate(88.18359375 47.08203125) rotate(0 34.5 13.5)"><text x="34.5" y="21" font-family="Chinese, Segoe UI Emoji" font-size="20px" fill="#000000" text-anchor="middle" style="white-space: pre;" direction="ltr">.C</text></g><g stroke-linecap="round" transform="translate(304.970703125 39.9765625) rotate(0 39.740234375 19.49609375)"><path d="M0 0 C22.75 0, 45.49 0, 79.48 0 M0 0 C16.69 0, 33.38 0, 79.48 0 M79.48 0 C79.48 8.08, 79.48 16.15, 79.48 38.99 M79.48 0 C79.48 15.11, 79.48 30.22, 79.48 38.99 M79.48 38.99 C56.75 38.99, 34.01 38.99, 0 38.99 M79.48 38.99 C53.33 38.99, 27.19 38.99, 0 38.99 M0 38.99 C0 28.29, 0 17.59, 0 0 M0 38.99 C0 23.88, 0 8.77, 0 0" stroke="#000000" stroke-width="1" fill="none"></path></g><g transform="translate(309.970703125 45.97265625) rotate(0 34.5 13.5)"><text x="34.5" y="21" font-family="Chinese, Segoe UI Emoji" font-size="20px" fill="#000000" text-anchor="middle" style="white-space: pre;" direction="ltr">.S</text></g><g stroke-linecap="round" transform="translate(523.232421875 39.0859375) rotate(0 39.740234375 19.49609375)"><path d="M0 0 C31.13 0, 62.25 0, 79.48 0 M0 0 C17.68 0, 35.37 0, 79.48 0 M79.48 0 C79.48 10.58, 79.48 21.16, 79.48 38.99 M79.48 0 C79.48 15.58, 79.48 31.16, 79.48 38.99 M79.48 38.99 C57.81 38.99, 36.13 38.99, 0 38.99 M79.48 38.99 C61.69 38.99, 43.89 38.99, 0 38.99 M0 38.99 C0 26, 0 13, 0 0 M0 38.99 C0 27.8, 0 16.6, 0 0" stroke="#000000" stroke-width="1" fill="none"></path></g><g transform="translate(528.232421875 45.08203125) rotate(0 34.5 13.5)"><text x="34.5" y="21" font-family="Chinese, Segoe UI Emoji" font-size="20px" fill="#000000" text-anchor="middle" style="white-space: pre;" direction="ltr">.O</text></g><g stroke-linecap="round" transform="translate(750.400390625 36.2578125) rotate(0 39.740234375 19.49609375)"><path d="M0 0 C23.81 0, 47.62 0, 79.48 0 M0 0 C17.49 0, 34.98 0, 79.48 0 M79.48 0 C79.48 9.95, 79.48 19.9, 79.48 38.99 M79.48 0 C79.48 9.34, 79.48 18.68, 79.48 38.99 M79.48 38.99 C53.22 38.99, 26.97 38.99, 0 38.99 M79.48 38.99 C52.13 38.99, 24.78 38.99, 0 38.99 M0 38.99 C0 27.84, 0 16.69, 0 0 M0 38.99 C0 26.22, 0 13.44, 0 0" stroke="#000000" stroke-width="1" fill="none"></path></g><g transform="translate(755.400390625 42.25390625) rotate(0 34.5 13.5)"><text x="34.5" y="21" font-family="Chinese, Segoe UI Emoji" font-size="20px" fill="#000000" text-anchor="middle" style="white-space: pre;" direction="ltr">.elf</text></g><g stroke-linecap="round"><g transform="translate(165.10546875 61.687974738516175) rotate(0 69.4326171875 0.11238982660850994)"><path d="M0 0 C23.14 0.04, 115.72 0.19, 138.87 0.22 M0 0 C23.14 0.04, 115.72 0.19, 138.87 0.22" stroke="#000000" stroke-width="1" fill="none"></path></g><g transform="translate(165.10546875 61.687974738516175) rotate(0 69.4326171875 0.11238982660850994)"><path d="M110.66 10.44 C117.62 7.92, 124.59 5.4, 138.87 0.22 M110.66 10.44 C116.41 8.36, 122.17 6.27, 138.87 0.22" stroke="#000000" stroke-width="1" fill="none"></path></g><g transform="translate(165.10546875 61.687974738516175) rotate(0 69.4326171875 0.11238982660850994)"><path d="M110.69 -10.08 C117.65 -7.54, 124.6 -4.99, 138.87 0.22 M110.69 -10.08 C116.44 -7.98, 122.19 -5.88, 138.87 0.22" stroke="#000000" stroke-width="1" fill="none"></path></g></g><g stroke-linecap="round"><g transform="translate(383.63671875 60.1796875) rotate(0 69.2978515625 0.6266262063183419)"><path d="M0 0 C23.1 0.21, 115.5 1.04, 138.6 1.25 M0 0 C23.1 0.21, 115.5 1.04, 138.6 1.25" stroke="#000000" stroke-width="1" fill="none"></path></g><g transform="translate(383.63671875 60.1796875) rotate(0 69.2978515625 0.6266262063183419)"><path d="M110.31 11.26 C118.95 8.2, 127.59 5.15, 138.6 1.25 M110.31 11.26 C117.59 8.69, 124.86 6.11, 138.6 1.25" stroke="#000000" stroke-width="1" fill="none"></path></g><g transform="translate(383.63671875 60.1796875) rotate(0 69.2978515625 0.6266262063183419)"><path d="M110.5 -9.26 C119.08 -6.05, 127.66 -2.84, 138.6 1.25 M110.5 -9.26 C117.72 -6.56, 124.95 -3.85, 138.6 1.25" stroke="#000000" stroke-width="1" fill="none"></path></g></g><g stroke-linecap="round"><g transform="translate(603.712890625 57.85497171323332) rotate(0 71.9423828125 -0.20561367626000404)"><path d="M0 0 C23.98 -0.07, 119.9 -0.34, 143.88 -0.41 M0 0 C23.98 -0.07, 119.9 -0.34, 143.88 -0.41" stroke="#000000" stroke-width="1" fill="none"></path></g><g transform="translate(603.712890625 57.85497171323332) rotate(0 71.9423828125 -0.20561367626000404)"><path d="M115.72 9.93 C121.4 7.84, 127.08 5.76, 143.88 -0.41 M115.72 9.93 C125.37 6.39, 135.02 2.84, 143.88 -0.41" stroke="#000000" stroke-width="1" fill="none"></path></g><g transform="translate(603.712890625 57.85497171323332) rotate(0 71.9423828125 -0.20561367626000404)"><path d="M115.66 -10.59 C121.35 -8.54, 127.04 -6.49, 143.88 -0.41 M115.66 -10.59 C125.33 -7.1, 135 -3.62, 143.88 -0.41" stroke="#000000" stroke-width="1" fill="none"></path></g></g><g transform="translate(200.9140625 12) rotate(0 11 13.5)"><text x="0" y="21" font-family="Chinese, Segoe UI Emoji" font-size="20px" fill="#000000" text-anchor="start" style="white-space: pre;" direction="ltr">gcc</text></g><g transform="translate(195.9140625 79) rotate(0 17.5 13.5)"><text x="0" y="21" font-family="Chinese, Segoe UI Emoji" font-size="20px" fill="#000000" text-anchor="start" style="white-space: pre;" direction="ltr">clang</text></g><g transform="translate(431.9140625 10) rotate(0 7.5 13.5)"><text x="0" y="21" font-family="Chinese, Segoe UI Emoji" font-size="20px" fill="#000000" text-anchor="start" style="white-space: pre;" direction="ltr">as</text></g><g transform="translate(420.9140625 81) rotate(0 24 13.5)"><text x="0" y="21" font-family="Chinese, Segoe UI Emoji" font-size="20px" fill="#000000" text-anchor="start" style="white-space: pre;" direction="ltr">llvm-as</text></g><g transform="translate(648.9140625 14) rotate(0 6.5 13.5)"><text x="0" y="21" font-family="Chinese, Segoe UI Emoji" font-size="20px" fill="#000000" text-anchor="start" style="white-space: pre;" direction="ltr">ld</text></g><g transform="translate(644.9140625 85) rotate(0 8.5 13.5)"><text x="0" y="21" font-family="Chinese, Segoe UI Emoji" font-size="20px" fill="#000000" text-anchor="start" style="white-space: pre;" direction="ltr">lld</text></g></svg>