<svg version="1.1" xmlns="http://www.w3.org/2000/svg" viewBox="0 0 1041.36328125 417.109375" width="2082.7265625" height="834.21875">
  <!-- svg-source:excalidraw -->
  
  <defs>
    <style>
      @font-face {
        font-family: "Virgil";
        src: url("https://excalidraw.com/Virgil.woff2");
      }
      @font-face {
        font-family: "Cascadia";
        src: url("https://excalidraw.com/Cascadia.woff2");
      }
    </style>
  </defs>
  <rect x="0" y="0" width="1041.36328125" height="417.109375" fill="#ffffff"></rect><g stroke-linecap="round" transform="translate(259.91015625 247.04296875) rotate(0 61.5 18.5)"><path d="M0 0 C40.46 0, 80.91 0, 123 0 M0 0 C28.26 0, 56.53 0, 123 0 M123 0 C123 11.05, 123 22.11, 123 37 M123 0 C123 8.48, 123 16.96, 123 37 M123 37 C74.14 37, 25.28 37, 0 37 M123 37 C90.23 37, 57.46 37, 0 37 M0 37 C0 26.72, 0 16.45, 0 0 M0 37 C0 25.92, 0 14.84, 0 0" stroke="#000000" stroke-width="1" fill="none"></path></g><g transform="translate(264.91015625 252.04296875) rotate(0 56.5 13.5)"><text x="56.5" y="21" font-family="Chinese, Segoe UI Emoji" font-size="20px" fill="#000000" text-anchor="middle" style="white-space: pre;" direction="ltr">footer</text></g><g stroke-linecap="round" transform="translate(258.05859375 60.75390625) rotate(0 61.5 18.5)"><path d="M0 0 C30.54 0, 61.08 0, 123 0 M0 0 C45.62 0, 91.25 0, 123 0 M123 0 C123 14.37, 123 28.75, 123 37 M123 0 C123 12.66, 123 25.33, 123 37 M123 37 C86.35 37, 49.71 37, 0 37 M123 37 C76.41 37, 29.82 37, 0 37 M0 37 C0 22.98, 0 8.96, 0 0 M0 37 C0 29.3, 0 21.6, 0 0" stroke="#000000" stroke-width="1" fill="none"></path></g><g transform="translate(264.91015625 252.04296875) rotate(0 56.5 13.5)"><text x="56.5" y="21" font-family="Chinese, Segoe UI Emoji" font-size="20px" fill="#000000" text-anchor="middle" style="white-space: pre;" direction="ltr">footer</text></g><g stroke-linecap="round" transform="translate(258.50390625 98.53515625) rotate(0 61.5 18.5)"><path d="M0 0 C29.68 0, 59.36 0, 123 0 M0 0 C44.79 0, 89.59 0, 123 0 M123 0 C123 8.89, 123 17.78, 123 37 M123 0 C123 11.35, 123 22.71, 123 37 M123 37 C90.15 37, 57.3 37, 0 37 M123 37 C74.04 37, 25.08 37, 0 37 M0 37 C0 25.68, 0 14.37, 0 0 M0 37 C0 29.52, 0 22.03, 0 0" stroke="#000000" stroke-width="1" fill="none"></path></g><g stroke-linecap="round" transform="translate(259.00390625 135.6953125) rotate(0 61.5 18.5)"><path d="M0 0 C48.96 0, 97.92 0, 123 0 M0 0 C37.62 0, 75.24 0, 123 0 M123 0 C123 7.48, 123 14.97, 123 37 M123 0 C123 13.6, 123 27.2, 123 37 M123 37 C77.3 37, 31.6 37, 0 37 M123 37 C81.6 37, 40.21 37, 0 37 M0 37 C0 27.82, 0 18.65, 0 0 M0 37 C0 25.23, 0 13.45, 0 0" stroke="#000000" stroke-width="1" fill="none"></path></g><g stroke-linecap="round" transform="translate(259.8359375 208.85546875) rotate(0 61.5 18.5)"><path d="M0 0 C27.95 0, 55.9 0, 123 0 M0 0 C26.18 0, 52.35 0, 123 0 M123 0 C123 12.76, 123 25.52, 123 37 M123 0 C123 10.34, 123 20.68, 123 37 M123 37 C75.72 37, 28.44 37, 0 37 M123 37 C77.57 37, 32.14 37, 0 37 M0 37 C0 25.54, 0 14.08, 0 0 M0 37 C0 27.51, 0 18.01, 0 0" stroke="#000000" stroke-width="1" fill="none"></path></g><g stroke-linecap="round" transform="translate(259.8515625 171.23046875) rotate(0 61.5 18.5)"><path d="M0 0 C34.51 0, 69.02 0, 123 0 M0 0 C42.32 0, 84.64 0, 123 0 M123 0 C123 8.99, 123 17.97, 123 37 M123 0 C123 13.38, 123 26.77, 123 37 M123 37 C94.7 37, 66.41 37, 0 37 M123 37 C92.49 37, 61.98 37, 0 37 M0 37 C0 27.51, 0 18.02, 0 0 M0 37 C0 25.15, 0 13.3, 0 0" stroke="#000000" stroke-width="1" fill="none"></path></g><g transform="translate(263.05859375 65.75390625) rotate(0 56.5 13.5)"><text x="56.5" y="21" font-family="Chinese, Segoe UI Emoji" font-size="20px" fill="#000000" text-anchor="middle" style="white-space: pre;" direction="ltr">block1</text></g><g transform="translate(263.50390625 103.53515625) rotate(0 56.5 13.5)"><text x="56.5" y="21" font-family="Chinese, Segoe UI Emoji" font-size="20px" fill="#000000" text-anchor="middle" style="white-space: pre;" direction="ltr">block2</text></g><g transform="translate(264.00390625 140.6953125) rotate(0 56.5 13.5)"><text x="56.5" y="21" font-family="Chinese, Segoe UI Emoji" font-size="20px" fill="#000000" text-anchor="middle" style="white-space: pre;" direction="ltr">block3</text></g><g transform="translate(264.8515625 176.23046875) rotate(0 56.5 13.5)"><text x="56.5" y="21" font-family="Chinese, Segoe UI Emoji" font-size="20px" fill="#000000" text-anchor="middle" style="white-space: pre;" direction="ltr">meta index</text></g><g transform="translate(264.8359375 213.85546875) rotate(0 56.5 13.5)"><text x="56.5" y="21" font-family="Chinese, Segoe UI Emoji" font-size="20px" fill="#000000" text-anchor="middle" style="white-space: pre;" direction="ltr">index block</text></g><g stroke-linecap="round" transform="translate(10 157.97265625) rotate(0 62 99.5)"><path d="M0 0 C29.83 0, 59.66 0, 124 0 M124 0 C124 56.35, 124 112.71, 124 199 M124 199 C96.95 199, 69.9 199, 0 199 M0 199 C0 119.99, 0 40.98, 0 0" stroke="#000000" stroke-width="1.5" fill="none" stroke-dasharray="8 9"></path></g><g stroke-linecap="round"><g transform="translate(260.046875 246.7109375) rotate(0 -62.46484375 -42.640625)"><path d="M0 0 C-20.82 -14.21, -104.11 -71.07, -124.93 -85.28" stroke="#000000" stroke-width="2.5" fill="none" stroke-dasharray="1.5 8"></path></g></g><g stroke-linecap="round"><g transform="translate(255.15625 288.859375) rotate(0 -58.482421875 31.720703125)"><path d="M0 0 C-19.49 10.57, -97.47 52.87, -116.96 63.44" stroke="#000000" stroke-width="2.5" fill="none" stroke-dasharray="1.5 8"></path></g></g><g transform="translate(15 176.47265625) rotate(0 57 81)"><text x="57" y="21" font-family="Chinese, Segoe UI Emoji" font-size="20px" fill="#000000" text-anchor="middle" style="white-space: pre;" direction="ltr">metaindex.offset</text><text x="57" y="48" font-family="Chinese, Segoe UI Emoji" font-size="20px" fill="#000000" text-anchor="middle" style="white-space: pre;" direction="ltr">metaindex.size</text><text x="57" y="75" font-family="Chinese, Segoe UI Emoji" font-size="20px" fill="#000000" text-anchor="middle" style="white-space: pre;" direction="ltr">index.offset</text><text x="57" y="102" font-family="Chinese, Segoe UI Emoji" font-size="20px" fill="#000000" text-anchor="middle" style="white-space: pre;" direction="ltr">index.size</text><text x="57" y="129" font-family="Chinese, Segoe UI Emoji" font-size="20px" fill="#000000" text-anchor="middle" style="white-space: pre;" direction="ltr">padding</text><text x="57" y="156" font-family="Chinese, Segoe UI Emoji" font-size="20px" fill="#000000" text-anchor="middle" style="white-space: pre;" direction="ltr">magic number</text></g><g stroke-linecap="round"><g transform="translate(140.11328125 189.90976088506767) rotate(0 59.369140625 -8.730352057927803)"><path d="M0 0 C19.79 -2.91, 98.95 -14.55, 118.74 -17.46" stroke="#000000" stroke-width="1.5" fill="none" stroke-dasharray="1.5 7"></path></g><g transform="translate(140.11328125 189.90976088506767) rotate(0 59.369140625 -8.730352057927803)"><path d="M92.34 -3.21 C100.13 -7.41, 107.92 -11.62, 118.74 -17.46" stroke="#000000" stroke-width="1.5" fill="none" stroke-dasharray="1.5 5"></path></g><g transform="translate(140.11328125 189.90976088506767) rotate(0 59.369140625 -8.730352057927803)"><path d="M89.35 -23.51 C98.02 -21.73, 106.69 -19.94, 118.74 -17.46" stroke="#000000" stroke-width="1.5" fill="none" stroke-dasharray="1.5 5"></path></g></g><g stroke-linecap="round"><g transform="translate(139.7578125 245.64978790864177) rotate(0 58.69327100766418 -16.463939794310193)"><path d="M0 0 C19.56 -5.49, 97.82 -27.44, 117.39 -32.93" stroke="#000000" stroke-width="1.5" fill="none" stroke-dasharray="1.5 7"></path></g><g transform="translate(139.7578125 245.64978790864177) rotate(0 58.69327100766418 -16.463939794310193)"><path d="M93.01 -15.43 C99.56 -20.14, 106.11 -24.84, 117.39 -32.93" stroke="#000000" stroke-width="1.5" fill="none" stroke-dasharray="1.5 5"></path></g><g transform="translate(139.7578125 245.64978790864177) rotate(0 58.69327100766418 -16.463939794310193)"><path d="M87.47 -35.19 C95.51 -34.58, 103.55 -33.98, 117.39 -32.93" stroke="#000000" stroke-width="1.5" fill="none" stroke-dasharray="1.5 5"></path></g></g><g stroke-linecap="round" transform="translate(495.41796875 179.21875) rotate(0 47 45.5)"><path d="M0 0 C27.92 0, 55.83 0, 94 0 M94 0 C94 28.81, 94 57.62, 94 91 M94 91 C62.8 91, 31.6 91, 0 91 M0 91 C0 70.09, 0 49.17, 0 0" stroke="#000000" stroke-width="2.5" fill="none" stroke-dasharray="8 10"></path></g><g stroke-linecap="round"><g transform="translate(384.06640625 208.625) rotate(0 53.248046875 -12.216796875)"><path d="M0 0 C17.75 -4.07, 88.75 -20.36, 106.5 -24.43" stroke="#000000" stroke-width="2.5" fill="none" stroke-dasharray="1.5 8"></path></g></g><g stroke-linecap="round"><g transform="translate(382.828125 244.84765625) rotate(0 54.056640625 11.6953125)"><path d="M0 0 C18.02 3.9, 90.09 19.49, 108.11 23.39" stroke="#000000" stroke-width="2.5" fill="none" stroke-dasharray="1.5 8"></path></g></g><g transform="translate(500.41796875 184.21875) rotate(0 42 40.5)"><text x="42" y="21" font-family="Chinese, Segoe UI Emoji" font-size="20px" fill="#000000" text-anchor="middle" style="white-space: pre;" direction="ltr">entry1</text><text x="42" y="48" font-family="Chinese, Segoe UI Emoji" font-size="20px" fill="#000000" text-anchor="middle" style="white-space: pre;" direction="ltr">entry2</text><text x="42" y="75" font-family="Chinese, Segoe UI Emoji" font-size="20px" fill="#000000" text-anchor="middle" style="white-space: pre;" direction="ltr">entry3</text></g><g stroke-linecap="round"><g transform="translate(497.48046875 203.4921875) rotate(0 -59.603515625 -73.4765625)"><path d="M0 0 C-19.87 -24.49, -99.34 -122.46, -119.21 -146.95" stroke="#000000" stroke-width="2.5" fill="none" stroke-dasharray="1.5 8"></path></g><g transform="translate(497.48046875 203.4921875) rotate(0 -59.603515625 -73.4765625)"><path d="M-93.48 -131.52 C-103.24 -137.38, -113 -143.23, -119.21 -146.95" stroke="#000000" stroke-width="2.5" fill="none" stroke-dasharray="1.5 6"></path></g><g transform="translate(497.48046875 203.4921875) rotate(0 -59.603515625 -73.4765625)"><path d="M-109.42 -118.6 C-113.13 -129.36, -116.85 -140.12, -119.21 -146.95" stroke="#000000" stroke-width="2.5" fill="none" stroke-dasharray="1.5 6"></path></g></g><g stroke-linecap="round"><g transform="translate(493.6171875 253.3372047851317) rotate(0 -54.765625 -57.68045962162182)"><path d="M0 0 C-18.26 -19.23, -91.28 -96.13, -109.53 -115.36" stroke="#000000" stroke-width="2.5" fill="none" stroke-dasharray="1.5 8"></path></g><g transform="translate(493.6171875 253.3372047851317) rotate(0 -54.765625 -57.68045962162182)"><path d="M-82.68 -101.98 C-91.56 -106.41, -100.45 -110.84, -109.53 -115.36" stroke="#000000" stroke-width="2.5" fill="none" stroke-dasharray="1.5 6"></path></g><g transform="translate(493.6171875 253.3372047851317) rotate(0 -54.765625 -57.68045962162182)"><path d="M-97.56 -87.85 C-101.52 -96.95, -105.48 -106.06, -109.53 -115.36" stroke="#000000" stroke-width="2.5" fill="none" stroke-dasharray="1.5 6"></path></g></g><g transform="translate(270.4921875 314.63671875) rotate(0 79 13.5)"><text x="0" y="21" font-family="Chinese, Segoe UI Emoji" font-size="20px" fill="#000000" text-anchor="start" style="white-space: pre;" direction="ltr">LevelDB ldb文件格式</text></g><g transform="translate(461.87109375 286.296875) rotate(0 92.5 13.5)"><text x="0" y="21" font-family="Chinese, Segoe UI Emoji" font-size="20px" fill="#000000" text-anchor="start" style="white-space: pre;" direction="ltr">entry(last_key, offset, size)</text></g><g stroke-linecap="round" transform="translate(678.68359375 29.890625) rotate(0 65 167)"><path d="M0 0 C42.14 0, 84.29 0, 130 0 M0 0 C26.35 0, 52.71 0, 130 0 M130 0 C130 117.79, 130 235.59, 130 334 M130 0 C130 117.72, 130 235.44, 130 334 M130 334 C101.09 334, 72.17 334, 0 334 M130 334 C92.65 334, 55.31 334, 0 334 M0 334 C0 207.86, 0 81.72, 0 0 M0 334 C0 240.88, 0 147.76, 0 0" stroke="#000000" stroke-width="2" fill="none"></path></g><g transform="translate(683.68359375 34.890625) rotate(0 60 162)"><text x="60" y="21" font-family="Chinese, Segoe UI Emoji" font-size="20px" fill="#000000" text-anchor="middle" style="white-space: pre;" direction="ltr">entry[0]</text><text x="60" y="48" font-family="Chinese, Segoe UI Emoji" font-size="20px" fill="#000000" text-anchor="middle" style="white-space: pre;" direction="ltr">entry[1]</text><text x="60" y="75" font-family="Chinese, Segoe UI Emoji" font-size="20px" fill="#000000" text-anchor="middle" style="white-space: pre;" direction="ltr">...</text><text x="60" y="102" font-family="Chinese, Segoe UI Emoji" font-size="20px" fill="#000000" text-anchor="middle" style="white-space: pre;" direction="ltr">entry[n-1]</text><text x="60" y="129" font-family="Chinese, Segoe UI Emoji" font-size="20px" fill="#000000" text-anchor="middle" style="white-space: pre;" direction="ltr">restarts[0]</text><text x="60" y="156" font-family="Chinese, Segoe UI Emoji" font-size="20px" fill="#000000" text-anchor="middle" style="white-space: pre;" direction="ltr">restarts[1]</text><text x="60" y="183" font-family="Chinese, Segoe UI Emoji" font-size="20px" fill="#000000" text-anchor="middle" style="white-space: pre;" direction="ltr">...</text><text x="60" y="210" font-family="Chinese, Segoe UI Emoji" font-size="20px" fill="#000000" text-anchor="middle" style="white-space: pre;" direction="ltr">restarts[m-1]</text><text x="60" y="237" font-family="Chinese, Segoe UI Emoji" font-size="20px" fill="#000000" text-anchor="middle" style="white-space: pre;" direction="ltr">len(restarts)=M</text><text x="60" y="264" font-family="Chinese, Segoe UI Emoji" font-size="20px" fill="#000000" text-anchor="middle" style="white-space: pre;" direction="ltr">type</text><text x="60" y="291" font-family="Chinese, Segoe UI Emoji" font-size="20px" fill="#000000" text-anchor="middle" style="white-space: pre;" direction="ltr">CRC32</text><text x="60" y="318" font-family="Chinese, Segoe UI Emoji" font-size="20px" fill="#000000" text-anchor="middle" style="white-space: pre;" direction="ltr"></text></g><g stroke-linecap="round" transform="translate(907.36328125 10) rotate(0 62 72.5)"><path d="M0 0 C49.5 0, 98.99 0, 124 0 M124 0 C124 57.28, 124 114.56, 124 145 M124 145 C78.26 145, 32.52 145, 0 145 M0 145 C0 88.44, 0 31.88, 0 0" stroke="#000000" stroke-width="2.5" fill="none" stroke-dasharray="8 10"></path></g><g transform="translate(912.36328125 15) rotate(0 57 67.5)"><text x="57" y="21" font-family="Chinese, Segoe UI Emoji" font-size="20px" fill="#000000" text-anchor="middle" style="white-space: pre;" direction="ltr">shared_bytes</text><text x="57" y="48" font-family="Chinese, Segoe UI Emoji" font-size="20px" fill="#000000" text-anchor="middle" style="white-space: pre;" direction="ltr">unshared_bytes</text><text x="57" y="75" font-family="Chinese, Segoe UI Emoji" font-size="20px" fill="#000000" text-anchor="middle" style="white-space: pre;" direction="ltr">value_length</text><text x="57" y="102" font-family="Chinese, Segoe UI Emoji" font-size="20px" fill="#000000" text-anchor="middle" style="white-space: pre;" direction="ltr">key_delta</text><text x="57" y="129" font-family="Chinese, Segoe UI Emoji" font-size="20px" fill="#000000" text-anchor="middle" style="white-space: pre;" direction="ltr">value</text></g><g stroke-linecap="round"><g transform="translate(814.5390625 65.0234375) rotate(0 46.962890625 -26.517578125)"><path d="M0 0 C15.65 -8.84, 78.27 -44.2, 93.93 -53.04" stroke="#000000" stroke-width="2.5" fill="none" stroke-dasharray="1.5 8"></path></g></g><g stroke-linecap="round"><g transform="translate(816.26171875 87.23046875) rotate(0 44.962890625 33.12109375)"><path d="M0 0 C14.99 11.04, 74.94 55.2, 89.93 66.24" stroke="#000000" stroke-width="2.5" fill="none" stroke-dasharray="1.5 8"></path></g></g><g transform="translate(879.93359375 210.49609375) rotate(0 22 13.5)"><text x="0" y="21" font-family="Chinese, Segoe UI Emoji" font-size="20px" fill="#000000" text-anchor="start" style="white-space: pre;" direction="ltr">trailer</text></g><g stroke-linecap="round"><g transform="translate(809.5859375 148.53125) rotate(0 36.263671875 34.6328125)"><path d="M0 0 C12.09 11.54, 60.44 57.72, 72.53 69.27" stroke="#000000" stroke-width="2.5" fill="none" stroke-dasharray="1.5 8"></path></g></g><g stroke-linecap="round"><g transform="translate(808.4375 272.55859375) rotate(0 35.88671875 -19.916015625)"><path d="M0 0 C11.96 -6.64, 59.81 -33.19, 71.77 -39.83" stroke="#000000" stroke-width="2.5" fill="none" stroke-dasharray="1.5 8"></path></g></g><g transform="translate(680.30859375 380.109375) rotate(0 70.5 13.5)"><text x="0" y="21" font-family="Chinese, Segoe UI Emoji" font-size="20px" fill="#000000" text-anchor="start" style="white-space: pre;" direction="ltr">磁盘块中的结构</text></g><g stroke-linecap="round"><g transform="translate(382.5078125 129.31774786897284) rotate(0 147.533203125 -3.2360563930255353)"><path d="M0 0 C49.18 -1.08, 245.89 -5.39, 295.07 -6.47 M0 0 C49.18 -1.08, 245.89 -5.39, 295.07 -6.47" stroke="#000000" stroke-width="2" fill="none"></path></g><g transform="translate(382.5078125 129.31774786897284) rotate(0 147.533203125 -3.2360563930255353)"><path d="M267.11 4.4 C276.62 0.7, 286.13 -2.99, 295.07 -6.47 M267.11 4.4 C273.58 1.89, 280.05 -0.63, 295.07 -6.47" stroke="#000000" stroke-width="2" fill="none"></path></g><g transform="translate(382.5078125 129.31774786897284) rotate(0 147.533203125 -3.2360563930255353)"><path d="M266.66 -16.11 C276.32 -12.83, 285.98 -9.55, 295.07 -6.47 M266.66 -16.11 C273.23 -13.88, 279.81 -11.65, 295.07 -6.47" stroke="#000000" stroke-width="2" fill="none"></path></g></g></svg>